G04*
G04 #@! TF.GenerationSoftware,Altium Limited,Altium Designer,19.1.7 (138)*
G04*
G04 Layer_Color=8421504*
%FSLAX25Y25*%
%MOIN*%
G70*
G01*
G75*
%ADD20R,0.01575X0.03740*%
%ADD21R,0.03347X0.02165*%
%ADD22R,0.02362X0.01378*%
%ADD23R,0.01575X0.01772*%
%ADD24R,0.02441X0.02441*%
%ADD25R,0.02284X0.02441*%
%ADD26R,0.02441X0.02441*%
%ADD27R,0.03543X0.01968*%
%ADD28R,0.03937X0.03937*%
%ADD29O,0.00984X0.05512*%
%ADD30R,0.11614X0.06929*%
%ADD31R,0.05709X0.04528*%
%ADD32R,0.02441X0.02284*%
%ADD33R,0.03858X0.14567*%
%ADD34C,0.01772*%
%ADD35R,0.07087X0.08858*%
%ADD36R,0.03740X0.01575*%
%ADD37R,0.03740X0.03937*%
%ADD38R,0.03740X0.03740*%
%ADD39R,0.05118X0.06083*%
%ADD40R,0.08465X0.06693*%
%ADD41R,0.01772X0.01575*%
%ADD42R,0.03740X0.03740*%
%ADD43R,0.02900X0.11000*%
%ADD44R,0.09252X0.09646*%
%ADD45R,0.09646X0.09252*%
%ADD46C,0.01575*%
%ADD47C,0.03504*%
%ADD48R,0.05709X0.01181*%
%ADD49R,0.01181X0.05709*%
%ADD50O,0.09055X0.02362*%
%ADD51R,0.02362X0.06102*%
%ADD52R,0.07087X0.05512*%
%ADD53R,0.07284X0.04921*%
%ADD54R,0.05512X0.07087*%
%ADD55R,0.04528X0.05709*%
%ADD56R,0.03740X0.03937*%
%ADD57R,0.05512X0.04134*%
%ADD58R,0.04528X0.07087*%
%ADD59R,0.07087X0.04528*%
%ADD60R,0.03937X0.03740*%
%ADD61R,0.03937X0.03937*%
%ADD62R,0.04134X0.02362*%
%ADD63R,0.04331X0.02362*%
%ADD64R,0.04331X0.05709*%
%ADD65R,0.05512X0.04134*%
%ADD66R,0.05709X0.04331*%
%ADD67R,0.07087X0.04921*%
%ADD68R,0.04921X0.07087*%
%ADD69R,0.07480X0.06299*%
%ADD70R,0.04921X0.02362*%
%ADD71R,0.04724X0.04724*%
%ADD72R,0.05906X0.06299*%
%ADD73R,0.06102X0.02362*%
%ADD74R,0.08858X0.07087*%
D20*
X156159Y-35931D02*
D03*
X153600D02*
D03*
X151041D02*
D03*
Y-27269D02*
D03*
X153600D02*
D03*
X156159D02*
D03*
D21*
X142166Y-16141D02*
D03*
Y-21259D02*
D03*
X150434Y-18700D02*
D03*
X170234Y-25959D02*
D03*
Y-20841D02*
D03*
X161966Y-23400D02*
D03*
D22*
X183333Y-20079D02*
D03*
Y-16929D02*
D03*
X179003Y-18504D02*
D03*
D23*
X28248Y-8661D02*
D03*
Y-5906D02*
D03*
X-157185Y-230807D02*
D03*
Y-233563D02*
D03*
X44943Y-248369D02*
D03*
Y-251125D02*
D03*
X100689Y-246949D02*
D03*
Y-249705D02*
D03*
X103642Y-246949D02*
D03*
Y-249705D02*
D03*
D24*
X-21358Y-240846D02*
D03*
Y-237303D02*
D03*
X180413Y-270019D02*
D03*
Y-266476D02*
D03*
X-106299Y-261319D02*
D03*
Y-257776D02*
D03*
X182972Y7579D02*
D03*
Y11122D02*
D03*
X165256Y-7677D02*
D03*
Y-4134D02*
D03*
Y-15059D02*
D03*
Y-11516D02*
D03*
X-159265Y-256757D02*
D03*
Y-260300D02*
D03*
D25*
X38996Y-161614D02*
D03*
X42697D02*
D03*
X155098Y-183071D02*
D03*
X151398D02*
D03*
X180689Y-184646D02*
D03*
X176988D02*
D03*
X61496Y-203248D02*
D03*
X57795D02*
D03*
X182756Y-84842D02*
D03*
X179055D02*
D03*
X183146Y-68701D02*
D03*
X179445D02*
D03*
X98701Y-253543D02*
D03*
X95000D02*
D03*
X98701Y-265354D02*
D03*
X95000D02*
D03*
X178937Y-224606D02*
D03*
X182638D02*
D03*
X178850Y-235400D02*
D03*
X182550D02*
D03*
X179350Y-50200D02*
D03*
X183050D02*
D03*
X179465Y-64862D02*
D03*
X183166D02*
D03*
X179350Y-54000D02*
D03*
X183050D02*
D03*
X157697Y-15070D02*
D03*
X161398D02*
D03*
X50020Y-163522D02*
D03*
X53721D02*
D03*
X62224Y-14961D02*
D03*
X65925D02*
D03*
X58465D02*
D03*
X54764D02*
D03*
X39882Y-14960D02*
D03*
X43583D02*
D03*
X36201D02*
D03*
X32500D02*
D03*
X50965Y-14961D02*
D03*
X47264D02*
D03*
X182559Y-246260D02*
D03*
X178858D02*
D03*
Y-250098D02*
D03*
X182559D02*
D03*
X183543Y-167126D02*
D03*
X179842D02*
D03*
Y-163287D02*
D03*
X183543D02*
D03*
X179750Y-146600D02*
D03*
X183450D02*
D03*
X179750Y-150400D02*
D03*
X183450D02*
D03*
X178032Y-180807D02*
D03*
X174331D02*
D03*
D26*
X-62795Y-205118D02*
D03*
X-59252D02*
D03*
X162323Y-184744D02*
D03*
X158780D02*
D03*
X136713Y-210630D02*
D03*
X133169D02*
D03*
X166535Y-254035D02*
D03*
X162992D02*
D03*
X179524Y-72539D02*
D03*
X183067D02*
D03*
X166729Y-78248D02*
D03*
X163186D02*
D03*
X95079Y-261417D02*
D03*
X98622D02*
D03*
X95079Y-257480D02*
D03*
X98622D02*
D03*
X52165Y-234449D02*
D03*
X55709D02*
D03*
X52165Y-230512D02*
D03*
X55709D02*
D03*
X182480Y-228445D02*
D03*
X178937D02*
D03*
X182969Y-60728D02*
D03*
X179426D02*
D03*
X175295Y-253937D02*
D03*
X178839D02*
D03*
X-168025Y-247406D02*
D03*
X-164482D02*
D03*
X-30906Y-258957D02*
D03*
X-34449D02*
D03*
X60827Y-178445D02*
D03*
X57284D02*
D03*
X183465Y-170965D02*
D03*
X179921D02*
D03*
X167421Y-174705D02*
D03*
X163878D02*
D03*
X183465Y-157382D02*
D03*
X179921D02*
D03*
D27*
X124114Y-250685D02*
D03*
X134350D02*
D03*
X140059Y-266240D02*
D03*
X150295D02*
D03*
X134350Y-258585D02*
D03*
X124114D02*
D03*
X134350Y-266175D02*
D03*
X124114D02*
D03*
D28*
X8465Y-20276D02*
D03*
Y-26181D02*
D03*
X14567Y-20276D02*
D03*
Y-26181D02*
D03*
X20472Y-20276D02*
D03*
Y-26181D02*
D03*
X-101378Y-257776D02*
D03*
Y-263681D02*
D03*
X-34350Y-210728D02*
D03*
Y-204823D02*
D03*
D29*
X176181Y-153445D02*
D03*
X174213D02*
D03*
X172244D02*
D03*
X170276D02*
D03*
X168307D02*
D03*
X166339D02*
D03*
X164370D02*
D03*
X162402D02*
D03*
X176181Y-169587D02*
D03*
X174213D02*
D03*
X172244D02*
D03*
X170276D02*
D03*
X168307D02*
D03*
X166339D02*
D03*
X164370D02*
D03*
X162402D02*
D03*
X175489Y-56878D02*
D03*
X173520D02*
D03*
X171552D02*
D03*
X169583D02*
D03*
X167615D02*
D03*
X165646D02*
D03*
X163678D02*
D03*
X161709D02*
D03*
X175489Y-73019D02*
D03*
X173520D02*
D03*
X171552D02*
D03*
X169583D02*
D03*
X167615D02*
D03*
X165646D02*
D03*
X163678D02*
D03*
X161709D02*
D03*
X179016Y17323D02*
D03*
X177047D02*
D03*
X175079D02*
D03*
X173110D02*
D03*
X171142D02*
D03*
X169173D02*
D03*
X167205D02*
D03*
X165236D02*
D03*
X179016Y1181D02*
D03*
X177047D02*
D03*
X175079D02*
D03*
X173110D02*
D03*
X171142D02*
D03*
X169173D02*
D03*
X167205D02*
D03*
X165236D02*
D03*
X161319Y-248622D02*
D03*
X163287D02*
D03*
X165256D02*
D03*
X167224D02*
D03*
X169193D02*
D03*
X171161D02*
D03*
X173130D02*
D03*
X175098D02*
D03*
X161319Y-232480D02*
D03*
X163287D02*
D03*
X165256D02*
D03*
X167224D02*
D03*
X169193D02*
D03*
X171161D02*
D03*
X173130D02*
D03*
X175098D02*
D03*
D30*
X169291Y-161516D02*
D03*
X168599Y-64948D02*
D03*
X172126Y9252D02*
D03*
X168209Y-240551D02*
D03*
D31*
X157776Y10827D02*
D03*
Y17913D02*
D03*
X149606Y10827D02*
D03*
Y17913D02*
D03*
X151870Y-156398D02*
D03*
Y-149311D02*
D03*
X143701Y-156496D02*
D03*
Y-149409D02*
D03*
X153350Y-59971D02*
D03*
Y-52885D02*
D03*
X145272Y-59971D02*
D03*
Y-52885D02*
D03*
X151866Y-236695D02*
D03*
Y-229608D02*
D03*
X143894Y-236695D02*
D03*
Y-229608D02*
D03*
D32*
X174124Y-266397D02*
D03*
Y-270098D02*
D03*
X52362Y-238504D02*
D03*
Y-242205D02*
D03*
X41507Y-252146D02*
D03*
Y-248445D02*
D03*
X106299Y-261339D02*
D03*
Y-265039D02*
D03*
Y-257559D02*
D03*
Y-253858D02*
D03*
X60888Y-244075D02*
D03*
Y-240374D02*
D03*
X102461Y-265039D02*
D03*
Y-261339D02*
D03*
Y-253858D02*
D03*
Y-257559D02*
D03*
X63779Y-251299D02*
D03*
Y-255000D02*
D03*
X20700Y-215750D02*
D03*
Y-212050D02*
D03*
X52362Y-222756D02*
D03*
Y-226457D02*
D03*
X20669Y-225602D02*
D03*
Y-229303D02*
D03*
X182968Y20D02*
D03*
Y3720D02*
D03*
Y-3661D02*
D03*
Y-7362D02*
D03*
D33*
X158405Y-2165D02*
D03*
X149075D02*
D03*
X145335Y-249606D02*
D03*
X154665D02*
D03*
X146024Y-169390D02*
D03*
X155354D02*
D03*
X145725Y-72964D02*
D03*
X155055D02*
D03*
D34*
X43307Y-114173D02*
D03*
Y-110236D02*
D03*
X-15748Y-55118D02*
D03*
X-11811D02*
D03*
X-7874D02*
D03*
X-3937D02*
D03*
X0D02*
D03*
X3937D02*
D03*
X7874D02*
D03*
X11811D02*
D03*
X15748D02*
D03*
X19685D02*
D03*
X23622D02*
D03*
X27559D02*
D03*
X31496D02*
D03*
X35433D02*
D03*
X39370D02*
D03*
X43307D02*
D03*
X47244D02*
D03*
X51181D02*
D03*
X55118D02*
D03*
X59055D02*
D03*
X62992D02*
D03*
X66929D02*
D03*
X-15748Y-59055D02*
D03*
X-11811D02*
D03*
X-7874D02*
D03*
X-3937D02*
D03*
X0D02*
D03*
X3937D02*
D03*
X7874D02*
D03*
X11811D02*
D03*
X15748D02*
D03*
X19685D02*
D03*
X23622D02*
D03*
X27559D02*
D03*
X31496D02*
D03*
X35433D02*
D03*
X39370D02*
D03*
X43307D02*
D03*
X47244D02*
D03*
X51181D02*
D03*
X55118D02*
D03*
X59055D02*
D03*
X62992D02*
D03*
X66929D02*
D03*
X-15748Y-62992D02*
D03*
X-11811D02*
D03*
X-7874D02*
D03*
X-3937D02*
D03*
X0D02*
D03*
X3937D02*
D03*
X7874D02*
D03*
X11811D02*
D03*
X15748D02*
D03*
X19685D02*
D03*
X23622D02*
D03*
X27559D02*
D03*
X31496D02*
D03*
X35433D02*
D03*
X39370D02*
D03*
X43307D02*
D03*
X47244D02*
D03*
X51181D02*
D03*
X55118D02*
D03*
X59055D02*
D03*
X62992D02*
D03*
X66929D02*
D03*
X-15748Y-66929D02*
D03*
X-11811D02*
D03*
X-7874D02*
D03*
X-3937D02*
D03*
X0D02*
D03*
X3937D02*
D03*
X7874D02*
D03*
X11811D02*
D03*
X15748D02*
D03*
X19685D02*
D03*
X23622D02*
D03*
X27559D02*
D03*
X31496D02*
D03*
X35433D02*
D03*
X39370D02*
D03*
X43307D02*
D03*
X47244D02*
D03*
X51181D02*
D03*
X55118D02*
D03*
X59055D02*
D03*
X62992D02*
D03*
X66929D02*
D03*
X-15748Y-70866D02*
D03*
X-11811D02*
D03*
X-7874D02*
D03*
X-3937D02*
D03*
X0D02*
D03*
X3937D02*
D03*
X7874D02*
D03*
X11811D02*
D03*
X15748D02*
D03*
X19685D02*
D03*
X23622D02*
D03*
X27559D02*
D03*
X31496D02*
D03*
X35433D02*
D03*
X39370D02*
D03*
X43307D02*
D03*
X47244D02*
D03*
X51181D02*
D03*
X55118D02*
D03*
X59055D02*
D03*
X62992D02*
D03*
X66929D02*
D03*
X-15748Y-74803D02*
D03*
X-11811D02*
D03*
X-7874D02*
D03*
X-3937D02*
D03*
X0D02*
D03*
X3937D02*
D03*
X7874D02*
D03*
X11811D02*
D03*
X15748D02*
D03*
X19685D02*
D03*
X23622D02*
D03*
X27559D02*
D03*
X31496D02*
D03*
X35433D02*
D03*
X39370D02*
D03*
X43307D02*
D03*
X47244D02*
D03*
X51181D02*
D03*
X55118D02*
D03*
X59055D02*
D03*
X62992D02*
D03*
X66929D02*
D03*
X-15748Y-78740D02*
D03*
X-11811D02*
D03*
X-7874D02*
D03*
X-3937D02*
D03*
X0D02*
D03*
X3937D02*
D03*
X7874D02*
D03*
X11811D02*
D03*
X15748D02*
D03*
X19685D02*
D03*
X23622D02*
D03*
X27559D02*
D03*
X31496D02*
D03*
X35433D02*
D03*
X39370D02*
D03*
X43307D02*
D03*
X47244D02*
D03*
X51181D02*
D03*
X55118D02*
D03*
X59055D02*
D03*
X62992D02*
D03*
X66929D02*
D03*
X-15748Y-82677D02*
D03*
X-11811D02*
D03*
X-7874D02*
D03*
X-3937D02*
D03*
X0D02*
D03*
X3937D02*
D03*
X7874D02*
D03*
X11811D02*
D03*
X15748D02*
D03*
X19685D02*
D03*
X23622D02*
D03*
X27559D02*
D03*
X31496D02*
D03*
X35433D02*
D03*
X39370D02*
D03*
X43307D02*
D03*
X47244D02*
D03*
X51181D02*
D03*
X55118D02*
D03*
X59055D02*
D03*
X62992D02*
D03*
X66929D02*
D03*
X-15748Y-86614D02*
D03*
X-11811D02*
D03*
X-7874D02*
D03*
X-3937D02*
D03*
X0D02*
D03*
X3937D02*
D03*
X7874D02*
D03*
X11811D02*
D03*
X15748D02*
D03*
X19685D02*
D03*
X23622D02*
D03*
X27559D02*
D03*
X31496D02*
D03*
X35433D02*
D03*
X39370D02*
D03*
X43307D02*
D03*
X47244D02*
D03*
X51181D02*
D03*
X55118D02*
D03*
X59055D02*
D03*
X62992D02*
D03*
X66929D02*
D03*
X-15748Y-90551D02*
D03*
X-11811D02*
D03*
X-7874D02*
D03*
X-3937D02*
D03*
X0D02*
D03*
X3937D02*
D03*
X7874D02*
D03*
X11811D02*
D03*
X15748D02*
D03*
X19685D02*
D03*
X23622D02*
D03*
X27559D02*
D03*
X31496D02*
D03*
X35433D02*
D03*
X39370D02*
D03*
X43307D02*
D03*
X47244D02*
D03*
X51181D02*
D03*
X55118D02*
D03*
X59055D02*
D03*
X62992D02*
D03*
X66929D02*
D03*
X-15748Y-94488D02*
D03*
X-11811D02*
D03*
X-7874D02*
D03*
X-3937D02*
D03*
X0D02*
D03*
X3937D02*
D03*
X7874D02*
D03*
X11811D02*
D03*
X15748D02*
D03*
X19685D02*
D03*
X23622D02*
D03*
X27559D02*
D03*
X31496D02*
D03*
X35433D02*
D03*
X39370D02*
D03*
X43307D02*
D03*
X47244D02*
D03*
X51181D02*
D03*
X55118D02*
D03*
X59055D02*
D03*
X62992D02*
D03*
X66929D02*
D03*
X-15748Y-98425D02*
D03*
X-11811D02*
D03*
X-7874D02*
D03*
X-3937D02*
D03*
X0D02*
D03*
X3937D02*
D03*
X7874D02*
D03*
X11811D02*
D03*
X15748D02*
D03*
X19685D02*
D03*
X23622D02*
D03*
X27559D02*
D03*
X31496D02*
D03*
X35433D02*
D03*
X39370D02*
D03*
X43307D02*
D03*
X47244D02*
D03*
X51181D02*
D03*
X55118D02*
D03*
X59055D02*
D03*
X62992D02*
D03*
X66929D02*
D03*
X-15748Y-102362D02*
D03*
X-11811D02*
D03*
X-7874D02*
D03*
X-3937D02*
D03*
X0D02*
D03*
X3937D02*
D03*
X7874D02*
D03*
X11811D02*
D03*
X15748D02*
D03*
X19685D02*
D03*
X23622D02*
D03*
X27559D02*
D03*
X31496D02*
D03*
X35433D02*
D03*
X39370D02*
D03*
X43307D02*
D03*
X47244D02*
D03*
X51181D02*
D03*
X55118D02*
D03*
X59055D02*
D03*
X62992D02*
D03*
X66929D02*
D03*
X-15748Y-106299D02*
D03*
X-11811D02*
D03*
X-7874D02*
D03*
X-3937D02*
D03*
X0D02*
D03*
X3937D02*
D03*
X7874D02*
D03*
X11811D02*
D03*
X15748D02*
D03*
X19685D02*
D03*
X23622D02*
D03*
X27559D02*
D03*
X31496D02*
D03*
X35433D02*
D03*
X39370D02*
D03*
X43307D02*
D03*
X47244D02*
D03*
X51181D02*
D03*
X55118D02*
D03*
X59055D02*
D03*
X62992D02*
D03*
X66929D02*
D03*
X-15748Y-110236D02*
D03*
X-11811D02*
D03*
X-7874D02*
D03*
X-3937D02*
D03*
X0D02*
D03*
X3937D02*
D03*
X7874D02*
D03*
X11811D02*
D03*
X15748D02*
D03*
X19685D02*
D03*
X23622D02*
D03*
X27559D02*
D03*
X31496D02*
D03*
X35433D02*
D03*
X39370D02*
D03*
X47244D02*
D03*
X51181D02*
D03*
X55118D02*
D03*
X59055D02*
D03*
X62992D02*
D03*
X66929D02*
D03*
X-15748Y-114173D02*
D03*
X-11811D02*
D03*
X-7874D02*
D03*
X-3937D02*
D03*
X0D02*
D03*
X3937D02*
D03*
X7874D02*
D03*
X11811D02*
D03*
X15748D02*
D03*
X19685D02*
D03*
X23622D02*
D03*
X27559D02*
D03*
X31496D02*
D03*
X35433D02*
D03*
X39370D02*
D03*
X47244D02*
D03*
X51181D02*
D03*
X55118D02*
D03*
X59055D02*
D03*
X62992D02*
D03*
X66929D02*
D03*
X-15748Y-118110D02*
D03*
X-11811D02*
D03*
X-7874D02*
D03*
X-3937D02*
D03*
X0D02*
D03*
X3937D02*
D03*
X7874D02*
D03*
X11811D02*
D03*
X15748D02*
D03*
X19685D02*
D03*
X23622D02*
D03*
X27559D02*
D03*
X31496D02*
D03*
X35433D02*
D03*
X39370D02*
D03*
X43307D02*
D03*
X47244D02*
D03*
X51181D02*
D03*
X55118D02*
D03*
X59055D02*
D03*
X62992D02*
D03*
X66929D02*
D03*
X-15748Y-122047D02*
D03*
X-11811D02*
D03*
X-7874D02*
D03*
X-3937D02*
D03*
X0D02*
D03*
X3937D02*
D03*
X7874D02*
D03*
X11811D02*
D03*
X15748D02*
D03*
X19685D02*
D03*
X23622D02*
D03*
X27559D02*
D03*
X31496D02*
D03*
X35433D02*
D03*
X39370D02*
D03*
X43307D02*
D03*
X47244D02*
D03*
X51181D02*
D03*
X55118D02*
D03*
X59055D02*
D03*
X62992D02*
D03*
X66929D02*
D03*
X-15748Y-125984D02*
D03*
X-11811D02*
D03*
X-7874D02*
D03*
X-3937D02*
D03*
X0D02*
D03*
X3937D02*
D03*
X7874D02*
D03*
X11811D02*
D03*
X15748D02*
D03*
X19685D02*
D03*
X23622D02*
D03*
X27559D02*
D03*
X31496D02*
D03*
X35433D02*
D03*
X39370D02*
D03*
X43307D02*
D03*
X47244D02*
D03*
X51181D02*
D03*
X55118D02*
D03*
X59055D02*
D03*
X62992D02*
D03*
X66929D02*
D03*
X-15748Y-137795D02*
D03*
X-11811D02*
D03*
X-7874D02*
D03*
X-3937D02*
D03*
X0D02*
D03*
X3937D02*
D03*
X7874D02*
D03*
X11811D02*
D03*
X15748D02*
D03*
X19685D02*
D03*
X23622D02*
D03*
X27559D02*
D03*
X31496D02*
D03*
X35433D02*
D03*
X39370D02*
D03*
X43307D02*
D03*
X47244D02*
D03*
X51181D02*
D03*
X55118D02*
D03*
X59055D02*
D03*
X62992D02*
D03*
X66929D02*
D03*
Y-133858D02*
D03*
X62992D02*
D03*
X59055D02*
D03*
X55118D02*
D03*
X51181D02*
D03*
X47244D02*
D03*
X43307D02*
D03*
X39370D02*
D03*
X35433D02*
D03*
X31496D02*
D03*
X27559D02*
D03*
X23622D02*
D03*
X19685D02*
D03*
X15748D02*
D03*
X11811D02*
D03*
X7874D02*
D03*
X3937D02*
D03*
X0D02*
D03*
X-3937D02*
D03*
X-7874D02*
D03*
X-11811D02*
D03*
X-15748D02*
D03*
X66929Y-129921D02*
D03*
X62992D02*
D03*
X59055D02*
D03*
X55118D02*
D03*
X51181D02*
D03*
X47244D02*
D03*
X43307D02*
D03*
X39370D02*
D03*
X35433D02*
D03*
X31496D02*
D03*
X27559D02*
D03*
X23622D02*
D03*
X19685D02*
D03*
X15748D02*
D03*
X11811D02*
D03*
X7874D02*
D03*
X3937D02*
D03*
X0D02*
D03*
X-3937D02*
D03*
X-7874D02*
D03*
X-11811D02*
D03*
X-15748D02*
D03*
D35*
X-26378Y5610D02*
D03*
X-14961D02*
D03*
X-14370Y-30512D02*
D03*
X-25787D02*
D03*
X21260Y-10039D02*
D03*
X9843D02*
D03*
D36*
X-182837Y-257972D02*
D03*
Y-260531D02*
D03*
Y-263091D02*
D03*
X-191498D02*
D03*
Y-260531D02*
D03*
Y-257972D02*
D03*
X-182837Y-247047D02*
D03*
Y-249606D02*
D03*
Y-252165D02*
D03*
X-191498D02*
D03*
Y-249606D02*
D03*
Y-247047D02*
D03*
D37*
X102264Y-242065D02*
D03*
X108563D02*
D03*
X46457Y-204331D02*
D03*
X52756D02*
D03*
X64961Y-163920D02*
D03*
X58662D02*
D03*
D38*
X96161Y-242028D02*
D03*
Y-247933D02*
D03*
D39*
X79528Y-243100D02*
D03*
Y-265561D02*
D03*
X36614Y-217707D02*
D03*
Y-240167D02*
D03*
D40*
X87795Y-244331D02*
D03*
Y-254331D02*
D03*
X71260Y-264331D02*
D03*
X87795D02*
D03*
X71260Y-254331D02*
D03*
Y-244331D02*
D03*
X44882Y-218937D02*
D03*
Y-228937D02*
D03*
X28346Y-238937D02*
D03*
X44882D02*
D03*
X28346Y-228937D02*
D03*
Y-218937D02*
D03*
D41*
X41704Y-208921D02*
D03*
X38948D02*
D03*
X41704Y-212071D02*
D03*
X38948D02*
D03*
D42*
X40354Y-204331D02*
D03*
X34449D02*
D03*
D43*
X-293071Y-247709D02*
D03*
Y-263709D02*
D03*
X-298071Y-247709D02*
D03*
Y-263709D02*
D03*
X-303071Y-247709D02*
D03*
Y-263709D02*
D03*
X-308071Y-247709D02*
D03*
Y-263709D02*
D03*
X-313071Y-247709D02*
D03*
Y-263709D02*
D03*
X-318071Y-247709D02*
D03*
Y-263709D02*
D03*
X-323071Y-247709D02*
D03*
Y-263709D02*
D03*
D44*
X-16142Y22835D02*
D03*
X-40551D02*
D03*
X-689Y-13189D02*
D03*
X-25098D02*
D03*
D45*
X20472Y2736D02*
D03*
Y27145D02*
D03*
X0Y2736D02*
D03*
Y27145D02*
D03*
D46*
X-16929Y-189370D02*
D03*
Y-186221D02*
D03*
Y-183071D02*
D03*
Y-170472D02*
D03*
Y-167323D02*
D03*
Y-164173D02*
D03*
X-13780Y-189370D02*
D03*
Y-186221D02*
D03*
Y-183071D02*
D03*
Y-170472D02*
D03*
Y-167323D02*
D03*
Y-164173D02*
D03*
X-10630Y-189370D02*
D03*
Y-186221D02*
D03*
Y-183071D02*
D03*
Y-170472D02*
D03*
Y-167323D02*
D03*
Y-164173D02*
D03*
X-7480Y-189370D02*
D03*
Y-186221D02*
D03*
Y-183071D02*
D03*
Y-170472D02*
D03*
Y-167323D02*
D03*
Y-164173D02*
D03*
X-4331Y-189370D02*
D03*
Y-186221D02*
D03*
Y-183071D02*
D03*
Y-170472D02*
D03*
Y-167323D02*
D03*
Y-164173D02*
D03*
X-1181Y-189370D02*
D03*
Y-186221D02*
D03*
Y-183071D02*
D03*
Y-170472D02*
D03*
Y-167323D02*
D03*
Y-164173D02*
D03*
X1969Y-189370D02*
D03*
Y-186221D02*
D03*
Y-183071D02*
D03*
Y-170472D02*
D03*
Y-167323D02*
D03*
Y-164173D02*
D03*
X5118Y-189370D02*
D03*
Y-186221D02*
D03*
Y-183071D02*
D03*
Y-170472D02*
D03*
Y-167323D02*
D03*
Y-164173D02*
D03*
X8268Y-189370D02*
D03*
Y-186221D02*
D03*
Y-183071D02*
D03*
Y-170472D02*
D03*
Y-167323D02*
D03*
Y-164173D02*
D03*
X11417Y-189370D02*
D03*
Y-186221D02*
D03*
Y-183071D02*
D03*
Y-170472D02*
D03*
Y-167323D02*
D03*
Y-164173D02*
D03*
X14567Y-189370D02*
D03*
Y-186221D02*
D03*
Y-183071D02*
D03*
Y-170472D02*
D03*
Y-167323D02*
D03*
Y-164173D02*
D03*
X17717Y-189370D02*
D03*
Y-186221D02*
D03*
Y-183071D02*
D03*
Y-170472D02*
D03*
Y-167323D02*
D03*
Y-164173D02*
D03*
X20866Y-189370D02*
D03*
Y-186221D02*
D03*
Y-183071D02*
D03*
Y-170472D02*
D03*
Y-167323D02*
D03*
Y-164173D02*
D03*
X24016Y-189370D02*
D03*
Y-186221D02*
D03*
Y-183071D02*
D03*
Y-170472D02*
D03*
Y-167323D02*
D03*
Y-164173D02*
D03*
X27165Y-189370D02*
D03*
Y-186221D02*
D03*
Y-183071D02*
D03*
Y-170472D02*
D03*
Y-167323D02*
D03*
Y-164173D02*
D03*
D47*
X120435Y-200070D02*
D03*
Y-195070D02*
D03*
Y-190070D02*
D03*
Y-185070D02*
D03*
Y-180070D02*
D03*
Y-175070D02*
D03*
Y-170070D02*
D03*
Y-165070D02*
D03*
Y-160070D02*
D03*
Y-155070D02*
D03*
Y-150070D02*
D03*
Y-145070D02*
D03*
Y-140070D02*
D03*
Y-135070D02*
D03*
Y-130070D02*
D03*
Y-125070D02*
D03*
Y-120070D02*
D03*
Y-115070D02*
D03*
Y-110070D02*
D03*
Y-105070D02*
D03*
Y-100070D02*
D03*
Y-95070D02*
D03*
Y-90070D02*
D03*
Y-85070D02*
D03*
Y-80070D02*
D03*
Y-75070D02*
D03*
Y-70070D02*
D03*
Y-65070D02*
D03*
Y-60070D02*
D03*
Y-55070D02*
D03*
Y-50070D02*
D03*
Y-45070D02*
D03*
Y-40070D02*
D03*
Y-35070D02*
D03*
Y-30070D02*
D03*
Y-25070D02*
D03*
Y-20070D02*
D03*
Y-15070D02*
D03*
Y-10070D02*
D03*
Y-5070D02*
D03*
X125435D02*
D03*
Y-10070D02*
D03*
Y-15070D02*
D03*
Y-20070D02*
D03*
Y-25070D02*
D03*
Y-30070D02*
D03*
Y-35070D02*
D03*
Y-40070D02*
D03*
Y-45070D02*
D03*
Y-50070D02*
D03*
Y-55070D02*
D03*
Y-60070D02*
D03*
Y-65070D02*
D03*
Y-70070D02*
D03*
Y-75070D02*
D03*
Y-80070D02*
D03*
Y-85070D02*
D03*
Y-90070D02*
D03*
Y-95070D02*
D03*
Y-100070D02*
D03*
Y-105070D02*
D03*
Y-110070D02*
D03*
Y-115070D02*
D03*
Y-120070D02*
D03*
Y-125070D02*
D03*
Y-130070D02*
D03*
Y-135070D02*
D03*
Y-140070D02*
D03*
Y-145070D02*
D03*
Y-150070D02*
D03*
Y-155070D02*
D03*
Y-160070D02*
D03*
Y-165070D02*
D03*
Y-170070D02*
D03*
Y-175070D02*
D03*
Y-180070D02*
D03*
Y-185070D02*
D03*
Y-190070D02*
D03*
Y-195070D02*
D03*
Y-200070D02*
D03*
X115435Y-5070D02*
D03*
Y-10070D02*
D03*
Y-15070D02*
D03*
Y-20070D02*
D03*
Y-25070D02*
D03*
Y-30070D02*
D03*
Y-35070D02*
D03*
Y-40070D02*
D03*
Y-45070D02*
D03*
Y-50070D02*
D03*
Y-55070D02*
D03*
Y-60070D02*
D03*
Y-65070D02*
D03*
Y-70070D02*
D03*
Y-75070D02*
D03*
Y-80070D02*
D03*
Y-85070D02*
D03*
Y-90070D02*
D03*
Y-95070D02*
D03*
Y-100070D02*
D03*
Y-105070D02*
D03*
Y-110070D02*
D03*
Y-115070D02*
D03*
Y-120070D02*
D03*
Y-125070D02*
D03*
Y-130070D02*
D03*
Y-135070D02*
D03*
Y-140070D02*
D03*
Y-145070D02*
D03*
Y-150070D02*
D03*
Y-155070D02*
D03*
Y-160070D02*
D03*
Y-165070D02*
D03*
Y-170070D02*
D03*
Y-175070D02*
D03*
Y-180070D02*
D03*
Y-185070D02*
D03*
Y-190070D02*
D03*
Y-195070D02*
D03*
Y-200070D02*
D03*
X110435Y-5070D02*
D03*
Y-10070D02*
D03*
Y-15070D02*
D03*
Y-20070D02*
D03*
Y-25070D02*
D03*
Y-30070D02*
D03*
Y-35070D02*
D03*
Y-40070D02*
D03*
Y-45070D02*
D03*
Y-50070D02*
D03*
Y-55070D02*
D03*
Y-60070D02*
D03*
Y-65070D02*
D03*
Y-70070D02*
D03*
Y-75070D02*
D03*
Y-80070D02*
D03*
Y-85070D02*
D03*
Y-90070D02*
D03*
Y-95070D02*
D03*
Y-100070D02*
D03*
Y-105070D02*
D03*
Y-110070D02*
D03*
Y-115070D02*
D03*
Y-120070D02*
D03*
Y-125070D02*
D03*
Y-130070D02*
D03*
Y-135070D02*
D03*
Y-140070D02*
D03*
Y-145070D02*
D03*
Y-150070D02*
D03*
Y-155070D02*
D03*
Y-160070D02*
D03*
Y-165070D02*
D03*
Y-170070D02*
D03*
Y-175070D02*
D03*
Y-180070D02*
D03*
Y-185070D02*
D03*
Y-190070D02*
D03*
Y-195070D02*
D03*
Y-200070D02*
D03*
X105435Y-5070D02*
D03*
Y-10070D02*
D03*
Y-15070D02*
D03*
Y-20070D02*
D03*
Y-25070D02*
D03*
Y-30070D02*
D03*
Y-35070D02*
D03*
Y-40070D02*
D03*
Y-45070D02*
D03*
Y-50070D02*
D03*
Y-55070D02*
D03*
Y-60070D02*
D03*
Y-65070D02*
D03*
Y-70070D02*
D03*
Y-75070D02*
D03*
Y-80070D02*
D03*
Y-85070D02*
D03*
Y-90070D02*
D03*
Y-95070D02*
D03*
Y-100070D02*
D03*
Y-105070D02*
D03*
Y-110070D02*
D03*
Y-115070D02*
D03*
Y-120070D02*
D03*
Y-125070D02*
D03*
Y-130070D02*
D03*
Y-135070D02*
D03*
Y-140070D02*
D03*
Y-145070D02*
D03*
Y-150070D02*
D03*
Y-155070D02*
D03*
Y-160070D02*
D03*
Y-165070D02*
D03*
Y-170070D02*
D03*
Y-175070D02*
D03*
Y-180070D02*
D03*
Y-185070D02*
D03*
Y-190070D02*
D03*
Y-195070D02*
D03*
Y-200070D02*
D03*
X100435Y-5070D02*
D03*
Y-10070D02*
D03*
Y-15070D02*
D03*
Y-20070D02*
D03*
Y-25070D02*
D03*
Y-30070D02*
D03*
Y-35070D02*
D03*
Y-40070D02*
D03*
Y-45070D02*
D03*
Y-50070D02*
D03*
Y-55070D02*
D03*
Y-60070D02*
D03*
Y-65070D02*
D03*
Y-70070D02*
D03*
Y-75070D02*
D03*
Y-80070D02*
D03*
Y-85070D02*
D03*
Y-90070D02*
D03*
Y-95070D02*
D03*
Y-100070D02*
D03*
Y-105070D02*
D03*
Y-110070D02*
D03*
Y-115070D02*
D03*
Y-120070D02*
D03*
Y-125070D02*
D03*
Y-130070D02*
D03*
Y-135070D02*
D03*
Y-140070D02*
D03*
Y-145070D02*
D03*
Y-150070D02*
D03*
Y-155070D02*
D03*
Y-160070D02*
D03*
Y-165070D02*
D03*
Y-170070D02*
D03*
Y-175070D02*
D03*
Y-180070D02*
D03*
Y-185070D02*
D03*
Y-190070D02*
D03*
Y-195070D02*
D03*
Y-200070D02*
D03*
X95435Y-5070D02*
D03*
Y-10070D02*
D03*
Y-15070D02*
D03*
Y-20070D02*
D03*
Y-25070D02*
D03*
Y-30070D02*
D03*
Y-35070D02*
D03*
Y-40070D02*
D03*
Y-45070D02*
D03*
Y-50070D02*
D03*
Y-55070D02*
D03*
Y-60070D02*
D03*
Y-65070D02*
D03*
Y-70070D02*
D03*
Y-75070D02*
D03*
Y-80070D02*
D03*
Y-85070D02*
D03*
Y-90070D02*
D03*
Y-95070D02*
D03*
Y-100070D02*
D03*
Y-105070D02*
D03*
Y-110070D02*
D03*
Y-115070D02*
D03*
Y-120070D02*
D03*
Y-125070D02*
D03*
Y-130070D02*
D03*
Y-135070D02*
D03*
Y-140070D02*
D03*
Y-145070D02*
D03*
Y-150070D02*
D03*
Y-155070D02*
D03*
Y-160070D02*
D03*
Y-165070D02*
D03*
Y-170070D02*
D03*
Y-175070D02*
D03*
Y-180070D02*
D03*
Y-185070D02*
D03*
Y-190070D02*
D03*
Y-195070D02*
D03*
Y-200070D02*
D03*
X90435Y-5070D02*
D03*
Y-10070D02*
D03*
Y-15070D02*
D03*
Y-20070D02*
D03*
Y-25070D02*
D03*
Y-30070D02*
D03*
Y-35070D02*
D03*
Y-40070D02*
D03*
Y-45070D02*
D03*
Y-50070D02*
D03*
Y-55070D02*
D03*
Y-60070D02*
D03*
Y-65070D02*
D03*
Y-70070D02*
D03*
Y-75070D02*
D03*
Y-80070D02*
D03*
Y-85070D02*
D03*
Y-90070D02*
D03*
Y-95070D02*
D03*
Y-100070D02*
D03*
Y-105070D02*
D03*
Y-110070D02*
D03*
Y-115070D02*
D03*
Y-120070D02*
D03*
Y-125070D02*
D03*
Y-130070D02*
D03*
Y-135070D02*
D03*
Y-140070D02*
D03*
Y-145070D02*
D03*
Y-150070D02*
D03*
Y-155070D02*
D03*
Y-160070D02*
D03*
Y-165070D02*
D03*
Y-170070D02*
D03*
Y-175070D02*
D03*
Y-180070D02*
D03*
Y-185070D02*
D03*
Y-190070D02*
D03*
Y-195070D02*
D03*
Y-200070D02*
D03*
X85435Y-5070D02*
D03*
Y-10070D02*
D03*
Y-15070D02*
D03*
Y-20070D02*
D03*
Y-25070D02*
D03*
Y-30070D02*
D03*
Y-35070D02*
D03*
Y-40070D02*
D03*
Y-45070D02*
D03*
Y-50070D02*
D03*
Y-55070D02*
D03*
Y-60070D02*
D03*
Y-65070D02*
D03*
Y-70070D02*
D03*
Y-75070D02*
D03*
Y-80070D02*
D03*
Y-85070D02*
D03*
Y-90070D02*
D03*
Y-95070D02*
D03*
Y-100070D02*
D03*
Y-105070D02*
D03*
Y-110070D02*
D03*
Y-115070D02*
D03*
Y-120070D02*
D03*
Y-125070D02*
D03*
Y-130070D02*
D03*
Y-135070D02*
D03*
Y-140070D02*
D03*
Y-145070D02*
D03*
Y-150070D02*
D03*
Y-155070D02*
D03*
Y-160070D02*
D03*
Y-165070D02*
D03*
Y-170070D02*
D03*
Y-175070D02*
D03*
Y-180070D02*
D03*
Y-185070D02*
D03*
Y-190070D02*
D03*
Y-195070D02*
D03*
Y-200070D02*
D03*
X80435Y-5070D02*
D03*
Y-10070D02*
D03*
Y-15070D02*
D03*
Y-20070D02*
D03*
Y-25070D02*
D03*
Y-30070D02*
D03*
Y-35070D02*
D03*
Y-40070D02*
D03*
Y-45070D02*
D03*
Y-50070D02*
D03*
Y-55070D02*
D03*
Y-60070D02*
D03*
Y-65070D02*
D03*
Y-70070D02*
D03*
Y-75070D02*
D03*
Y-80070D02*
D03*
Y-85070D02*
D03*
Y-90070D02*
D03*
Y-95070D02*
D03*
Y-100070D02*
D03*
Y-105070D02*
D03*
Y-110070D02*
D03*
Y-115070D02*
D03*
Y-120070D02*
D03*
Y-125070D02*
D03*
Y-130070D02*
D03*
Y-135070D02*
D03*
Y-140070D02*
D03*
Y-145070D02*
D03*
Y-150070D02*
D03*
Y-155070D02*
D03*
Y-160070D02*
D03*
Y-165070D02*
D03*
Y-170070D02*
D03*
Y-175070D02*
D03*
Y-180070D02*
D03*
Y-185070D02*
D03*
Y-190070D02*
D03*
Y-195070D02*
D03*
Y-200070D02*
D03*
D48*
X-94390Y-218504D02*
D03*
Y-220472D02*
D03*
Y-222441D02*
D03*
Y-224410D02*
D03*
Y-226378D02*
D03*
Y-228346D02*
D03*
Y-230315D02*
D03*
Y-232283D02*
D03*
Y-234252D02*
D03*
Y-236221D02*
D03*
Y-238189D02*
D03*
Y-240158D02*
D03*
Y-242126D02*
D03*
Y-244094D02*
D03*
Y-246063D02*
D03*
Y-248031D02*
D03*
Y-250000D02*
D03*
Y-251969D02*
D03*
Y-253937D02*
D03*
Y-255906D02*
D03*
X-41437D02*
D03*
Y-253937D02*
D03*
Y-251969D02*
D03*
Y-250000D02*
D03*
Y-248031D02*
D03*
Y-246063D02*
D03*
Y-244094D02*
D03*
Y-242126D02*
D03*
Y-240158D02*
D03*
Y-238189D02*
D03*
Y-236221D02*
D03*
Y-234252D02*
D03*
Y-232283D02*
D03*
Y-230315D02*
D03*
Y-228346D02*
D03*
Y-226378D02*
D03*
Y-224410D02*
D03*
Y-222441D02*
D03*
Y-220472D02*
D03*
Y-218504D02*
D03*
D49*
X-86614Y-263681D02*
D03*
X-84646D02*
D03*
X-82677D02*
D03*
X-80709D02*
D03*
X-78740D02*
D03*
X-76772D02*
D03*
X-74803D02*
D03*
X-72835D02*
D03*
X-70866D02*
D03*
X-68898D02*
D03*
X-66929D02*
D03*
X-64961D02*
D03*
X-62992D02*
D03*
X-61024D02*
D03*
X-59055D02*
D03*
X-57087D02*
D03*
X-55118D02*
D03*
X-53150D02*
D03*
X-51181D02*
D03*
X-49213D02*
D03*
Y-210728D02*
D03*
X-51181D02*
D03*
X-53150D02*
D03*
X-55118D02*
D03*
X-57087D02*
D03*
X-59055D02*
D03*
X-61024D02*
D03*
X-62992D02*
D03*
X-64961D02*
D03*
X-66929D02*
D03*
X-68898D02*
D03*
X-70866D02*
D03*
X-72835D02*
D03*
X-74803D02*
D03*
X-76772D02*
D03*
X-78740D02*
D03*
X-80709D02*
D03*
X-82677D02*
D03*
X-84646D02*
D03*
X-86614D02*
D03*
D50*
X-149902Y-228563D02*
D03*
Y-233563D02*
D03*
Y-238563D02*
D03*
Y-243563D02*
D03*
Y-248563D02*
D03*
Y-253563D02*
D03*
Y-258563D02*
D03*
Y-263563D02*
D03*
X-113878Y-228563D02*
D03*
Y-233563D02*
D03*
Y-238563D02*
D03*
Y-243563D02*
D03*
Y-248563D02*
D03*
Y-253563D02*
D03*
Y-258563D02*
D03*
Y-263563D02*
D03*
D51*
X15276Y-240059D02*
D03*
X10276D02*
D03*
X5276D02*
D03*
X276D02*
D03*
X-4724D02*
D03*
X-9724D02*
D03*
X-14724D02*
D03*
X15276Y-261319D02*
D03*
X10276D02*
D03*
X5276D02*
D03*
X276D02*
D03*
X-4724D02*
D03*
X-9724D02*
D03*
X-14724D02*
D03*
X142030Y-122835D02*
D03*
X147030D02*
D03*
X152030D02*
D03*
X157030D02*
D03*
X162030D02*
D03*
X167030D02*
D03*
X172030D02*
D03*
X142030Y-101575D02*
D03*
X147030D02*
D03*
X152030D02*
D03*
X157030D02*
D03*
X162030D02*
D03*
X167030D02*
D03*
X172030D02*
D03*
X15276Y-209941D02*
D03*
X10276D02*
D03*
X5276D02*
D03*
X276D02*
D03*
X-4724D02*
D03*
X-9724D02*
D03*
X-14724D02*
D03*
X15276Y-231201D02*
D03*
X10276D02*
D03*
X5276D02*
D03*
X276D02*
D03*
X-4724D02*
D03*
X-9724D02*
D03*
X-14724D02*
D03*
D52*
X35236Y-9154D02*
D03*
Y6594D02*
D03*
X44587Y-9154D02*
D03*
Y6594D02*
D03*
X115847Y-250590D02*
D03*
Y-266339D02*
D03*
D53*
X139469Y21457D02*
D03*
Y9646D02*
D03*
X135039Y-231004D02*
D03*
Y-242815D02*
D03*
X134646Y-152067D02*
D03*
Y-163878D02*
D03*
D54*
X19783Y-33760D02*
D03*
X4035D02*
D03*
X63583Y-233563D02*
D03*
X79331D02*
D03*
X135630Y-189665D02*
D03*
X151378D02*
D03*
D55*
X140847Y1870D02*
D03*
X133760D02*
D03*
X140847Y-6299D02*
D03*
X133760D02*
D03*
D56*
X64961Y-169825D02*
D03*
X58662D02*
D03*
X140256Y-181890D02*
D03*
X146555D02*
D03*
X115453Y-225000D02*
D03*
X121752D02*
D03*
X171358Y-258957D02*
D03*
X165059D02*
D03*
X175292Y-79331D02*
D03*
X181591D02*
D03*
X169488Y-179626D02*
D03*
X163189D02*
D03*
X175492Y-175886D02*
D03*
X181791D02*
D03*
X151378Y-211516D02*
D03*
X157677D02*
D03*
D57*
X133366Y-172441D02*
D03*
Y-179528D02*
D03*
X62697Y22638D02*
D03*
Y15551D02*
D03*
D58*
X126340Y-232776D02*
D03*
X114529D02*
D03*
X126378Y-242126D02*
D03*
X114567D02*
D03*
D59*
X60039Y-213386D02*
D03*
Y-225197D02*
D03*
D60*
X67618Y-225787D02*
D03*
Y-219488D02*
D03*
X174100Y-85350D02*
D03*
Y-91650D02*
D03*
X170768Y-5118D02*
D03*
Y-11417D02*
D03*
X176870Y-5118D02*
D03*
Y-11417D02*
D03*
D61*
X-34449Y-263878D02*
D03*
X-28543D02*
D03*
D62*
X41339Y-169488D02*
D03*
Y-173228D02*
D03*
Y-176969D02*
D03*
X51968D02*
D03*
Y-173228D02*
D03*
Y-169488D02*
D03*
D63*
X-164482Y-252820D02*
D03*
Y-260300D02*
D03*
X-174718D02*
D03*
Y-256560D02*
D03*
Y-252820D02*
D03*
D64*
X159252Y-225295D02*
D03*
X166339D02*
D03*
X159153Y-146161D02*
D03*
X166240D02*
D03*
X160528Y-49538D02*
D03*
X167615D02*
D03*
D65*
X151378Y-205217D02*
D03*
Y-197736D02*
D03*
D66*
X180807Y30906D02*
D03*
Y23819D02*
D03*
X169980Y30906D02*
D03*
Y23819D02*
D03*
D67*
X40551Y-155020D02*
D03*
X50787D02*
D03*
X60039D02*
D03*
X70276D02*
D03*
D68*
X65453Y-21920D02*
D03*
Y-32157D02*
D03*
X56201Y-21920D02*
D03*
Y-32157D02*
D03*
X37697Y-21920D02*
D03*
Y-32157D02*
D03*
X28445Y-21920D02*
D03*
Y-32157D02*
D03*
X46949Y-21920D02*
D03*
Y-32157D02*
D03*
D69*
X136217Y-63250D02*
D03*
Y-54195D02*
D03*
D70*
X133169Y-197835D02*
D03*
Y-201575D02*
D03*
Y-205315D02*
D03*
X143799D02*
D03*
Y-197835D02*
D03*
D71*
X169882Y-130709D02*
D03*
Y-138583D02*
D03*
X132579Y-138779D02*
D03*
Y-130905D02*
D03*
X133661Y-93701D02*
D03*
Y-85827D02*
D03*
X166142Y-85925D02*
D03*
Y-93799D02*
D03*
D72*
X157087Y-134646D02*
D03*
X145374Y-134843D02*
D03*
X146457Y-89764D02*
D03*
X153347Y-89862D02*
D03*
D73*
X159449Y-190236D02*
D03*
Y-195236D02*
D03*
Y-200236D02*
D03*
Y-205236D02*
D03*
X180709Y-190236D02*
D03*
Y-195236D02*
D03*
Y-200236D02*
D03*
Y-205236D02*
D03*
D74*
X37697Y16929D02*
D03*
Y28346D02*
D03*
X56299Y-8366D02*
D03*
Y3051D02*
D03*
X45472Y-185470D02*
D03*
Y-196888D02*
D03*
X51772Y16929D02*
D03*
Y28346D02*
D03*
X59449Y-185335D02*
D03*
Y-196752D02*
D03*
M02*
