G04*
G04 #@! TF.GenerationSoftware,Altium Limited,Altium Designer,19.1.7 (138)*
G04*
G04 Layer_Color=8421504*
%FSLAX25Y25*%
%MOIN*%
G70*
G01*
G75*
%ADD20R,0.01575X0.03740*%
%ADD21R,0.03347X0.02165*%
%ADD22R,0.02362X0.01378*%
%ADD23R,0.01575X0.01772*%
%ADD24R,0.02441X0.02441*%
%ADD25R,0.02284X0.02441*%
%ADD26R,0.02441X0.02441*%
%ADD27R,0.03543X0.01968*%
%ADD28R,0.03937X0.03937*%
%ADD29O,0.00984X0.05512*%
%ADD30R,0.11614X0.06929*%
%ADD31R,0.05709X0.04528*%
%ADD32R,0.02441X0.02284*%
%ADD33R,0.03858X0.14567*%
%ADD34C,0.01772*%
%ADD35R,0.07087X0.08858*%
%ADD36R,0.03740X0.01575*%
%ADD37R,0.03740X0.03937*%
%ADD38R,0.03740X0.03740*%
%ADD39R,0.05118X0.06083*%
%ADD40R,0.08465X0.06693*%
%ADD41R,0.01772X0.01575*%
%ADD42R,0.03740X0.03740*%
%ADD43R,0.02900X0.11000*%
%ADD44R,0.09252X0.09646*%
%ADD45C,0.01575*%
%ADD46C,0.03504*%
%ADD47R,0.05709X0.01181*%
%ADD48R,0.01181X0.05709*%
%ADD49O,0.09055X0.02362*%
%ADD50R,0.02362X0.06102*%
%ADD51R,0.07087X0.05512*%
%ADD52R,0.07284X0.04921*%
%ADD53R,0.05512X0.07087*%
%ADD54R,0.04528X0.05709*%
%ADD55R,0.09646X0.09252*%
%ADD56R,0.03740X0.03937*%
%ADD57R,0.05512X0.04134*%
%ADD58R,0.04528X0.07087*%
%ADD59R,0.07087X0.04528*%
%ADD60R,0.03937X0.03740*%
%ADD61R,0.03937X0.03937*%
%ADD62R,0.04134X0.02362*%
%ADD63R,0.04331X0.02362*%
%ADD64R,0.04331X0.05709*%
%ADD65R,0.05512X0.04134*%
%ADD66R,0.05709X0.04331*%
%ADD67R,0.07087X0.04921*%
%ADD68R,0.04921X0.07087*%
%ADD69R,0.07480X0.06299*%
%ADD70R,0.04921X0.02362*%
%ADD71R,0.04724X0.04724*%
%ADD72R,0.05906X0.06299*%
%ADD73R,0.06102X0.02362*%
%ADD74R,0.08858X0.07087*%
D20*
X156201Y-39370D02*
D03*
X153642D02*
D03*
X151083D02*
D03*
Y-30709D02*
D03*
X153642D02*
D03*
X156201D02*
D03*
D21*
X142126Y-19193D02*
D03*
Y-24311D02*
D03*
X150394Y-21752D02*
D03*
X170276Y-29035D02*
D03*
Y-23917D02*
D03*
X162008Y-26476D02*
D03*
D22*
X183366Y-23327D02*
D03*
Y-20177D02*
D03*
X179035Y-21752D02*
D03*
D23*
X28248Y-7579D02*
D03*
Y-4823D02*
D03*
X-157187Y-229512D02*
D03*
Y-232268D02*
D03*
X44943Y-248369D02*
D03*
Y-251125D02*
D03*
X98130Y-245177D02*
D03*
Y-247933D02*
D03*
X101083Y-245177D02*
D03*
Y-247933D02*
D03*
D24*
X-21358Y-240846D02*
D03*
Y-237303D02*
D03*
X180175Y-264173D02*
D03*
Y-260630D02*
D03*
X-106102Y-259646D02*
D03*
Y-256102D02*
D03*
X182972Y3642D02*
D03*
Y7185D02*
D03*
X165256Y-11614D02*
D03*
Y-8071D02*
D03*
Y-18996D02*
D03*
Y-15453D02*
D03*
X-159265Y-256757D02*
D03*
Y-260300D02*
D03*
D25*
X38996Y-161614D02*
D03*
X42697D02*
D03*
X155098Y-183071D02*
D03*
X151398D02*
D03*
X180689Y-184646D02*
D03*
X176988D02*
D03*
X61496Y-203248D02*
D03*
X57795D02*
D03*
X182756Y-84842D02*
D03*
X179055D02*
D03*
X183146Y-68701D02*
D03*
X179445D02*
D03*
X96142Y-251575D02*
D03*
X92441D02*
D03*
X96142Y-263386D02*
D03*
X92441D02*
D03*
X178937Y-222441D02*
D03*
X182638D02*
D03*
X178850Y-233235D02*
D03*
X182550D02*
D03*
X179350Y-50200D02*
D03*
X183050D02*
D03*
X179465Y-64862D02*
D03*
X183166D02*
D03*
X179350Y-54000D02*
D03*
X183050D02*
D03*
X157697Y-19007D02*
D03*
X161398D02*
D03*
X50020Y-163522D02*
D03*
X53721D02*
D03*
X62224Y-15748D02*
D03*
X65925D02*
D03*
X58465D02*
D03*
X54764D02*
D03*
X39882Y-15748D02*
D03*
X43583D02*
D03*
X36201D02*
D03*
X32500D02*
D03*
X50965Y-15748D02*
D03*
X47264D02*
D03*
X182559Y-244094D02*
D03*
X178858D02*
D03*
Y-247933D02*
D03*
X182559D02*
D03*
X183543Y-167126D02*
D03*
X179842D02*
D03*
Y-163287D02*
D03*
X183543D02*
D03*
X179750Y-146600D02*
D03*
X183450D02*
D03*
X179750Y-150400D02*
D03*
X183450D02*
D03*
X178032Y-180807D02*
D03*
X174331D02*
D03*
D26*
X-62598Y-203445D02*
D03*
X-59055D02*
D03*
X162323Y-184744D02*
D03*
X158780D02*
D03*
X136713Y-210630D02*
D03*
X133169D02*
D03*
X166535Y-251870D02*
D03*
X162992D02*
D03*
X179524Y-72539D02*
D03*
X183067D02*
D03*
X166729Y-78248D02*
D03*
X163186D02*
D03*
X92520Y-259449D02*
D03*
X96063D02*
D03*
X92520Y-255512D02*
D03*
X96063D02*
D03*
X52165Y-234449D02*
D03*
X55709D02*
D03*
X52165Y-230512D02*
D03*
X55709D02*
D03*
X182480Y-226279D02*
D03*
X178937D02*
D03*
X182969Y-60728D02*
D03*
X179426D02*
D03*
X175295Y-251772D02*
D03*
X178839D02*
D03*
X-168025Y-247406D02*
D03*
X-164482D02*
D03*
X-30709Y-257283D02*
D03*
X-34252D02*
D03*
X60827Y-178445D02*
D03*
X57284D02*
D03*
X183465Y-170965D02*
D03*
X179921D02*
D03*
X167421Y-174705D02*
D03*
X163878D02*
D03*
X183465Y-157382D02*
D03*
X179921D02*
D03*
D27*
X124114Y-246850D02*
D03*
X134350D02*
D03*
X140059Y-261910D02*
D03*
X150295D02*
D03*
X134350Y-254451D02*
D03*
X124114D02*
D03*
X134350Y-262041D02*
D03*
X124114D02*
D03*
D28*
X8465Y-20669D02*
D03*
Y-26575D02*
D03*
X14567Y-20669D02*
D03*
Y-26575D02*
D03*
X20472Y-20669D02*
D03*
Y-26575D02*
D03*
X-101181Y-256102D02*
D03*
Y-262008D02*
D03*
X-34154Y-209055D02*
D03*
Y-203150D02*
D03*
D29*
X176181Y-153445D02*
D03*
X174213D02*
D03*
X172244D02*
D03*
X170276D02*
D03*
X168307D02*
D03*
X166339D02*
D03*
X164370D02*
D03*
X162402D02*
D03*
X176181Y-169587D02*
D03*
X174213D02*
D03*
X172244D02*
D03*
X170276D02*
D03*
X168307D02*
D03*
X166339D02*
D03*
X164370D02*
D03*
X162402D02*
D03*
X175489Y-56878D02*
D03*
X173520D02*
D03*
X171552D02*
D03*
X169583D02*
D03*
X167615D02*
D03*
X165646D02*
D03*
X163678D02*
D03*
X161709D02*
D03*
X175489Y-73019D02*
D03*
X173520D02*
D03*
X171552D02*
D03*
X169583D02*
D03*
X167615D02*
D03*
X165646D02*
D03*
X163678D02*
D03*
X161709D02*
D03*
X179016Y13386D02*
D03*
X177047D02*
D03*
X175079D02*
D03*
X173110D02*
D03*
X171142D02*
D03*
X169173D02*
D03*
X167205D02*
D03*
X165236D02*
D03*
X179016Y-2756D02*
D03*
X177047D02*
D03*
X175079D02*
D03*
X173110D02*
D03*
X171142D02*
D03*
X169173D02*
D03*
X167205D02*
D03*
X165236D02*
D03*
X161319Y-246457D02*
D03*
X163287D02*
D03*
X165256D02*
D03*
X167224D02*
D03*
X169193D02*
D03*
X171161D02*
D03*
X173130D02*
D03*
X175098D02*
D03*
X161319Y-230315D02*
D03*
X163287D02*
D03*
X165256D02*
D03*
X167224D02*
D03*
X169193D02*
D03*
X171161D02*
D03*
X173130D02*
D03*
X175098D02*
D03*
D30*
X169291Y-161516D02*
D03*
X168599Y-64948D02*
D03*
X172126Y5315D02*
D03*
X168209Y-238386D02*
D03*
D31*
X157776Y6890D02*
D03*
Y13976D02*
D03*
X149606Y6890D02*
D03*
Y13976D02*
D03*
X151870Y-156398D02*
D03*
Y-149311D02*
D03*
X143701Y-156496D02*
D03*
Y-149409D02*
D03*
X153350Y-59971D02*
D03*
Y-52885D02*
D03*
X145272Y-59971D02*
D03*
Y-52885D02*
D03*
X151866Y-234530D02*
D03*
Y-227443D02*
D03*
X143894Y-234530D02*
D03*
Y-227443D02*
D03*
D32*
X176349Y-260551D02*
D03*
Y-264252D02*
D03*
X52362Y-238504D02*
D03*
Y-242205D02*
D03*
X41507Y-252146D02*
D03*
Y-248445D02*
D03*
X103740Y-259370D02*
D03*
Y-263071D02*
D03*
Y-255591D02*
D03*
Y-251890D02*
D03*
X58760Y-241910D02*
D03*
Y-238209D02*
D03*
X99902Y-263071D02*
D03*
Y-259370D02*
D03*
Y-251890D02*
D03*
Y-255591D02*
D03*
X61221Y-247953D02*
D03*
Y-251654D02*
D03*
X20700Y-215750D02*
D03*
Y-212050D02*
D03*
X52362Y-222756D02*
D03*
Y-226457D02*
D03*
X20669Y-225602D02*
D03*
Y-229303D02*
D03*
X182968Y-3917D02*
D03*
Y-216D02*
D03*
Y-7598D02*
D03*
Y-11299D02*
D03*
D33*
X158405Y-6102D02*
D03*
X149075D02*
D03*
X145335Y-247441D02*
D03*
X154665D02*
D03*
X146024Y-169390D02*
D03*
X155354D02*
D03*
X145725Y-72964D02*
D03*
X155055D02*
D03*
D34*
X43307Y-114173D02*
D03*
Y-110236D02*
D03*
X-15748Y-55118D02*
D03*
X-11811D02*
D03*
X-7874D02*
D03*
X-3937D02*
D03*
X0D02*
D03*
X3937D02*
D03*
X7874D02*
D03*
X11811D02*
D03*
X15748D02*
D03*
X19685D02*
D03*
X23622D02*
D03*
X27559D02*
D03*
X31496D02*
D03*
X35433D02*
D03*
X39370D02*
D03*
X43307D02*
D03*
X47244D02*
D03*
X51181D02*
D03*
X55118D02*
D03*
X59055D02*
D03*
X62992D02*
D03*
X66929D02*
D03*
X-15748Y-59055D02*
D03*
X-11811D02*
D03*
X-7874D02*
D03*
X-3937D02*
D03*
X0D02*
D03*
X3937D02*
D03*
X7874D02*
D03*
X11811D02*
D03*
X15748D02*
D03*
X19685D02*
D03*
X23622D02*
D03*
X27559D02*
D03*
X31496D02*
D03*
X35433D02*
D03*
X39370D02*
D03*
X43307D02*
D03*
X47244D02*
D03*
X51181D02*
D03*
X55118D02*
D03*
X59055D02*
D03*
X62992D02*
D03*
X66929D02*
D03*
X-15748Y-62992D02*
D03*
X-11811D02*
D03*
X-7874D02*
D03*
X-3937D02*
D03*
X0D02*
D03*
X3937D02*
D03*
X7874D02*
D03*
X11811D02*
D03*
X15748D02*
D03*
X19685D02*
D03*
X23622D02*
D03*
X27559D02*
D03*
X31496D02*
D03*
X35433D02*
D03*
X39370D02*
D03*
X43307D02*
D03*
X47244D02*
D03*
X51181D02*
D03*
X55118D02*
D03*
X59055D02*
D03*
X62992D02*
D03*
X66929D02*
D03*
X-15748Y-66929D02*
D03*
X-11811D02*
D03*
X-7874D02*
D03*
X-3937D02*
D03*
X0D02*
D03*
X3937D02*
D03*
X7874D02*
D03*
X11811D02*
D03*
X15748D02*
D03*
X19685D02*
D03*
X23622D02*
D03*
X27559D02*
D03*
X31496D02*
D03*
X35433D02*
D03*
X39370D02*
D03*
X43307D02*
D03*
X47244D02*
D03*
X51181D02*
D03*
X55118D02*
D03*
X59055D02*
D03*
X62992D02*
D03*
X66929D02*
D03*
X-15748Y-70866D02*
D03*
X-11811D02*
D03*
X-7874D02*
D03*
X-3937D02*
D03*
X0D02*
D03*
X3937D02*
D03*
X7874D02*
D03*
X11811D02*
D03*
X15748D02*
D03*
X19685D02*
D03*
X23622D02*
D03*
X27559D02*
D03*
X31496D02*
D03*
X35433D02*
D03*
X39370D02*
D03*
X43307D02*
D03*
X47244D02*
D03*
X51181D02*
D03*
X55118D02*
D03*
X59055D02*
D03*
X62992D02*
D03*
X66929D02*
D03*
X-15748Y-74803D02*
D03*
X-11811D02*
D03*
X-7874D02*
D03*
X-3937D02*
D03*
X0D02*
D03*
X3937D02*
D03*
X7874D02*
D03*
X11811D02*
D03*
X15748D02*
D03*
X19685D02*
D03*
X23622D02*
D03*
X27559D02*
D03*
X31496D02*
D03*
X35433D02*
D03*
X39370D02*
D03*
X43307D02*
D03*
X47244D02*
D03*
X51181D02*
D03*
X55118D02*
D03*
X59055D02*
D03*
X62992D02*
D03*
X66929D02*
D03*
X-15748Y-78740D02*
D03*
X-11811D02*
D03*
X-7874D02*
D03*
X-3937D02*
D03*
X0D02*
D03*
X3937D02*
D03*
X7874D02*
D03*
X11811D02*
D03*
X15748D02*
D03*
X19685D02*
D03*
X23622D02*
D03*
X27559D02*
D03*
X31496D02*
D03*
X35433D02*
D03*
X39370D02*
D03*
X43307D02*
D03*
X47244D02*
D03*
X51181D02*
D03*
X55118D02*
D03*
X59055D02*
D03*
X62992D02*
D03*
X66929D02*
D03*
X-15748Y-82677D02*
D03*
X-11811D02*
D03*
X-7874D02*
D03*
X-3937D02*
D03*
X0D02*
D03*
X3937D02*
D03*
X7874D02*
D03*
X11811D02*
D03*
X15748D02*
D03*
X19685D02*
D03*
X23622D02*
D03*
X27559D02*
D03*
X31496D02*
D03*
X35433D02*
D03*
X39370D02*
D03*
X43307D02*
D03*
X47244D02*
D03*
X51181D02*
D03*
X55118D02*
D03*
X59055D02*
D03*
X62992D02*
D03*
X66929D02*
D03*
X-15748Y-86614D02*
D03*
X-11811D02*
D03*
X-7874D02*
D03*
X-3937D02*
D03*
X0D02*
D03*
X3937D02*
D03*
X7874D02*
D03*
X11811D02*
D03*
X15748D02*
D03*
X19685D02*
D03*
X23622D02*
D03*
X27559D02*
D03*
X31496D02*
D03*
X35433D02*
D03*
X39370D02*
D03*
X43307D02*
D03*
X47244D02*
D03*
X51181D02*
D03*
X55118D02*
D03*
X59055D02*
D03*
X62992D02*
D03*
X66929D02*
D03*
X-15748Y-90551D02*
D03*
X-11811D02*
D03*
X-7874D02*
D03*
X-3937D02*
D03*
X0D02*
D03*
X3937D02*
D03*
X7874D02*
D03*
X11811D02*
D03*
X15748D02*
D03*
X19685D02*
D03*
X23622D02*
D03*
X27559D02*
D03*
X31496D02*
D03*
X35433D02*
D03*
X39370D02*
D03*
X43307D02*
D03*
X47244D02*
D03*
X51181D02*
D03*
X55118D02*
D03*
X59055D02*
D03*
X62992D02*
D03*
X66929D02*
D03*
X-15748Y-94488D02*
D03*
X-11811D02*
D03*
X-7874D02*
D03*
X-3937D02*
D03*
X0D02*
D03*
X3937D02*
D03*
X7874D02*
D03*
X11811D02*
D03*
X15748D02*
D03*
X19685D02*
D03*
X23622D02*
D03*
X27559D02*
D03*
X31496D02*
D03*
X35433D02*
D03*
X39370D02*
D03*
X43307D02*
D03*
X47244D02*
D03*
X51181D02*
D03*
X55118D02*
D03*
X59055D02*
D03*
X62992D02*
D03*
X66929D02*
D03*
X-15748Y-98425D02*
D03*
X-11811D02*
D03*
X-7874D02*
D03*
X-3937D02*
D03*
X0D02*
D03*
X3937D02*
D03*
X7874D02*
D03*
X11811D02*
D03*
X15748D02*
D03*
X19685D02*
D03*
X23622D02*
D03*
X27559D02*
D03*
X31496D02*
D03*
X35433D02*
D03*
X39370D02*
D03*
X43307D02*
D03*
X47244D02*
D03*
X51181D02*
D03*
X55118D02*
D03*
X59055D02*
D03*
X62992D02*
D03*
X66929D02*
D03*
X-15748Y-102362D02*
D03*
X-11811D02*
D03*
X-7874D02*
D03*
X-3937D02*
D03*
X0D02*
D03*
X3937D02*
D03*
X7874D02*
D03*
X11811D02*
D03*
X15748D02*
D03*
X19685D02*
D03*
X23622D02*
D03*
X27559D02*
D03*
X31496D02*
D03*
X35433D02*
D03*
X39370D02*
D03*
X43307D02*
D03*
X47244D02*
D03*
X51181D02*
D03*
X55118D02*
D03*
X59055D02*
D03*
X62992D02*
D03*
X66929D02*
D03*
X-15748Y-106299D02*
D03*
X-11811D02*
D03*
X-7874D02*
D03*
X-3937D02*
D03*
X0D02*
D03*
X3937D02*
D03*
X7874D02*
D03*
X11811D02*
D03*
X15748D02*
D03*
X19685D02*
D03*
X23622D02*
D03*
X27559D02*
D03*
X31496D02*
D03*
X35433D02*
D03*
X39370D02*
D03*
X43307D02*
D03*
X47244D02*
D03*
X51181D02*
D03*
X55118D02*
D03*
X59055D02*
D03*
X62992D02*
D03*
X66929D02*
D03*
X-15748Y-110236D02*
D03*
X-11811D02*
D03*
X-7874D02*
D03*
X-3937D02*
D03*
X0D02*
D03*
X3937D02*
D03*
X7874D02*
D03*
X11811D02*
D03*
X15748D02*
D03*
X19685D02*
D03*
X23622D02*
D03*
X27559D02*
D03*
X31496D02*
D03*
X35433D02*
D03*
X39370D02*
D03*
X47244D02*
D03*
X51181D02*
D03*
X55118D02*
D03*
X59055D02*
D03*
X62992D02*
D03*
X66929D02*
D03*
X-15748Y-114173D02*
D03*
X-11811D02*
D03*
X-7874D02*
D03*
X-3937D02*
D03*
X0D02*
D03*
X3937D02*
D03*
X7874D02*
D03*
X11811D02*
D03*
X15748D02*
D03*
X19685D02*
D03*
X23622D02*
D03*
X27559D02*
D03*
X31496D02*
D03*
X35433D02*
D03*
X39370D02*
D03*
X47244D02*
D03*
X51181D02*
D03*
X55118D02*
D03*
X59055D02*
D03*
X62992D02*
D03*
X66929D02*
D03*
X-15748Y-118110D02*
D03*
X-11811D02*
D03*
X-7874D02*
D03*
X-3937D02*
D03*
X0D02*
D03*
X3937D02*
D03*
X7874D02*
D03*
X11811D02*
D03*
X15748D02*
D03*
X19685D02*
D03*
X23622D02*
D03*
X27559D02*
D03*
X31496D02*
D03*
X35433D02*
D03*
X39370D02*
D03*
X43307D02*
D03*
X47244D02*
D03*
X51181D02*
D03*
X55118D02*
D03*
X59055D02*
D03*
X62992D02*
D03*
X66929D02*
D03*
X-15748Y-122047D02*
D03*
X-11811D02*
D03*
X-7874D02*
D03*
X-3937D02*
D03*
X0D02*
D03*
X3937D02*
D03*
X7874D02*
D03*
X11811D02*
D03*
X15748D02*
D03*
X19685D02*
D03*
X23622D02*
D03*
X27559D02*
D03*
X31496D02*
D03*
X35433D02*
D03*
X39370D02*
D03*
X43307D02*
D03*
X47244D02*
D03*
X51181D02*
D03*
X55118D02*
D03*
X59055D02*
D03*
X62992D02*
D03*
X66929D02*
D03*
X-15748Y-125984D02*
D03*
X-11811D02*
D03*
X-7874D02*
D03*
X-3937D02*
D03*
X0D02*
D03*
X3937D02*
D03*
X7874D02*
D03*
X11811D02*
D03*
X15748D02*
D03*
X19685D02*
D03*
X23622D02*
D03*
X27559D02*
D03*
X31496D02*
D03*
X35433D02*
D03*
X39370D02*
D03*
X43307D02*
D03*
X47244D02*
D03*
X51181D02*
D03*
X55118D02*
D03*
X59055D02*
D03*
X62992D02*
D03*
X66929D02*
D03*
X-15748Y-137795D02*
D03*
X-11811D02*
D03*
X-7874D02*
D03*
X-3937D02*
D03*
X0D02*
D03*
X3937D02*
D03*
X7874D02*
D03*
X11811D02*
D03*
X15748D02*
D03*
X19685D02*
D03*
X23622D02*
D03*
X27559D02*
D03*
X31496D02*
D03*
X35433D02*
D03*
X39370D02*
D03*
X43307D02*
D03*
X47244D02*
D03*
X51181D02*
D03*
X55118D02*
D03*
X59055D02*
D03*
X62992D02*
D03*
X66929D02*
D03*
Y-133858D02*
D03*
X62992D02*
D03*
X59055D02*
D03*
X55118D02*
D03*
X51181D02*
D03*
X47244D02*
D03*
X43307D02*
D03*
X39370D02*
D03*
X35433D02*
D03*
X31496D02*
D03*
X27559D02*
D03*
X23622D02*
D03*
X19685D02*
D03*
X15748D02*
D03*
X11811D02*
D03*
X7874D02*
D03*
X3937D02*
D03*
X0D02*
D03*
X-3937D02*
D03*
X-7874D02*
D03*
X-11811D02*
D03*
X-15748D02*
D03*
X66929Y-129921D02*
D03*
X62992D02*
D03*
X59055D02*
D03*
X55118D02*
D03*
X51181D02*
D03*
X47244D02*
D03*
X43307D02*
D03*
X39370D02*
D03*
X35433D02*
D03*
X31496D02*
D03*
X27559D02*
D03*
X23622D02*
D03*
X19685D02*
D03*
X15748D02*
D03*
X11811D02*
D03*
X7874D02*
D03*
X3937D02*
D03*
X0D02*
D03*
X-3937D02*
D03*
X-7874D02*
D03*
X-11811D02*
D03*
X-15748D02*
D03*
D35*
X11220Y23819D02*
D03*
X-197D02*
D03*
X-14370Y-33661D02*
D03*
X-25787D02*
D03*
X21260Y-10433D02*
D03*
X9843D02*
D03*
D36*
X-182837Y-257972D02*
D03*
Y-260531D02*
D03*
Y-263091D02*
D03*
X-191498D02*
D03*
Y-260531D02*
D03*
Y-257972D02*
D03*
X-182837Y-247047D02*
D03*
Y-249606D02*
D03*
Y-252165D02*
D03*
X-191498D02*
D03*
Y-249606D02*
D03*
Y-247047D02*
D03*
D37*
X99705Y-240293D02*
D03*
X106004D02*
D03*
X46457Y-204331D02*
D03*
X52756D02*
D03*
X64961Y-163920D02*
D03*
X58662D02*
D03*
D38*
X93602Y-240158D02*
D03*
Y-246063D02*
D03*
D39*
X76968Y-239754D02*
D03*
Y-262215D02*
D03*
X36614Y-217707D02*
D03*
Y-240167D02*
D03*
D40*
X85236Y-240984D02*
D03*
Y-250984D02*
D03*
X68701Y-260984D02*
D03*
X85236D02*
D03*
X68701Y-250984D02*
D03*
Y-240984D02*
D03*
X44882Y-218937D02*
D03*
Y-228937D02*
D03*
X28346Y-238937D02*
D03*
X44882D02*
D03*
X28346Y-228937D02*
D03*
Y-218937D02*
D03*
D41*
X41704Y-208921D02*
D03*
X38948D02*
D03*
X41704Y-212071D02*
D03*
X38948D02*
D03*
D42*
X40354Y-204331D02*
D03*
X34449D02*
D03*
D43*
X-293071Y-247709D02*
D03*
Y-263709D02*
D03*
X-298071Y-247709D02*
D03*
Y-263709D02*
D03*
X-303071Y-247709D02*
D03*
Y-263709D02*
D03*
X-308071Y-247709D02*
D03*
Y-263709D02*
D03*
X-313071Y-247709D02*
D03*
Y-263709D02*
D03*
X-318071Y-247709D02*
D03*
Y-263709D02*
D03*
X-323071Y-247709D02*
D03*
Y-263709D02*
D03*
D44*
X-31594Y12626D02*
D03*
X-56004D02*
D03*
X394Y6693D02*
D03*
X24803D02*
D03*
X-689Y-16339D02*
D03*
X-25098D02*
D03*
D45*
X-16929Y-189370D02*
D03*
Y-186221D02*
D03*
Y-183071D02*
D03*
Y-170472D02*
D03*
Y-167323D02*
D03*
Y-164173D02*
D03*
X-13780Y-189370D02*
D03*
Y-186221D02*
D03*
Y-183071D02*
D03*
Y-170472D02*
D03*
Y-167323D02*
D03*
Y-164173D02*
D03*
X-10630Y-189370D02*
D03*
Y-186221D02*
D03*
Y-183071D02*
D03*
Y-170472D02*
D03*
Y-167323D02*
D03*
Y-164173D02*
D03*
X-7480Y-189370D02*
D03*
Y-186221D02*
D03*
Y-183071D02*
D03*
Y-170472D02*
D03*
Y-167323D02*
D03*
Y-164173D02*
D03*
X-4331Y-189370D02*
D03*
Y-186221D02*
D03*
Y-183071D02*
D03*
Y-170472D02*
D03*
Y-167323D02*
D03*
Y-164173D02*
D03*
X-1181Y-189370D02*
D03*
Y-186221D02*
D03*
Y-183071D02*
D03*
Y-170472D02*
D03*
Y-167323D02*
D03*
Y-164173D02*
D03*
X1969Y-189370D02*
D03*
Y-186221D02*
D03*
Y-183071D02*
D03*
Y-170472D02*
D03*
Y-167323D02*
D03*
Y-164173D02*
D03*
X5118Y-189370D02*
D03*
Y-186221D02*
D03*
Y-183071D02*
D03*
Y-170472D02*
D03*
Y-167323D02*
D03*
Y-164173D02*
D03*
X8268Y-189370D02*
D03*
Y-186221D02*
D03*
Y-183071D02*
D03*
Y-170472D02*
D03*
Y-167323D02*
D03*
Y-164173D02*
D03*
X11417Y-189370D02*
D03*
Y-186221D02*
D03*
Y-183071D02*
D03*
Y-170472D02*
D03*
Y-167323D02*
D03*
Y-164173D02*
D03*
X14567Y-189370D02*
D03*
Y-186221D02*
D03*
Y-183071D02*
D03*
Y-170472D02*
D03*
Y-167323D02*
D03*
Y-164173D02*
D03*
X17717Y-189370D02*
D03*
Y-186221D02*
D03*
Y-183071D02*
D03*
Y-170472D02*
D03*
Y-167323D02*
D03*
Y-164173D02*
D03*
X20866Y-189370D02*
D03*
Y-186221D02*
D03*
Y-183071D02*
D03*
Y-170472D02*
D03*
Y-167323D02*
D03*
Y-164173D02*
D03*
X24016Y-189370D02*
D03*
Y-186221D02*
D03*
Y-183071D02*
D03*
Y-170472D02*
D03*
Y-167323D02*
D03*
Y-164173D02*
D03*
X27165Y-189370D02*
D03*
Y-186221D02*
D03*
Y-183071D02*
D03*
Y-170472D02*
D03*
Y-167323D02*
D03*
Y-164173D02*
D03*
D46*
X120435Y-200070D02*
D03*
Y-195070D02*
D03*
Y-190070D02*
D03*
Y-185070D02*
D03*
Y-180070D02*
D03*
Y-175070D02*
D03*
Y-170070D02*
D03*
Y-165070D02*
D03*
Y-160070D02*
D03*
Y-155070D02*
D03*
Y-150070D02*
D03*
Y-145070D02*
D03*
Y-140070D02*
D03*
Y-135070D02*
D03*
Y-130070D02*
D03*
Y-125070D02*
D03*
Y-120070D02*
D03*
Y-115070D02*
D03*
Y-110070D02*
D03*
Y-105070D02*
D03*
Y-100070D02*
D03*
Y-95070D02*
D03*
Y-90070D02*
D03*
Y-85070D02*
D03*
Y-80070D02*
D03*
Y-75070D02*
D03*
Y-70070D02*
D03*
Y-65070D02*
D03*
Y-60070D02*
D03*
Y-55070D02*
D03*
Y-50070D02*
D03*
Y-45070D02*
D03*
Y-40070D02*
D03*
Y-35070D02*
D03*
Y-30070D02*
D03*
Y-25070D02*
D03*
Y-20070D02*
D03*
Y-15070D02*
D03*
Y-10070D02*
D03*
Y-5070D02*
D03*
X125435D02*
D03*
Y-10070D02*
D03*
Y-15070D02*
D03*
Y-20070D02*
D03*
Y-25070D02*
D03*
Y-30070D02*
D03*
Y-35070D02*
D03*
Y-40070D02*
D03*
Y-45070D02*
D03*
Y-50070D02*
D03*
Y-55070D02*
D03*
Y-60070D02*
D03*
Y-65070D02*
D03*
Y-70070D02*
D03*
Y-75070D02*
D03*
Y-80070D02*
D03*
Y-85070D02*
D03*
Y-90070D02*
D03*
Y-95070D02*
D03*
Y-100070D02*
D03*
Y-105070D02*
D03*
Y-110070D02*
D03*
Y-115070D02*
D03*
Y-120070D02*
D03*
Y-125070D02*
D03*
Y-130070D02*
D03*
Y-135070D02*
D03*
Y-140070D02*
D03*
Y-145070D02*
D03*
Y-150070D02*
D03*
Y-155070D02*
D03*
Y-160070D02*
D03*
Y-165070D02*
D03*
Y-170070D02*
D03*
Y-175070D02*
D03*
Y-180070D02*
D03*
Y-185070D02*
D03*
Y-190070D02*
D03*
Y-195070D02*
D03*
Y-200070D02*
D03*
X115435Y-5070D02*
D03*
Y-10070D02*
D03*
Y-15070D02*
D03*
Y-20070D02*
D03*
Y-25070D02*
D03*
Y-30070D02*
D03*
Y-35070D02*
D03*
Y-40070D02*
D03*
Y-45070D02*
D03*
Y-50070D02*
D03*
Y-55070D02*
D03*
Y-60070D02*
D03*
Y-65070D02*
D03*
Y-70070D02*
D03*
Y-75070D02*
D03*
Y-80070D02*
D03*
Y-85070D02*
D03*
Y-90070D02*
D03*
Y-95070D02*
D03*
Y-100070D02*
D03*
Y-105070D02*
D03*
Y-110070D02*
D03*
Y-115070D02*
D03*
Y-120070D02*
D03*
Y-125070D02*
D03*
Y-130070D02*
D03*
Y-135070D02*
D03*
Y-140070D02*
D03*
Y-145070D02*
D03*
Y-150070D02*
D03*
Y-155070D02*
D03*
Y-160070D02*
D03*
Y-165070D02*
D03*
Y-170070D02*
D03*
Y-175070D02*
D03*
Y-180070D02*
D03*
Y-185070D02*
D03*
Y-190070D02*
D03*
Y-195070D02*
D03*
Y-200070D02*
D03*
X110435Y-5070D02*
D03*
Y-10070D02*
D03*
Y-15070D02*
D03*
Y-20070D02*
D03*
Y-25070D02*
D03*
Y-30070D02*
D03*
Y-35070D02*
D03*
Y-40070D02*
D03*
Y-45070D02*
D03*
Y-50070D02*
D03*
Y-55070D02*
D03*
Y-60070D02*
D03*
Y-65070D02*
D03*
Y-70070D02*
D03*
Y-75070D02*
D03*
Y-80070D02*
D03*
Y-85070D02*
D03*
Y-90070D02*
D03*
Y-95070D02*
D03*
Y-100070D02*
D03*
Y-105070D02*
D03*
Y-110070D02*
D03*
Y-115070D02*
D03*
Y-120070D02*
D03*
Y-125070D02*
D03*
Y-130070D02*
D03*
Y-135070D02*
D03*
Y-140070D02*
D03*
Y-145070D02*
D03*
Y-150070D02*
D03*
Y-155070D02*
D03*
Y-160070D02*
D03*
Y-165070D02*
D03*
Y-170070D02*
D03*
Y-175070D02*
D03*
Y-180070D02*
D03*
Y-185070D02*
D03*
Y-190070D02*
D03*
Y-195070D02*
D03*
Y-200070D02*
D03*
X105435Y-5070D02*
D03*
Y-10070D02*
D03*
Y-15070D02*
D03*
Y-20070D02*
D03*
Y-25070D02*
D03*
Y-30070D02*
D03*
Y-35070D02*
D03*
Y-40070D02*
D03*
Y-45070D02*
D03*
Y-50070D02*
D03*
Y-55070D02*
D03*
Y-60070D02*
D03*
Y-65070D02*
D03*
Y-70070D02*
D03*
Y-75070D02*
D03*
Y-80070D02*
D03*
Y-85070D02*
D03*
Y-90070D02*
D03*
Y-95070D02*
D03*
Y-100070D02*
D03*
Y-105070D02*
D03*
Y-110070D02*
D03*
Y-115070D02*
D03*
Y-120070D02*
D03*
Y-125070D02*
D03*
Y-130070D02*
D03*
Y-135070D02*
D03*
Y-140070D02*
D03*
Y-145070D02*
D03*
Y-150070D02*
D03*
Y-155070D02*
D03*
Y-160070D02*
D03*
Y-165070D02*
D03*
Y-170070D02*
D03*
Y-175070D02*
D03*
Y-180070D02*
D03*
Y-185070D02*
D03*
Y-190070D02*
D03*
Y-195070D02*
D03*
Y-200070D02*
D03*
X100435Y-5070D02*
D03*
Y-10070D02*
D03*
Y-15070D02*
D03*
Y-20070D02*
D03*
Y-25070D02*
D03*
Y-30070D02*
D03*
Y-35070D02*
D03*
Y-40070D02*
D03*
Y-45070D02*
D03*
Y-50070D02*
D03*
Y-55070D02*
D03*
Y-60070D02*
D03*
Y-65070D02*
D03*
Y-70070D02*
D03*
Y-75070D02*
D03*
Y-80070D02*
D03*
Y-85070D02*
D03*
Y-90070D02*
D03*
Y-95070D02*
D03*
Y-100070D02*
D03*
Y-105070D02*
D03*
Y-110070D02*
D03*
Y-115070D02*
D03*
Y-120070D02*
D03*
Y-125070D02*
D03*
Y-130070D02*
D03*
Y-135070D02*
D03*
Y-140070D02*
D03*
Y-145070D02*
D03*
Y-150070D02*
D03*
Y-155070D02*
D03*
Y-160070D02*
D03*
Y-165070D02*
D03*
Y-170070D02*
D03*
Y-175070D02*
D03*
Y-180070D02*
D03*
Y-185070D02*
D03*
Y-190070D02*
D03*
Y-195070D02*
D03*
Y-200070D02*
D03*
X95435Y-5070D02*
D03*
Y-10070D02*
D03*
Y-15070D02*
D03*
Y-20070D02*
D03*
Y-25070D02*
D03*
Y-30070D02*
D03*
Y-35070D02*
D03*
Y-40070D02*
D03*
Y-45070D02*
D03*
Y-50070D02*
D03*
Y-55070D02*
D03*
Y-60070D02*
D03*
Y-65070D02*
D03*
Y-70070D02*
D03*
Y-75070D02*
D03*
Y-80070D02*
D03*
Y-85070D02*
D03*
Y-90070D02*
D03*
Y-95070D02*
D03*
Y-100070D02*
D03*
Y-105070D02*
D03*
Y-110070D02*
D03*
Y-115070D02*
D03*
Y-120070D02*
D03*
Y-125070D02*
D03*
Y-130070D02*
D03*
Y-135070D02*
D03*
Y-140070D02*
D03*
Y-145070D02*
D03*
Y-150070D02*
D03*
Y-155070D02*
D03*
Y-160070D02*
D03*
Y-165070D02*
D03*
Y-170070D02*
D03*
Y-175070D02*
D03*
Y-180070D02*
D03*
Y-185070D02*
D03*
Y-190070D02*
D03*
Y-195070D02*
D03*
Y-200070D02*
D03*
X90435Y-5070D02*
D03*
Y-10070D02*
D03*
Y-15070D02*
D03*
Y-20070D02*
D03*
Y-25070D02*
D03*
Y-30070D02*
D03*
Y-35070D02*
D03*
Y-40070D02*
D03*
Y-45070D02*
D03*
Y-50070D02*
D03*
Y-55070D02*
D03*
Y-60070D02*
D03*
Y-65070D02*
D03*
Y-70070D02*
D03*
Y-75070D02*
D03*
Y-80070D02*
D03*
Y-85070D02*
D03*
Y-90070D02*
D03*
Y-95070D02*
D03*
Y-100070D02*
D03*
Y-105070D02*
D03*
Y-110070D02*
D03*
Y-115070D02*
D03*
Y-120070D02*
D03*
Y-125070D02*
D03*
Y-130070D02*
D03*
Y-135070D02*
D03*
Y-140070D02*
D03*
Y-145070D02*
D03*
Y-150070D02*
D03*
Y-155070D02*
D03*
Y-160070D02*
D03*
Y-165070D02*
D03*
Y-170070D02*
D03*
Y-175070D02*
D03*
Y-180070D02*
D03*
Y-185070D02*
D03*
Y-190070D02*
D03*
Y-195070D02*
D03*
Y-200070D02*
D03*
X85435Y-5070D02*
D03*
Y-10070D02*
D03*
Y-15070D02*
D03*
Y-20070D02*
D03*
Y-25070D02*
D03*
Y-30070D02*
D03*
Y-35070D02*
D03*
Y-40070D02*
D03*
Y-45070D02*
D03*
Y-50070D02*
D03*
Y-55070D02*
D03*
Y-60070D02*
D03*
Y-65070D02*
D03*
Y-70070D02*
D03*
Y-75070D02*
D03*
Y-80070D02*
D03*
Y-85070D02*
D03*
Y-90070D02*
D03*
Y-95070D02*
D03*
Y-100070D02*
D03*
Y-105070D02*
D03*
Y-110070D02*
D03*
Y-115070D02*
D03*
Y-120070D02*
D03*
Y-125070D02*
D03*
Y-130070D02*
D03*
Y-135070D02*
D03*
Y-140070D02*
D03*
Y-145070D02*
D03*
Y-150070D02*
D03*
Y-155070D02*
D03*
Y-160070D02*
D03*
Y-165070D02*
D03*
Y-170070D02*
D03*
Y-175070D02*
D03*
Y-180070D02*
D03*
Y-185070D02*
D03*
Y-190070D02*
D03*
Y-195070D02*
D03*
Y-200070D02*
D03*
X80435Y-5070D02*
D03*
Y-10070D02*
D03*
Y-15070D02*
D03*
Y-20070D02*
D03*
Y-25070D02*
D03*
Y-30070D02*
D03*
Y-35070D02*
D03*
Y-40070D02*
D03*
Y-45070D02*
D03*
Y-50070D02*
D03*
Y-55070D02*
D03*
Y-60070D02*
D03*
Y-65070D02*
D03*
Y-70070D02*
D03*
Y-75070D02*
D03*
Y-80070D02*
D03*
Y-85070D02*
D03*
Y-90070D02*
D03*
Y-95070D02*
D03*
Y-100070D02*
D03*
Y-105070D02*
D03*
Y-110070D02*
D03*
Y-115070D02*
D03*
Y-120070D02*
D03*
Y-125070D02*
D03*
Y-130070D02*
D03*
Y-135070D02*
D03*
Y-140070D02*
D03*
Y-145070D02*
D03*
Y-150070D02*
D03*
Y-155070D02*
D03*
Y-160070D02*
D03*
Y-165070D02*
D03*
Y-170070D02*
D03*
Y-175070D02*
D03*
Y-180070D02*
D03*
Y-185070D02*
D03*
Y-190070D02*
D03*
Y-195070D02*
D03*
Y-200070D02*
D03*
D47*
X-94193Y-216831D02*
D03*
Y-218799D02*
D03*
Y-220768D02*
D03*
Y-222736D02*
D03*
Y-224705D02*
D03*
Y-226673D02*
D03*
Y-228642D02*
D03*
Y-230610D02*
D03*
Y-232579D02*
D03*
Y-234547D02*
D03*
Y-236516D02*
D03*
Y-238484D02*
D03*
Y-240453D02*
D03*
Y-242421D02*
D03*
Y-244390D02*
D03*
Y-246358D02*
D03*
Y-248327D02*
D03*
Y-250295D02*
D03*
Y-252264D02*
D03*
Y-254232D02*
D03*
X-41240D02*
D03*
Y-252264D02*
D03*
Y-250295D02*
D03*
Y-248327D02*
D03*
Y-246358D02*
D03*
Y-244390D02*
D03*
Y-242421D02*
D03*
Y-240453D02*
D03*
Y-238484D02*
D03*
Y-236516D02*
D03*
Y-234547D02*
D03*
Y-232579D02*
D03*
Y-230610D02*
D03*
Y-228642D02*
D03*
Y-226673D02*
D03*
Y-224705D02*
D03*
Y-222736D02*
D03*
Y-220768D02*
D03*
Y-218799D02*
D03*
Y-216831D02*
D03*
D48*
X-86417Y-262008D02*
D03*
X-84449D02*
D03*
X-82480D02*
D03*
X-80512D02*
D03*
X-78543D02*
D03*
X-76575D02*
D03*
X-74606D02*
D03*
X-72638D02*
D03*
X-70669D02*
D03*
X-68701D02*
D03*
X-66732D02*
D03*
X-64764D02*
D03*
X-62795D02*
D03*
X-60827D02*
D03*
X-58858D02*
D03*
X-56890D02*
D03*
X-54921D02*
D03*
X-52953D02*
D03*
X-50984D02*
D03*
X-49016D02*
D03*
Y-209055D02*
D03*
X-50984D02*
D03*
X-52953D02*
D03*
X-54921D02*
D03*
X-56890D02*
D03*
X-58858D02*
D03*
X-60827D02*
D03*
X-62795D02*
D03*
X-64764D02*
D03*
X-66732D02*
D03*
X-68701D02*
D03*
X-70669D02*
D03*
X-72638D02*
D03*
X-74606D02*
D03*
X-76575D02*
D03*
X-78543D02*
D03*
X-80512D02*
D03*
X-82480D02*
D03*
X-84449D02*
D03*
X-86417D02*
D03*
D49*
X-149902Y-227284D02*
D03*
Y-232283D02*
D03*
Y-237283D02*
D03*
Y-242284D02*
D03*
Y-247284D02*
D03*
Y-252284D02*
D03*
Y-257283D02*
D03*
Y-262283D02*
D03*
X-113878Y-227284D02*
D03*
Y-232283D02*
D03*
Y-237283D02*
D03*
Y-242284D02*
D03*
Y-247284D02*
D03*
Y-252284D02*
D03*
Y-257283D02*
D03*
Y-262283D02*
D03*
D50*
X15276Y-240059D02*
D03*
X10276D02*
D03*
X5276D02*
D03*
X276D02*
D03*
X-4724D02*
D03*
X-9724D02*
D03*
X-14724D02*
D03*
X15276Y-261319D02*
D03*
X10276D02*
D03*
X5276D02*
D03*
X276D02*
D03*
X-4724D02*
D03*
X-9724D02*
D03*
X-14724D02*
D03*
X142030Y-122835D02*
D03*
X147030D02*
D03*
X152030D02*
D03*
X157030D02*
D03*
X162030D02*
D03*
X167030D02*
D03*
X172030D02*
D03*
X142030Y-101575D02*
D03*
X147030D02*
D03*
X152030D02*
D03*
X157030D02*
D03*
X162030D02*
D03*
X167030D02*
D03*
X172030D02*
D03*
X15276Y-209941D02*
D03*
X10276D02*
D03*
X5276D02*
D03*
X276D02*
D03*
X-4724D02*
D03*
X-9724D02*
D03*
X-14724D02*
D03*
X15276Y-231201D02*
D03*
X10276D02*
D03*
X5276D02*
D03*
X276D02*
D03*
X-4724D02*
D03*
X-9724D02*
D03*
X-14724D02*
D03*
D51*
X35236Y-9941D02*
D03*
Y5807D02*
D03*
X44587Y-9941D02*
D03*
Y5807D02*
D03*
X115847Y-246358D02*
D03*
Y-262106D02*
D03*
D52*
X139469Y20472D02*
D03*
Y8661D02*
D03*
X135039Y-228839D02*
D03*
Y-240650D02*
D03*
X134646Y-152067D02*
D03*
Y-163878D02*
D03*
D53*
X19783Y-34154D02*
D03*
X4035D02*
D03*
X63583Y-230020D02*
D03*
X79331D02*
D03*
X135630Y-189665D02*
D03*
X151378D02*
D03*
D54*
X140847Y886D02*
D03*
X133760D02*
D03*
X140847Y-7283D02*
D03*
X133760D02*
D03*
D55*
X-15551Y-295D02*
D03*
Y24114D02*
D03*
D56*
X64961Y-169825D02*
D03*
X58662D02*
D03*
X140256Y-181890D02*
D03*
X146555D02*
D03*
X115453Y-220768D02*
D03*
X121752D02*
D03*
X171358Y-256791D02*
D03*
X165059D02*
D03*
X175292Y-79331D02*
D03*
X181591D02*
D03*
X169488Y-179626D02*
D03*
X163189D02*
D03*
X175492Y-175886D02*
D03*
X181791D02*
D03*
X151378Y-211516D02*
D03*
X157677D02*
D03*
D57*
X133366Y-172441D02*
D03*
Y-179528D02*
D03*
X62697Y21850D02*
D03*
Y14764D02*
D03*
D58*
X126340Y-228543D02*
D03*
X114529D02*
D03*
X126378Y-237894D02*
D03*
X114567D02*
D03*
D59*
X60039Y-209842D02*
D03*
Y-221654D02*
D03*
D60*
X67618Y-222244D02*
D03*
Y-215945D02*
D03*
X174100Y-85350D02*
D03*
Y-91650D02*
D03*
X170768Y-9055D02*
D03*
Y-15354D02*
D03*
X176870Y-9055D02*
D03*
Y-15354D02*
D03*
D61*
X-34252Y-262205D02*
D03*
X-28346D02*
D03*
D62*
X41339Y-169488D02*
D03*
Y-173228D02*
D03*
Y-176969D02*
D03*
X51968D02*
D03*
Y-173228D02*
D03*
Y-169488D02*
D03*
D63*
X-164482Y-252820D02*
D03*
Y-260300D02*
D03*
X-174718D02*
D03*
Y-256560D02*
D03*
Y-252820D02*
D03*
D64*
X159252Y-223130D02*
D03*
X166339D02*
D03*
X159153Y-146161D02*
D03*
X166240D02*
D03*
X160528Y-49538D02*
D03*
X167615D02*
D03*
D65*
X151378Y-205217D02*
D03*
Y-197736D02*
D03*
D66*
X180807Y26969D02*
D03*
Y19882D02*
D03*
X169980Y26969D02*
D03*
Y19882D02*
D03*
D67*
X40551Y-155020D02*
D03*
X50787D02*
D03*
X60039D02*
D03*
X70276D02*
D03*
D68*
X65453Y-22314D02*
D03*
Y-32550D02*
D03*
X56201Y-22314D02*
D03*
Y-32550D02*
D03*
X37697Y-22314D02*
D03*
Y-32550D02*
D03*
X28445Y-22314D02*
D03*
Y-32550D02*
D03*
X46949Y-22314D02*
D03*
Y-32550D02*
D03*
D69*
X136217Y-63250D02*
D03*
Y-54195D02*
D03*
D70*
X133169Y-197835D02*
D03*
Y-201575D02*
D03*
Y-205315D02*
D03*
X143799D02*
D03*
Y-197835D02*
D03*
D71*
X169882Y-130709D02*
D03*
Y-138583D02*
D03*
X132579Y-138779D02*
D03*
Y-130905D02*
D03*
X133661Y-93701D02*
D03*
Y-85827D02*
D03*
X166142Y-85925D02*
D03*
Y-93799D02*
D03*
D72*
X157087Y-134646D02*
D03*
X145374Y-134843D02*
D03*
X146457Y-89764D02*
D03*
X153347Y-89862D02*
D03*
D73*
X159449Y-190236D02*
D03*
Y-195236D02*
D03*
Y-200236D02*
D03*
Y-205236D02*
D03*
X180709Y-190236D02*
D03*
Y-195236D02*
D03*
Y-200236D02*
D03*
Y-205236D02*
D03*
D74*
X37697Y14370D02*
D03*
Y25787D02*
D03*
X56299Y-9154D02*
D03*
Y2264D02*
D03*
X45472Y-185470D02*
D03*
Y-196888D02*
D03*
X51772Y14370D02*
D03*
Y25787D02*
D03*
X59449Y-185335D02*
D03*
Y-196752D02*
D03*
M02*
