G04*
G04 #@! TF.GenerationSoftware,Altium Limited,Altium Designer,19.1.7 (138)*
G04*
G04 Layer_Color=65535*
%FSLAX25Y25*%
%MOIN*%
G70*
G01*
G75*
%ADD10C,0.00984*%
%ADD11C,0.01000*%
%ADD12C,0.02362*%
%ADD13C,0.01968*%
%ADD14C,0.00394*%
%ADD15C,0.00787*%
%ADD16C,0.00600*%
%ADD17C,0.00591*%
%ADD18C,0.00472*%
%ADD19R,0.15748X0.03150*%
G36*
X-20472Y-192520D02*
X-16535Y-196457D01*
X-20472D01*
Y-192520D01*
D02*
G37*
G36*
X70866Y-141732D02*
X66929D01*
X70866Y-137795D01*
Y-141732D01*
D02*
G37*
D10*
X159449Y-29921D02*
G03*
X159449Y-29921I-492J0D01*
G01*
X142028Y-16043D02*
G03*
X142028Y-16043I-492J0D01*
G01*
X171358Y-32185D02*
G03*
X171358Y-32185I-492J0D01*
G01*
X183858Y-26181D02*
G03*
X183858Y-26181I-492J0D01*
G01*
X123819Y-243898D02*
G03*
X123819Y-243898I-492J0D01*
G01*
X179331Y-153445D02*
G03*
X179331Y-153445I-492J0D01*
G01*
X178638Y-56878D02*
G03*
X178638Y-56878I-492J0D01*
G01*
X182165Y13386D02*
G03*
X182165Y13386I-492J0D01*
G01*
X-3445Y30118D02*
G03*
X-3445Y30118I-492J0D01*
G01*
X-191794Y-255217D02*
G03*
X-191794Y-255217I-492J0D01*
G01*
Y-244291D02*
G03*
X-191794Y-244291I-492J0D01*
G01*
X62205Y-240650D02*
G03*
X62205Y-240650I-492J0D01*
G01*
X21850Y-218602D02*
G03*
X21850Y-218602I-492J0D01*
G01*
X-26378Y5244D02*
G03*
X-26378Y5244I-492J0D01*
G01*
X-3839Y14075D02*
G03*
X-3839Y14075I-492J0D01*
G01*
X4528Y-23720D02*
G03*
X4528Y-23720I-492J0D01*
G01*
X139764Y-258957D02*
G03*
X139764Y-258957I-492J0D01*
G01*
X-19390Y-199016D02*
G03*
X-19390Y-199016I-492J0D01*
G01*
X-93701Y-214075D02*
G03*
X-93701Y-214075I-492J0D01*
G01*
X-149409Y-223937D02*
G03*
X-149409Y-223937I-492J0D01*
G01*
X-17579Y-260138D02*
G03*
X-17579Y-260138I-492J0D01*
G01*
X178248Y-230315D02*
G03*
X178248Y-230315I-492J0D01*
G01*
X-22441Y-5020D02*
G03*
X-22441Y-5020I-492J0D01*
G01*
X123819Y-251499D02*
G03*
X123819Y-251499I-492J0D01*
G01*
X40650Y-166142D02*
G03*
X40650Y-166142I-492J0D01*
G01*
X-175407Y-249670D02*
G03*
X-175407Y-249670I-492J0D01*
G01*
X37205Y-150591D02*
G03*
X37205Y-150591I-492J0D01*
G01*
X56693D02*
G03*
X56693Y-150591I-492J0D01*
G01*
X70374Y-18475D02*
G03*
X70374Y-18475I-492J0D01*
G01*
X61122D02*
G03*
X61122Y-18475I-492J0D01*
G01*
X42618D02*
G03*
X42618Y-18475I-492J0D01*
G01*
X33366D02*
G03*
X33366Y-18475I-492J0D01*
G01*
X51870D02*
G03*
X51870Y-18475I-492J0D01*
G01*
X132283Y-194685D02*
G03*
X132283Y-194685I-492J0D01*
G01*
X174902Y-138583D02*
G03*
X174902Y-138583I-492J0D01*
G01*
X128543Y-130905D02*
G03*
X128543Y-130905I-492J0D01*
G01*
X129626Y-85827D02*
G03*
X129626Y-85827I-492J0D01*
G01*
X171161Y-93799D02*
G03*
X171161Y-93799I-492J0D01*
G01*
X175869Y-102756D02*
G03*
X175869Y-102756I-492J0D01*
G01*
X73524Y-137795D02*
G03*
X73524Y-137795I-492J0D01*
G01*
X180020Y-208583D02*
G03*
X180020Y-208583I-492J0D01*
G01*
X31890Y10630D02*
G03*
X31890Y10630I-492J0D01*
G01*
X-10138Y-39961D02*
G03*
X-10138Y-39961I-492J0D01*
G01*
X50492Y-12894D02*
G03*
X50492Y-12894I-492J0D01*
G01*
X25492Y-16732D02*
G03*
X25492Y-16732I-492J0D01*
G01*
X52264Y-181730D02*
G03*
X52264Y-181730I-492J0D01*
G01*
X45965Y10630D02*
G03*
X45965Y10630I-492J0D01*
G01*
X66240Y-181595D02*
G03*
X66240Y-181595I-492J0D01*
G01*
X-17579Y-230020D02*
G03*
X-17579Y-230020I-492J0D01*
G01*
X123819Y-259088D02*
G03*
X123819Y-259088I-492J0D01*
G01*
D11*
X-288571Y-242709D02*
G03*
X-288571Y-242709I-500J0D01*
G01*
X40059Y-40134D02*
Y-44070D01*
X42027D01*
X42683Y-43414D01*
Y-42758D01*
X42027Y-42102D01*
X40059D01*
X42027D01*
X42683Y-41446D01*
Y-40790D01*
X42027Y-40134D01*
X40059D01*
X17100Y-44070D02*
Y-41446D01*
X18412Y-40134D01*
X19724Y-41446D01*
Y-44070D01*
Y-42102D01*
X17100D01*
X125886Y-222047D02*
X127198D01*
X126542D01*
Y-218111D01*
X125886Y-218767D01*
X131789Y-222047D02*
X129166D01*
X131789Y-219423D01*
Y-218767D01*
X131133Y-218111D01*
X129822D01*
X129166Y-218767D01*
X133101Y-218111D02*
Y-220735D01*
X134413Y-222047D01*
X135725Y-220735D01*
Y-218111D01*
X137037Y-218767D02*
X137693Y-218111D01*
X139005D01*
X139661Y-218767D01*
Y-221391D01*
X139005Y-222047D01*
X137693D01*
X137037Y-221391D01*
Y-218767D01*
X140973Y-222703D02*
X143597D01*
X147532Y-218111D02*
X144909D01*
Y-220079D01*
X146221D01*
X144909D01*
Y-222047D01*
X148844D02*
Y-218111D01*
X150156Y-219423D01*
X151468Y-218111D01*
Y-222047D01*
X155404Y-218767D02*
X154748Y-218111D01*
X153436D01*
X152780Y-218767D01*
Y-221391D01*
X153436Y-222047D01*
X154748D01*
X155404Y-221391D01*
X22309Y-254397D02*
X21653Y-253741D01*
X20341D01*
X19685Y-254397D01*
Y-255053D01*
X20341Y-255709D01*
X21653D01*
X22309Y-256365D01*
Y-257021D01*
X21653Y-257677D01*
X20341D01*
X19685Y-257021D01*
X26245Y-254397D02*
X25589Y-253741D01*
X24277D01*
X23621Y-254397D01*
Y-257021D01*
X24277Y-257677D01*
X25589D01*
X26245Y-257021D01*
X27556Y-253741D02*
Y-257677D01*
X30180D01*
X31492Y-258333D02*
X34116D01*
X35428Y-253741D02*
Y-257677D01*
Y-255709D01*
X38052D01*
Y-253741D01*
Y-257677D01*
X13647Y-200264D02*
X12991Y-199608D01*
X11680D01*
X11024Y-200264D01*
Y-200920D01*
X11680Y-201575D01*
X12991D01*
X13647Y-202231D01*
Y-202887D01*
X12991Y-203543D01*
X11680D01*
X11024Y-202887D01*
X14959Y-199608D02*
Y-203543D01*
X16927D01*
X17583Y-202887D01*
Y-200264D01*
X16927Y-199608D01*
X14959D01*
X18895Y-203543D02*
Y-200920D01*
X20207Y-199608D01*
X21519Y-200920D01*
Y-203543D01*
Y-201575D01*
X18895D01*
X22831Y-204199D02*
X25455D01*
X26767Y-199608D02*
Y-203543D01*
Y-201575D01*
X29390D01*
Y-199608D01*
Y-203543D01*
X68898Y29724D02*
Y33660D01*
X70866D01*
X71522Y33004D01*
Y31692D01*
X70866Y31036D01*
X68898D01*
X75457Y29724D02*
X72834D01*
X75457Y32348D01*
Y33004D01*
X74801Y33660D01*
X73489D01*
X72834Y33004D01*
X76769Y33660D02*
Y31036D01*
X78081Y29724D01*
X79393Y31036D01*
Y33660D01*
X83329D02*
X80705D01*
Y31692D01*
X82017Y32348D01*
X82673D01*
X83329Y31692D01*
Y30380D01*
X82673Y29724D01*
X81361D01*
X80705Y30380D01*
X23819Y-265059D02*
Y-261123D01*
X25787D01*
X26443Y-261779D01*
Y-263091D01*
X25787Y-263747D01*
X23819D01*
X27755Y-261779D02*
X28411Y-261123D01*
X29722D01*
X30378Y-261779D01*
Y-262435D01*
X29722Y-263091D01*
X29067D01*
X29722D01*
X30378Y-263747D01*
Y-264403D01*
X29722Y-265059D01*
X28411D01*
X27755Y-264403D01*
X31690Y-261123D02*
Y-263747D01*
X33002Y-265059D01*
X34314Y-263747D01*
Y-261123D01*
X35626Y-261779D02*
X36282Y-261123D01*
X37594D01*
X38250Y-261779D01*
Y-262435D01*
X37594Y-263091D01*
X36938D01*
X37594D01*
X38250Y-263747D01*
Y-264403D01*
X37594Y-265059D01*
X36282D01*
X35626Y-264403D01*
X-25000Y-202658D02*
X-28936D01*
Y-200690D01*
X-28280Y-200034D01*
X-26968D01*
X-26312Y-200690D01*
Y-202658D01*
X-28280Y-198722D02*
X-28936Y-198066D01*
Y-196754D01*
X-28280Y-196098D01*
X-27624D01*
X-26968Y-196754D01*
Y-197410D01*
Y-196754D01*
X-26312Y-196098D01*
X-25656D01*
X-25000Y-196754D01*
Y-198066D01*
X-25656Y-198722D01*
X-28936Y-194786D02*
X-26312D01*
X-25000Y-193474D01*
X-26312Y-192162D01*
X-28936D01*
X-28280Y-190850D02*
X-28936Y-190194D01*
Y-188882D01*
X-28280Y-188226D01*
X-27624D01*
X-26968Y-188882D01*
Y-189538D01*
Y-188882D01*
X-26312Y-188226D01*
X-25656D01*
X-25000Y-188882D01*
Y-190194D01*
X-25656Y-190850D01*
X-25000Y-186915D02*
X-28936D01*
X-27624Y-185603D01*
X-28936Y-184291D01*
X-25000D01*
Y-182979D02*
X-28936D01*
Y-181011D01*
X-28280Y-180355D01*
X-26968D01*
X-26312Y-181011D01*
Y-182979D01*
X173425Y-216535D02*
Y-212600D01*
X175393D01*
X176049Y-213256D01*
Y-214568D01*
X175393Y-215224D01*
X173425D01*
X177361Y-216535D02*
X178673D01*
X178017D01*
Y-212600D01*
X177361Y-213256D01*
X183265Y-216535D02*
X180641D01*
X183265Y-213912D01*
Y-213256D01*
X182609Y-212600D01*
X181297D01*
X180641Y-213256D01*
X184576Y-212600D02*
Y-215224D01*
X185888Y-216535D01*
X187200Y-215224D01*
Y-212600D01*
X188512Y-213256D02*
X189168Y-212600D01*
X190480D01*
X191136Y-213256D01*
Y-215880D01*
X190480Y-216535D01*
X189168D01*
X188512Y-215880D01*
Y-213256D01*
X102657Y31890D02*
Y35825D01*
X104625D01*
X105281Y35170D01*
Y33858D01*
X104625Y33202D01*
X102657D01*
X106593Y31890D02*
X107905D01*
X107249D01*
Y35825D01*
X106593Y35170D01*
X109873Y35825D02*
Y33202D01*
X111185Y31890D01*
X112497Y33202D01*
Y35825D01*
X116433Y31890D02*
X113809D01*
X116433Y34514D01*
Y35170D01*
X115777Y35825D01*
X114465D01*
X113809Y35170D01*
X117745Y31234D02*
X120368D01*
X124304Y35170D02*
X123648Y35825D01*
X122336D01*
X121680Y35170D01*
Y32546D01*
X122336Y31890D01*
X123648D01*
X124304Y32546D01*
X126272Y31890D02*
X127584D01*
X128240Y32546D01*
Y33858D01*
X127584Y34514D01*
X126272D01*
X125616Y33858D01*
Y32546D01*
X126272Y31890D01*
X129552Y34514D02*
Y31890D01*
Y33202D01*
X130208Y33858D01*
X130864Y34514D01*
X131520D01*
X135455Y31890D02*
X134143D01*
X133487Y32546D01*
Y33858D01*
X134143Y34514D01*
X135455D01*
X136111Y33858D01*
Y33202D01*
X133487D01*
X37402Y-189370D02*
X33466D01*
Y-187402D01*
X34122Y-186746D01*
X35434D01*
X36090Y-187402D01*
Y-189370D01*
X37402Y-185434D02*
Y-184122D01*
Y-184778D01*
X33466D01*
X34122Y-185434D01*
X33466Y-182155D02*
X36090D01*
X37402Y-180843D01*
X36090Y-179531D01*
X33466D01*
X34122Y-178219D02*
X33466Y-177563D01*
Y-176251D01*
X34122Y-175595D01*
X34778D01*
X35434Y-176251D01*
X36090Y-175595D01*
X36746D01*
X37402Y-176251D01*
Y-177563D01*
X36746Y-178219D01*
X36090D01*
X35434Y-177563D01*
X34778Y-178219D01*
X34122D01*
X35434Y-177563D02*
Y-176251D01*
X-194001Y-265902D02*
X-196001D01*
X-195001D01*
Y-270900D01*
X-196001Y-271900D01*
X-197000D01*
X-198000Y-270900D01*
X-192002Y-271900D02*
X-190003D01*
X-191002D01*
Y-265902D01*
X-192002Y-266902D01*
D12*
X-84646Y-217421D02*
G03*
X-84646Y-217421I-1181J0D01*
G01*
X-138681Y-228051D02*
G03*
X-138681Y-228051I-1181J0D01*
G01*
D13*
X-12126Y-252854D02*
G03*
X-12126Y-252854I-984J0D01*
G01*
X171400Y-110039D02*
G03*
X171400Y-110039I-984J0D01*
G01*
X-12126Y-222736D02*
G03*
X-12126Y-222736I-984J0D01*
G01*
D14*
X-208661Y30020D02*
Y30217D01*
X175098Y-315354D02*
X175295Y-315158D01*
X-281771Y-267709D02*
Y-266709D01*
Y-267709D02*
X-278071D01*
Y-265709D01*
X-288071Y-266709D02*
X-281771D01*
X-334371D02*
X-328071D01*
X-338071Y-267709D02*
Y-265709D01*
Y-267709D02*
X-334371D01*
Y-266709D01*
X-288071Y-245709D02*
X-278071D01*
X-338071D02*
X-328071D01*
X-278071Y-250709D02*
Y-245709D01*
Y-265709D02*
Y-260709D01*
X-338071Y-265709D02*
Y-260709D01*
Y-250709D02*
Y-245709D01*
D15*
X149705Y-33858D02*
X157579D01*
Y-36220D02*
Y-33858D01*
X149705Y-36220D02*
X157579D01*
X149705D02*
Y-33858D01*
X145079Y-25689D02*
X147441D01*
Y-17815D01*
X145079D02*
X147441D01*
X145079Y-25689D02*
Y-17815D01*
X164961Y-22539D02*
X167323D01*
X164961Y-30413D02*
Y-22539D01*
Y-30413D02*
X167323D01*
Y-22539D01*
X179528Y-24311D02*
X180709D01*
X179528D02*
Y-24016D01*
Y-19193D02*
X180709D01*
X179528Y-19488D02*
Y-19193D01*
X182577Y-260177D02*
Y-252815D01*
Y-260177D02*
X189939D01*
Y-252815D01*
X182577D02*
X189939D01*
X29783Y-46201D02*
Y-38839D01*
Y-46201D02*
X37146D01*
Y-38839D01*
X29783D02*
X37146D01*
X22303Y-46201D02*
Y-38839D01*
Y-46201D02*
X29665D01*
Y-38839D01*
X22303D02*
X29665D01*
X51535Y-262539D02*
Y-255177D01*
Y-262539D02*
X58898D01*
Y-255177D01*
X51535D02*
X58898D01*
X51535Y-254193D02*
Y-246831D01*
Y-254193D02*
X58898D01*
Y-246831D01*
X51535D02*
X58898D01*
X70335Y18963D02*
Y26325D01*
Y18963D02*
X77697D01*
Y26325D01*
X70335D02*
X77697D01*
X40779Y-263425D02*
Y-256063D01*
Y-263425D02*
X48141D01*
Y-256063D01*
X40779D02*
X48141D01*
X-25728Y-212047D02*
Y-204685D01*
Y-212047D02*
X-18366D01*
Y-204685D01*
X-25728D02*
X-18366D01*
X141299Y-215689D02*
Y-208327D01*
Y-215689D02*
X148661D01*
Y-208327D01*
X141299D02*
X148661D01*
X164035Y-216575D02*
Y-209213D01*
Y-216575D02*
X171398D01*
Y-209213D01*
X164035D02*
X171398D01*
X111261Y21220D02*
Y28583D01*
Y21220D02*
X118624D01*
Y28583D01*
X111261D02*
X118624D01*
X24319Y-213581D02*
Y-206219D01*
Y-213581D02*
X31681D01*
Y-206219D01*
X24319D02*
X31681D01*
X25059Y-251614D02*
Y-244252D01*
Y-251614D02*
X32421D01*
Y-244252D01*
X25059D02*
X32421D01*
X31457Y-198760D02*
Y-191398D01*
Y-198760D02*
X38819D01*
Y-191398D01*
X31457D02*
X38819D01*
X-200000Y-267323D02*
Y-244882D01*
X-268504D02*
X-200000D01*
X-268504Y-267323D02*
Y-244882D01*
Y-267323D02*
X-200000D01*
X125886Y-244291D02*
X132579D01*
X125886Y-249410D02*
X132579D01*
X127264D02*
Y-244291D01*
X128051Y-249410D02*
Y-244291D01*
X128839Y-249410D02*
Y-244291D01*
X177461Y-165260D02*
Y-157772D01*
X161122Y-165260D02*
Y-157772D01*
X176768Y-68693D02*
Y-61204D01*
X160430Y-68693D02*
Y-61204D01*
X155512Y10433D02*
X160039D01*
X145669Y-14173D02*
X161811D01*
X145669D02*
Y1969D01*
X161811D01*
Y-14173D02*
Y1969D01*
X180295Y1571D02*
Y9059D01*
X163957Y1571D02*
Y9059D01*
X-1772Y17913D02*
X12795D01*
X-1772Y29724D02*
X12795D01*
X-188349Y-264469D02*
Y-256594D01*
X-185987D01*
Y-264469D02*
Y-256594D01*
X-188349Y-264469D02*
X-185987D01*
X-188349Y-253543D02*
Y-245669D01*
X-185987D01*
Y-253543D02*
Y-245669D01*
X-188349Y-253543D02*
X-185987D01*
X74409Y-257874D02*
X79528D01*
Y-244094D01*
X74409Y-257874D02*
Y-244094D01*
X79528D01*
X34055Y-235827D02*
X39173D01*
Y-222047D01*
X34055Y-235827D02*
Y-222047D01*
X39173D01*
X-58760Y3571D02*
X-28839D01*
X-58760Y21681D02*
X-28839D01*
Y19516D02*
Y21681D01*
Y3571D02*
Y5736D01*
X-58760Y3571D02*
Y5736D01*
Y19516D02*
Y21681D01*
X-2362Y15748D02*
X27559D01*
X-2362Y-2362D02*
X27559D01*
X-2362D02*
Y-197D01*
Y13583D02*
Y15748D01*
X27559Y13583D02*
Y15748D01*
Y-2362D02*
Y-197D01*
X-27854Y-25394D02*
X2067D01*
X-27854Y-7283D02*
X2067D01*
Y-9449D02*
Y-7283D01*
Y-25394D02*
Y-23228D01*
X-27854Y-25394D02*
Y-23228D01*
Y-9449D02*
Y-7283D01*
X141831Y-259350D02*
X148524D01*
X141831Y-264469D02*
X148524D01*
X143209D02*
Y-259350D01*
X143996Y-264469D02*
Y-259350D01*
X144783Y-264469D02*
Y-259350D01*
X-20472Y-192520D02*
X-16535Y-196457D01*
X-20472D02*
X30709D01*
X-20472Y-157087D02*
X30709D01*
X-20472Y-196457D02*
Y-157087D01*
X30709Y-196457D02*
Y-157087D01*
X192531Y-267065D02*
X239386D01*
X192531Y-302498D02*
X239386D01*
X192531D02*
Y-295608D01*
Y-274939D02*
Y-267065D01*
X193126Y-33246D02*
X237417Y-33247D01*
X193126Y-146160D02*
X237417D01*
X193126D02*
Y-33246D01*
X78885Y4930D02*
X79885Y3930D01*
X78885Y-3357D02*
Y4930D01*
X78385Y-214570D02*
Y-200970D01*
Y-214570D02*
X79885Y-213070D01*
Y-202964D01*
Y3930D02*
X94335D01*
Y7930D01*
X110646D01*
X120427Y3930D02*
X125985D01*
X126985Y4930D01*
X120436D02*
X126985D01*
X92835Y9430D02*
X112524D01*
X92835Y4930D02*
Y9430D01*
X78885Y4930D02*
X92835D01*
X76885Y7230D02*
X91735D01*
Y10530D01*
X114135D01*
Y9930D02*
Y10530D01*
X119718Y7230D02*
X128985D01*
Y-215670D02*
Y7230D01*
X111585Y-215670D02*
X128985D01*
X111585D02*
Y-212370D01*
X107710D02*
X111585D01*
X94285Y-215670D02*
Y-212370D01*
X76885Y-215670D02*
X94285D01*
X76885D02*
Y7230D01*
X126985Y-3357D02*
Y4930D01*
X125985Y-213070D02*
Y-202964D01*
X114185Y-213070D02*
X125985D01*
X114185D02*
Y-209070D01*
X108419D02*
X114185D01*
X91685Y-213070D02*
Y-209070D01*
X79885Y-213070D02*
X91685D01*
X78385Y-214570D02*
X93185D01*
Y-210070D01*
X97441D01*
X112685Y-214570D02*
Y-210070D01*
Y-214570D02*
X127485D01*
Y-200970D01*
X91685Y-213070D02*
X93185Y-214570D01*
X91685Y-209070D02*
X93185Y-210070D01*
X112685D02*
X114185Y-209070D01*
X112685Y-214570D02*
X114185Y-213070D01*
X125985D02*
X127485Y-214570D01*
X92835Y9430D02*
X94335Y7930D01*
X92835Y4930D02*
X94335Y3930D01*
X108428Y-210070D02*
X112685D01*
X91685Y-209070D02*
X97450D01*
X94285Y-212370D02*
X98159D01*
X191157Y58526D02*
Y66400D01*
Y30966D02*
Y37856D01*
Y30966D02*
X239386D01*
X191157Y66400D02*
X239386D01*
X192889Y-32774D02*
X238480Y-32774D01*
X192889Y-32774D02*
Y30533D01*
X238480Y30533D01*
X-89764Y-257579D02*
Y-213484D01*
X-45669Y-257579D02*
Y-213484D01*
X-89764D02*
X-45669D01*
X-89764Y-257579D02*
X-45669D01*
X-143799Y-265453D02*
Y-224114D01*
X-119980Y-265453D02*
Y-224114D01*
X-143799D02*
X-119980D01*
X-143799Y-265453D02*
X-119980D01*
X17598Y-256791D02*
Y-244587D01*
X-17047Y-256791D02*
Y-244587D01*
X17598D01*
X-17047Y-256791D02*
X17598D01*
X38386Y-5807D02*
Y1673D01*
X32087Y-5807D02*
Y1673D01*
X160039Y-242130D02*
Y-234642D01*
X176378Y-242130D02*
Y-234642D01*
X136319Y12598D02*
Y16535D01*
X142618Y12598D02*
Y16535D01*
X8169Y-31004D02*
X15650D01*
X8169Y-37303D02*
X15650D01*
X137303Y-1378D02*
Y3150D01*
Y-9547D02*
Y-5020D01*
X147343Y10433D02*
X151870D01*
X-24606Y-3051D02*
Y26870D01*
X-6496Y-3051D02*
Y26870D01*
X-8661Y-3051D02*
X-6496D01*
X-24606D02*
X-22441D01*
X-24606Y26870D02*
X-22441D01*
X-8661D02*
X-6496D01*
X131102Y-175984D02*
X135630D01*
X118269Y-225394D02*
X122600D01*
X118269Y-231693D02*
X122600D01*
X118307Y-234744D02*
X122638D01*
X118307Y-241043D02*
X122638D01*
X56890Y-217913D02*
Y-213583D01*
X63189Y-217913D02*
Y-213583D01*
X128839Y-257010D02*
Y-251892D01*
X128051Y-257010D02*
Y-251892D01*
X127264Y-257010D02*
Y-251892D01*
X125886Y-257010D02*
X132579D01*
X125886Y-251892D02*
X132579D01*
X44882Y-167126D02*
X48425D01*
X44882Y-179331D02*
X48425D01*
X44882D02*
Y-167126D01*
X48425Y-179331D02*
Y-167126D01*
X-171273Y-262268D02*
Y-250851D01*
X-167927D01*
Y-262268D02*
Y-250851D01*
X-171273Y-262268D02*
X-167927D01*
X47736Y-5807D02*
Y1673D01*
X41437Y-5807D02*
Y1673D01*
X131890Y-236713D02*
Y-232776D01*
X138189Y-236713D02*
Y-232776D01*
X162795Y-225394D02*
Y-220866D01*
X149606Y-152854D02*
X154134D01*
X141437Y-152953D02*
X145965D01*
X131496Y-159941D02*
Y-156004D01*
X137795Y-159941D02*
Y-156004D01*
X162697Y-148425D02*
Y-143898D01*
X151086Y-56428D02*
X155614D01*
X143008Y-56428D02*
X147536D01*
X149213Y-201476D02*
X153543D01*
X164071Y-51802D02*
Y-47275D01*
X178543Y23425D02*
X183071D01*
X167717D02*
X172244D01*
X45669Y-157776D02*
Y-152264D01*
X65158Y-157776D02*
Y-152264D01*
X62697Y-27432D02*
X68209D01*
X53445D02*
X58957D01*
X34941D02*
X40453D01*
X25689D02*
X31201D01*
X44193D02*
X49705D01*
X158071Y-255512D02*
Y-239370D01*
X141929D02*
X158071D01*
X141929Y-255512D02*
Y-239370D01*
Y-255512D02*
X158071D01*
X158760Y-177461D02*
Y-161319D01*
X142618D02*
X158760D01*
X142618Y-177461D02*
Y-161319D01*
Y-177461D02*
X158760D01*
X133067Y-58722D02*
X139367D01*
X158461Y-81034D02*
Y-64893D01*
X142319D02*
X158461D01*
X142319Y-81034D02*
Y-64893D01*
Y-81034D02*
X158461D01*
X149603Y-230986D02*
X154130D01*
X141630D02*
X146157D01*
X136909Y-207283D02*
X140059D01*
Y-195866D01*
X136909D02*
X140059D01*
X136909Y-207283D02*
Y-195866D01*
X193125Y-146632D02*
X237417Y-146633D01*
X193125Y-259545D02*
X237417D01*
X193125D02*
Y-146632D01*
X156890Y-141732D02*
X165945D01*
X155709Y-140551D02*
X156890Y-141732D01*
X155709Y-140551D02*
Y-139370D01*
X155709Y-129921D02*
Y-128740D01*
X156890Y-127559D01*
X165945D01*
X136516Y-127756D02*
X145571D01*
X146752Y-128937D01*
Y-130118D02*
Y-128937D01*
X146752Y-140748D02*
Y-139567D01*
X145571Y-141929D02*
X146752Y-140748D01*
X136516Y-141929D02*
X145571D01*
X137598Y-82677D02*
X146653D01*
X147835Y-83858D01*
Y-85039D02*
Y-83858D01*
X147835Y-95669D02*
Y-94488D01*
X146653Y-96850D02*
X147835Y-95669D01*
X137598Y-96850D02*
X146653D01*
X153150Y-96949D02*
X162205D01*
X151969Y-95768D02*
X153150Y-96949D01*
X151969Y-95768D02*
Y-94587D01*
X151969Y-85138D02*
Y-83957D01*
X153150Y-82776D01*
X162205D01*
X139707Y-118307D02*
Y-106103D01*
X174353Y-118307D02*
Y-106103D01*
X139707Y-118307D02*
X174353D01*
X139707Y-106103D02*
X174353D01*
X-19685Y-141732D02*
X70866D01*
Y-51181D01*
X-19685D02*
X70866D01*
X-19685Y-141732D02*
Y-51181D01*
X112697Y-257972D02*
Y-250492D01*
X118996Y-257972D02*
Y-250492D01*
X67716Y-233169D02*
X75197D01*
X67716Y-226870D02*
X75197D01*
X139764Y-192815D02*
X147244D01*
X139764Y-186516D02*
X147244D01*
X163976Y-187894D02*
X176181D01*
X163976Y-207579D02*
X176181D01*
X163976D02*
Y-187894D01*
X176181Y-207579D02*
Y-187894D01*
X60433Y18307D02*
X64961D01*
X31791Y12795D02*
Y27362D01*
X43602Y12795D02*
Y27362D01*
X-27362Y-39567D02*
X-12795D01*
X-27362Y-27756D02*
X-12795D01*
X50394Y-10728D02*
Y3839D01*
X62205Y-10728D02*
Y3839D01*
X8268Y-16339D02*
X22835D01*
X8268Y-4528D02*
X22835D01*
X51378Y-198462D02*
Y-183896D01*
X39567Y-198462D02*
Y-183896D01*
X45866Y12795D02*
Y27362D01*
X57677Y12795D02*
Y27362D01*
X65354Y-198327D02*
Y-183760D01*
X53543Y-198327D02*
Y-183760D01*
X17598Y-226673D02*
Y-214469D01*
X-17047Y-226673D02*
Y-214469D01*
X17598D01*
X-17047Y-226673D02*
X17598D01*
X128839Y-264600D02*
Y-259482D01*
X128051Y-264600D02*
Y-259482D01*
X127264Y-264600D02*
Y-259482D01*
X125886Y-264600D02*
X132579D01*
X125886Y-259482D02*
X132579D01*
D16*
X-260827Y-262205D02*
X-259494D01*
X-260160D01*
Y-258206D01*
X-260827Y-258873D01*
X-257494D02*
X-256828Y-258206D01*
X-255495D01*
X-254829Y-258873D01*
Y-261538D01*
X-255495Y-262205D01*
X-256828D01*
X-257494Y-261538D01*
Y-258873D01*
X-210818Y-262106D02*
X-213484D01*
X-210818Y-259440D01*
Y-258774D01*
X-211485Y-258108D01*
X-212818D01*
X-213484Y-258774D01*
X-213386Y-253740D02*
X-212053D01*
X-212719D01*
Y-249741D01*
X-213386Y-250408D01*
X-257087Y-253271D02*
X-256420Y-253937D01*
X-255087D01*
X-254421Y-253271D01*
Y-250605D01*
X-255087Y-249938D01*
X-256420D01*
X-257087Y-250605D01*
Y-251271D01*
X-256420Y-251938D01*
X-254421D01*
D17*
X118503Y-210728D02*
Y-206006D01*
X116142Y-208367D01*
X119290D01*
X120865Y-206793D02*
X121652Y-206006D01*
X123226D01*
X124013Y-206793D01*
Y-209941D01*
X123226Y-210728D01*
X121652D01*
X120865Y-209941D01*
Y-206793D01*
D18*
X121161Y-2264D02*
X122473D01*
X121817D01*
Y1672D01*
X121161Y1016D01*
D19*
X-234252Y-246457D02*
D03*
M02*
