G04*
G04 #@! TF.GenerationSoftware,Altium Limited,Altium Designer,19.1.7 (138)*
G04*
G04 Layer_Color=16711935*
%FSLAX25Y25*%
%MOIN*%
G70*
G01*
G75*
%ADD13C,0.01968*%
%ADD158C,0.01575*%
D13*
X231512Y-314567D02*
X239386Y-306693D01*
X-378528Y-277756D02*
X-340536D01*
Y-314567D02*
Y-277756D01*
X239386Y-306693D02*
Y71260D01*
X231512Y79134D02*
X239386Y71260D01*
X-390536Y79134D02*
X231512D01*
X-390536Y-265748D02*
Y79134D01*
Y-265748D02*
X-378528Y-277756D01*
X-340536Y-314567D02*
X231512D01*
D158*
X-381890Y-232283D02*
G03*
X-374016Y-240158I7874J-0D01*
G01*
Y35433D02*
G03*
X-381890Y27559I-0J-7874D01*
G01*
X-165354D02*
G03*
X-173228Y35433I-7874J0D01*
G01*
X-165354Y7874D02*
G03*
X-157480Y-0I7874J0D01*
G01*
X-31496Y-7874D02*
G03*
X-39370Y0I-7874J0D01*
G01*
X-39370Y-199606D02*
G03*
X-31496Y-191732I-0J7874D01*
G01*
X-157479Y-199606D02*
G03*
X-165354Y-207480I-1J-7875D01*
G01*
X-173228Y-240158D02*
G03*
X-165354Y-233071I394J7480D01*
G01*
X-381890Y-232283D02*
Y27559D01*
X-374016Y-240158D02*
X-173228D01*
X-374016Y35433D02*
X-173228Y35433D01*
X-165354Y7874D02*
Y27559D01*
X-157480Y-0D02*
X-39370Y0D01*
X-31496Y-191732D02*
Y-7874D01*
X-157479Y-199606D02*
X-39370D01*
X-165354Y-233071D02*
Y-223604D01*
Y-207480D01*
M02*
