G04*
G04 #@! TF.GenerationSoftware,Altium Limited,Altium Designer,19.1.7 (138)*
G04*
G04 Layer_Color=8388736*
%FSLAX25Y25*%
%MOIN*%
G70*
G01*
G75*
%ADD75R,5.31201X0.38133*%
%ADD76R,5.81890X0.40128*%
%ADD77R,0.02375X0.04540*%
%ADD78R,0.04147X0.02965*%
%ADD79R,0.03162X0.02178*%
%ADD80C,0.07874*%
%ADD81R,0.05800X0.05800*%
%ADD82R,0.02375X0.02572*%
%ADD83R,0.03241X0.03241*%
%ADD84R,0.03084X0.03241*%
%ADD85R,0.03241X0.03241*%
%ADD86R,0.04343X0.02769*%
%ADD87R,0.04737X0.04737*%
%ADD88O,0.01784X0.06312*%
%ADD89R,0.12414X0.07729*%
%ADD90R,0.06509X0.05328*%
%ADD91R,0.03241X0.03084*%
%ADD92R,0.04658X0.15367*%
%ADD93C,0.03044*%
%ADD94R,0.07887X0.09658*%
%ADD95R,0.04540X0.02375*%
%ADD96R,0.04540X0.04737*%
%ADD97R,0.04540X0.04540*%
%ADD98R,0.05918X0.06883*%
%ADD99R,0.09265X0.07493*%
%ADD100R,0.02572X0.02375*%
%ADD101R,0.04540X0.04540*%
%ADD102R,0.03700X0.11800*%
%ADD103R,0.10052X0.10446*%
%ADD104C,0.02375*%
%ADD105C,0.03320*%
%ADD106R,0.06509X0.01981*%
%ADD107R,0.01981X0.06509*%
%ADD108O,0.09855X0.03162*%
%ADD109R,0.03162X0.06902*%
%ADD110R,0.07887X0.06312*%
%ADD111R,0.08083X0.05721*%
%ADD112R,0.06312X0.07887*%
%ADD113R,0.05328X0.06509*%
%ADD114R,0.10446X0.10052*%
%ADD115R,0.04540X0.04737*%
%ADD116R,0.06312X0.04934*%
%ADD117R,0.05328X0.07887*%
%ADD118R,0.07887X0.05328*%
%ADD119R,0.04737X0.04540*%
%ADD120R,0.04737X0.04737*%
%ADD121R,0.04934X0.03162*%
%ADD122R,0.05131X0.03162*%
%ADD123R,0.05131X0.06509*%
%ADD124R,0.06312X0.04934*%
%ADD125R,0.06509X0.05131*%
%ADD126R,0.07887X0.05721*%
%ADD127R,0.05721X0.07887*%
%ADD128R,0.08280X0.07099*%
%ADD129R,0.05721X0.03162*%
%ADD130R,0.05524X0.05524*%
%ADD131R,0.06706X0.07099*%
%ADD132R,0.06902X0.03162*%
%ADD133R,0.09658X0.07887*%
%ADD134C,0.16548*%
%ADD135C,0.17926*%
%ADD136C,0.04147*%
%ADD137C,0.05918*%
%ADD138R,0.05918X0.05918*%
%ADD139C,0.06750*%
%ADD140C,0.11430*%
%ADD141C,0.04540*%
%ADD142R,0.04147X0.04147*%
%ADD143C,0.05118*%
%ADD144C,0.20485*%
%ADD145C,0.01981*%
%ADD146C,0.03162*%
D75*
X-75443Y-296386D02*
D03*
D76*
X-100098Y59168D02*
D03*
D77*
X156201Y-39370D02*
D03*
X153642D02*
D03*
X151083D02*
D03*
Y-30709D02*
D03*
X153642D02*
D03*
X156201D02*
D03*
D78*
X142126Y-19193D02*
D03*
Y-24311D02*
D03*
X150394Y-21752D02*
D03*
X170276Y-29035D02*
D03*
Y-23917D02*
D03*
X162008Y-26476D02*
D03*
D79*
X183366Y-23327D02*
D03*
Y-20177D02*
D03*
X179035Y-21752D02*
D03*
D80*
X-382776Y70768D02*
D03*
X-362894Y-261319D02*
D03*
X226400Y71300D02*
D03*
X225500Y-307500D02*
D03*
D81*
X186258Y-256496D02*
D03*
X33465Y-42520D02*
D03*
X25984D02*
D03*
X55216Y-258858D02*
D03*
Y-250512D02*
D03*
X74016Y22644D02*
D03*
X44460Y-259744D02*
D03*
X-22047Y-208366D02*
D03*
X144980Y-212008D02*
D03*
X167717Y-212894D02*
D03*
X114943Y24902D02*
D03*
X28000Y-209900D02*
D03*
X28740Y-247933D02*
D03*
X35138Y-195079D02*
D03*
D82*
X28248Y-7579D02*
D03*
Y-4823D02*
D03*
X-157187Y-229512D02*
D03*
Y-232268D02*
D03*
X44943Y-248369D02*
D03*
Y-251125D02*
D03*
X98130Y-245177D02*
D03*
Y-247933D02*
D03*
X101083Y-245177D02*
D03*
Y-247933D02*
D03*
D83*
X-21358Y-240846D02*
D03*
Y-237303D02*
D03*
X180175Y-264173D02*
D03*
Y-260630D02*
D03*
X-106102Y-259646D02*
D03*
Y-256102D02*
D03*
X182972Y3642D02*
D03*
Y7185D02*
D03*
X165256Y-11614D02*
D03*
Y-8071D02*
D03*
Y-18996D02*
D03*
Y-15453D02*
D03*
X-159265Y-256757D02*
D03*
Y-260300D02*
D03*
D84*
X38996Y-161614D02*
D03*
X42697D02*
D03*
X155098Y-183071D02*
D03*
X151398D02*
D03*
X180689Y-184646D02*
D03*
X176988D02*
D03*
X61496Y-203248D02*
D03*
X57795D02*
D03*
X182756Y-84842D02*
D03*
X179055D02*
D03*
X183146Y-68701D02*
D03*
X179445D02*
D03*
X96142Y-251575D02*
D03*
X92441D02*
D03*
X96142Y-263386D02*
D03*
X92441D02*
D03*
X178937Y-222441D02*
D03*
X182638D02*
D03*
X178850Y-233235D02*
D03*
X182550D02*
D03*
X179350Y-50200D02*
D03*
X183050D02*
D03*
X179465Y-64862D02*
D03*
X183166D02*
D03*
X179350Y-54000D02*
D03*
X183050D02*
D03*
X157697Y-19007D02*
D03*
X161398D02*
D03*
X50020Y-163522D02*
D03*
X53721D02*
D03*
X62224Y-15748D02*
D03*
X65925D02*
D03*
X58465D02*
D03*
X54764D02*
D03*
X39882Y-15748D02*
D03*
X43583D02*
D03*
X36201D02*
D03*
X32500D02*
D03*
X50965Y-15748D02*
D03*
X47264D02*
D03*
X182559Y-244094D02*
D03*
X178858D02*
D03*
Y-247933D02*
D03*
X182559D02*
D03*
X183543Y-167126D02*
D03*
X179842D02*
D03*
Y-163287D02*
D03*
X183543D02*
D03*
X179750Y-146600D02*
D03*
X183450D02*
D03*
X179750Y-150400D02*
D03*
X183450D02*
D03*
X178032Y-180807D02*
D03*
X174331D02*
D03*
D85*
X-62598Y-203445D02*
D03*
X-59055D02*
D03*
X162323Y-184744D02*
D03*
X158780D02*
D03*
X136713Y-210630D02*
D03*
X133169D02*
D03*
X166535Y-251870D02*
D03*
X162992D02*
D03*
X179524Y-72539D02*
D03*
X183067D02*
D03*
X166729Y-78248D02*
D03*
X163186D02*
D03*
X92520Y-259449D02*
D03*
X96063D02*
D03*
X92520Y-255512D02*
D03*
X96063D02*
D03*
X52165Y-234449D02*
D03*
X55709D02*
D03*
X52165Y-230512D02*
D03*
X55709D02*
D03*
X182480Y-226279D02*
D03*
X178937D02*
D03*
X182969Y-60728D02*
D03*
X179426D02*
D03*
X175295Y-251772D02*
D03*
X178839D02*
D03*
X-168025Y-247406D02*
D03*
X-164482D02*
D03*
X-30709Y-257283D02*
D03*
X-34252D02*
D03*
X60827Y-178445D02*
D03*
X57284D02*
D03*
X183465Y-170965D02*
D03*
X179921D02*
D03*
X167421Y-174705D02*
D03*
X163878D02*
D03*
X183465Y-157382D02*
D03*
X179921D02*
D03*
D86*
X124114Y-246850D02*
D03*
X134350D02*
D03*
X140059Y-261910D02*
D03*
X150295D02*
D03*
X134350Y-254451D02*
D03*
X124114D02*
D03*
X134350Y-262041D02*
D03*
X124114D02*
D03*
D87*
X8465Y-20669D02*
D03*
Y-26575D02*
D03*
X14567Y-20669D02*
D03*
Y-26575D02*
D03*
X20472Y-20669D02*
D03*
Y-26575D02*
D03*
X-101181Y-256102D02*
D03*
Y-262008D02*
D03*
X-34154Y-209055D02*
D03*
Y-203150D02*
D03*
D88*
X176181Y-153445D02*
D03*
X174213D02*
D03*
X172244D02*
D03*
X170276D02*
D03*
X168307D02*
D03*
X166339D02*
D03*
X164370D02*
D03*
X162402D02*
D03*
X176181Y-169587D02*
D03*
X174213D02*
D03*
X172244D02*
D03*
X170276D02*
D03*
X168307D02*
D03*
X166339D02*
D03*
X164370D02*
D03*
X162402D02*
D03*
X175489Y-56878D02*
D03*
X173520D02*
D03*
X171552D02*
D03*
X169583D02*
D03*
X167615D02*
D03*
X165646D02*
D03*
X163678D02*
D03*
X161709D02*
D03*
X175489Y-73019D02*
D03*
X173520D02*
D03*
X171552D02*
D03*
X169583D02*
D03*
X167615D02*
D03*
X165646D02*
D03*
X163678D02*
D03*
X161709D02*
D03*
X179016Y13386D02*
D03*
X177047D02*
D03*
X175079D02*
D03*
X173110D02*
D03*
X171142D02*
D03*
X169173D02*
D03*
X167205D02*
D03*
X165236D02*
D03*
X179016Y-2756D02*
D03*
X177047D02*
D03*
X175079D02*
D03*
X173110D02*
D03*
X171142D02*
D03*
X169173D02*
D03*
X167205D02*
D03*
X165236D02*
D03*
X161319Y-246457D02*
D03*
X163287D02*
D03*
X165256D02*
D03*
X167224D02*
D03*
X169193D02*
D03*
X171161D02*
D03*
X173130D02*
D03*
X175098D02*
D03*
X161319Y-230315D02*
D03*
X163287D02*
D03*
X165256D02*
D03*
X167224D02*
D03*
X169193D02*
D03*
X171161D02*
D03*
X173130D02*
D03*
X175098D02*
D03*
D89*
X169291Y-161516D02*
D03*
X168599Y-64948D02*
D03*
X172126Y5315D02*
D03*
X168209Y-238386D02*
D03*
D90*
X157776Y6890D02*
D03*
Y13976D02*
D03*
X149606Y6890D02*
D03*
Y13976D02*
D03*
X151870Y-156398D02*
D03*
Y-149311D02*
D03*
X143701Y-156496D02*
D03*
Y-149409D02*
D03*
X153350Y-59971D02*
D03*
Y-52885D02*
D03*
X145272Y-59971D02*
D03*
Y-52885D02*
D03*
X151866Y-234530D02*
D03*
Y-227443D02*
D03*
X143894Y-234530D02*
D03*
Y-227443D02*
D03*
D91*
X176349Y-260551D02*
D03*
Y-264252D02*
D03*
X52362Y-238504D02*
D03*
Y-242205D02*
D03*
X41507Y-252146D02*
D03*
Y-248445D02*
D03*
X103740Y-259370D02*
D03*
Y-263071D02*
D03*
Y-255591D02*
D03*
Y-251890D02*
D03*
X58760Y-241910D02*
D03*
Y-238209D02*
D03*
X99902Y-263071D02*
D03*
Y-259370D02*
D03*
Y-251890D02*
D03*
Y-255591D02*
D03*
X61221Y-247953D02*
D03*
Y-251654D02*
D03*
X20700Y-215750D02*
D03*
Y-212050D02*
D03*
X52362Y-222756D02*
D03*
Y-226457D02*
D03*
X20669Y-225602D02*
D03*
Y-229303D02*
D03*
X182968Y-3917D02*
D03*
Y-216D02*
D03*
Y-7598D02*
D03*
Y-11299D02*
D03*
D92*
X158405Y-6102D02*
D03*
X149075D02*
D03*
X145335Y-247441D02*
D03*
X154665D02*
D03*
X146024Y-169390D02*
D03*
X155354D02*
D03*
X145725Y-72964D02*
D03*
X155055D02*
D03*
D93*
X43307Y-114173D02*
D03*
Y-110236D02*
D03*
X-15748Y-55118D02*
D03*
X-11811D02*
D03*
X-7874D02*
D03*
X-3937D02*
D03*
X0D02*
D03*
X3937D02*
D03*
X7874D02*
D03*
X11811D02*
D03*
X15748D02*
D03*
X19685D02*
D03*
X23622D02*
D03*
X27559D02*
D03*
X31496D02*
D03*
X35433D02*
D03*
X39370D02*
D03*
X43307D02*
D03*
X47244D02*
D03*
X51181D02*
D03*
X55118D02*
D03*
X59055D02*
D03*
X62992D02*
D03*
X66929D02*
D03*
X-15748Y-59055D02*
D03*
X-11811D02*
D03*
X-7874D02*
D03*
X-3937D02*
D03*
X0D02*
D03*
X3937D02*
D03*
X7874D02*
D03*
X11811D02*
D03*
X15748D02*
D03*
X19685D02*
D03*
X23622D02*
D03*
X27559D02*
D03*
X31496D02*
D03*
X35433D02*
D03*
X39370D02*
D03*
X43307D02*
D03*
X47244D02*
D03*
X51181D02*
D03*
X55118D02*
D03*
X59055D02*
D03*
X62992D02*
D03*
X66929D02*
D03*
X-15748Y-62992D02*
D03*
X-11811D02*
D03*
X-7874D02*
D03*
X-3937D02*
D03*
X0D02*
D03*
X3937D02*
D03*
X7874D02*
D03*
X11811D02*
D03*
X15748D02*
D03*
X19685D02*
D03*
X23622D02*
D03*
X27559D02*
D03*
X31496D02*
D03*
X35433D02*
D03*
X39370D02*
D03*
X43307D02*
D03*
X47244D02*
D03*
X51181D02*
D03*
X55118D02*
D03*
X59055D02*
D03*
X62992D02*
D03*
X66929D02*
D03*
X-15748Y-66929D02*
D03*
X-11811D02*
D03*
X-7874D02*
D03*
X-3937D02*
D03*
X0D02*
D03*
X3937D02*
D03*
X7874D02*
D03*
X11811D02*
D03*
X15748D02*
D03*
X19685D02*
D03*
X23622D02*
D03*
X27559D02*
D03*
X31496D02*
D03*
X35433D02*
D03*
X39370D02*
D03*
X43307D02*
D03*
X47244D02*
D03*
X51181D02*
D03*
X55118D02*
D03*
X59055D02*
D03*
X62992D02*
D03*
X66929D02*
D03*
X-15748Y-70866D02*
D03*
X-11811D02*
D03*
X-7874D02*
D03*
X-3937D02*
D03*
X0D02*
D03*
X3937D02*
D03*
X7874D02*
D03*
X11811D02*
D03*
X15748D02*
D03*
X19685D02*
D03*
X23622D02*
D03*
X27559D02*
D03*
X31496D02*
D03*
X35433D02*
D03*
X39370D02*
D03*
X43307D02*
D03*
X47244D02*
D03*
X51181D02*
D03*
X55118D02*
D03*
X59055D02*
D03*
X62992D02*
D03*
X66929D02*
D03*
X-15748Y-74803D02*
D03*
X-11811D02*
D03*
X-7874D02*
D03*
X-3937D02*
D03*
X0D02*
D03*
X3937D02*
D03*
X7874D02*
D03*
X11811D02*
D03*
X15748D02*
D03*
X19685D02*
D03*
X23622D02*
D03*
X27559D02*
D03*
X31496D02*
D03*
X35433D02*
D03*
X39370D02*
D03*
X43307D02*
D03*
X47244D02*
D03*
X51181D02*
D03*
X55118D02*
D03*
X59055D02*
D03*
X62992D02*
D03*
X66929D02*
D03*
X-15748Y-78740D02*
D03*
X-11811D02*
D03*
X-7874D02*
D03*
X-3937D02*
D03*
X0D02*
D03*
X3937D02*
D03*
X7874D02*
D03*
X11811D02*
D03*
X15748D02*
D03*
X19685D02*
D03*
X23622D02*
D03*
X27559D02*
D03*
X31496D02*
D03*
X35433D02*
D03*
X39370D02*
D03*
X43307D02*
D03*
X47244D02*
D03*
X51181D02*
D03*
X55118D02*
D03*
X59055D02*
D03*
X62992D02*
D03*
X66929D02*
D03*
X-15748Y-82677D02*
D03*
X-11811D02*
D03*
X-7874D02*
D03*
X-3937D02*
D03*
X0D02*
D03*
X3937D02*
D03*
X7874D02*
D03*
X11811D02*
D03*
X15748D02*
D03*
X19685D02*
D03*
X23622D02*
D03*
X27559D02*
D03*
X31496D02*
D03*
X35433D02*
D03*
X39370D02*
D03*
X43307D02*
D03*
X47244D02*
D03*
X51181D02*
D03*
X55118D02*
D03*
X59055D02*
D03*
X62992D02*
D03*
X66929D02*
D03*
X-15748Y-86614D02*
D03*
X-11811D02*
D03*
X-7874D02*
D03*
X-3937D02*
D03*
X0D02*
D03*
X3937D02*
D03*
X7874D02*
D03*
X11811D02*
D03*
X15748D02*
D03*
X19685D02*
D03*
X23622D02*
D03*
X27559D02*
D03*
X31496D02*
D03*
X35433D02*
D03*
X39370D02*
D03*
X43307D02*
D03*
X47244D02*
D03*
X51181D02*
D03*
X55118D02*
D03*
X59055D02*
D03*
X62992D02*
D03*
X66929D02*
D03*
X-15748Y-90551D02*
D03*
X-11811D02*
D03*
X-7874D02*
D03*
X-3937D02*
D03*
X0D02*
D03*
X3937D02*
D03*
X7874D02*
D03*
X11811D02*
D03*
X15748D02*
D03*
X19685D02*
D03*
X23622D02*
D03*
X27559D02*
D03*
X31496D02*
D03*
X35433D02*
D03*
X39370D02*
D03*
X43307D02*
D03*
X47244D02*
D03*
X51181D02*
D03*
X55118D02*
D03*
X59055D02*
D03*
X62992D02*
D03*
X66929D02*
D03*
X-15748Y-94488D02*
D03*
X-11811D02*
D03*
X-7874D02*
D03*
X-3937D02*
D03*
X0D02*
D03*
X3937D02*
D03*
X7874D02*
D03*
X11811D02*
D03*
X15748D02*
D03*
X19685D02*
D03*
X23622D02*
D03*
X27559D02*
D03*
X31496D02*
D03*
X35433D02*
D03*
X39370D02*
D03*
X43307D02*
D03*
X47244D02*
D03*
X51181D02*
D03*
X55118D02*
D03*
X59055D02*
D03*
X62992D02*
D03*
X66929D02*
D03*
X-15748Y-98425D02*
D03*
X-11811D02*
D03*
X-7874D02*
D03*
X-3937D02*
D03*
X0D02*
D03*
X3937D02*
D03*
X7874D02*
D03*
X11811D02*
D03*
X15748D02*
D03*
X19685D02*
D03*
X23622D02*
D03*
X27559D02*
D03*
X31496D02*
D03*
X35433D02*
D03*
X39370D02*
D03*
X43307D02*
D03*
X47244D02*
D03*
X51181D02*
D03*
X55118D02*
D03*
X59055D02*
D03*
X62992D02*
D03*
X66929D02*
D03*
X-15748Y-102362D02*
D03*
X-11811D02*
D03*
X-7874D02*
D03*
X-3937D02*
D03*
X0D02*
D03*
X3937D02*
D03*
X7874D02*
D03*
X11811D02*
D03*
X15748D02*
D03*
X19685D02*
D03*
X23622D02*
D03*
X27559D02*
D03*
X31496D02*
D03*
X35433D02*
D03*
X39370D02*
D03*
X43307D02*
D03*
X47244D02*
D03*
X51181D02*
D03*
X55118D02*
D03*
X59055D02*
D03*
X62992D02*
D03*
X66929D02*
D03*
X-15748Y-106299D02*
D03*
X-11811D02*
D03*
X-7874D02*
D03*
X-3937D02*
D03*
X0D02*
D03*
X3937D02*
D03*
X7874D02*
D03*
X11811D02*
D03*
X15748D02*
D03*
X19685D02*
D03*
X23622D02*
D03*
X27559D02*
D03*
X31496D02*
D03*
X35433D02*
D03*
X39370D02*
D03*
X43307D02*
D03*
X47244D02*
D03*
X51181D02*
D03*
X55118D02*
D03*
X59055D02*
D03*
X62992D02*
D03*
X66929D02*
D03*
X-15748Y-110236D02*
D03*
X-11811D02*
D03*
X-7874D02*
D03*
X-3937D02*
D03*
X0D02*
D03*
X3937D02*
D03*
X7874D02*
D03*
X11811D02*
D03*
X15748D02*
D03*
X19685D02*
D03*
X23622D02*
D03*
X27559D02*
D03*
X31496D02*
D03*
X35433D02*
D03*
X39370D02*
D03*
X47244D02*
D03*
X51181D02*
D03*
X55118D02*
D03*
X59055D02*
D03*
X62992D02*
D03*
X66929D02*
D03*
X-15748Y-114173D02*
D03*
X-11811D02*
D03*
X-7874D02*
D03*
X-3937D02*
D03*
X0D02*
D03*
X3937D02*
D03*
X7874D02*
D03*
X11811D02*
D03*
X15748D02*
D03*
X19685D02*
D03*
X23622D02*
D03*
X27559D02*
D03*
X31496D02*
D03*
X35433D02*
D03*
X39370D02*
D03*
X47244D02*
D03*
X51181D02*
D03*
X55118D02*
D03*
X59055D02*
D03*
X62992D02*
D03*
X66929D02*
D03*
X-15748Y-118110D02*
D03*
X-11811D02*
D03*
X-7874D02*
D03*
X-3937D02*
D03*
X0D02*
D03*
X3937D02*
D03*
X7874D02*
D03*
X11811D02*
D03*
X15748D02*
D03*
X19685D02*
D03*
X23622D02*
D03*
X27559D02*
D03*
X31496D02*
D03*
X35433D02*
D03*
X39370D02*
D03*
X43307D02*
D03*
X47244D02*
D03*
X51181D02*
D03*
X55118D02*
D03*
X59055D02*
D03*
X62992D02*
D03*
X66929D02*
D03*
X-15748Y-122047D02*
D03*
X-11811D02*
D03*
X-7874D02*
D03*
X-3937D02*
D03*
X0D02*
D03*
X3937D02*
D03*
X7874D02*
D03*
X11811D02*
D03*
X15748D02*
D03*
X19685D02*
D03*
X23622D02*
D03*
X27559D02*
D03*
X31496D02*
D03*
X35433D02*
D03*
X39370D02*
D03*
X43307D02*
D03*
X47244D02*
D03*
X51181D02*
D03*
X55118D02*
D03*
X59055D02*
D03*
X62992D02*
D03*
X66929D02*
D03*
X-15748Y-125984D02*
D03*
X-11811D02*
D03*
X-7874D02*
D03*
X-3937D02*
D03*
X0D02*
D03*
X3937D02*
D03*
X7874D02*
D03*
X11811D02*
D03*
X15748D02*
D03*
X19685D02*
D03*
X23622D02*
D03*
X27559D02*
D03*
X31496D02*
D03*
X35433D02*
D03*
X39370D02*
D03*
X43307D02*
D03*
X47244D02*
D03*
X51181D02*
D03*
X55118D02*
D03*
X59055D02*
D03*
X62992D02*
D03*
X66929D02*
D03*
X-15748Y-137795D02*
D03*
X-11811D02*
D03*
X-7874D02*
D03*
X-3937D02*
D03*
X0D02*
D03*
X3937D02*
D03*
X7874D02*
D03*
X11811D02*
D03*
X15748D02*
D03*
X19685D02*
D03*
X23622D02*
D03*
X27559D02*
D03*
X31496D02*
D03*
X35433D02*
D03*
X39370D02*
D03*
X43307D02*
D03*
X47244D02*
D03*
X51181D02*
D03*
X55118D02*
D03*
X59055D02*
D03*
X62992D02*
D03*
X66929D02*
D03*
Y-133858D02*
D03*
X62992D02*
D03*
X59055D02*
D03*
X55118D02*
D03*
X51181D02*
D03*
X47244D02*
D03*
X43307D02*
D03*
X39370D02*
D03*
X35433D02*
D03*
X31496D02*
D03*
X27559D02*
D03*
X23622D02*
D03*
X19685D02*
D03*
X15748D02*
D03*
X11811D02*
D03*
X7874D02*
D03*
X3937D02*
D03*
X0D02*
D03*
X-3937D02*
D03*
X-7874D02*
D03*
X-11811D02*
D03*
X-15748D02*
D03*
X66929Y-129921D02*
D03*
X62992D02*
D03*
X59055D02*
D03*
X55118D02*
D03*
X51181D02*
D03*
X47244D02*
D03*
X43307D02*
D03*
X39370D02*
D03*
X35433D02*
D03*
X31496D02*
D03*
X27559D02*
D03*
X23622D02*
D03*
X19685D02*
D03*
X15748D02*
D03*
X11811D02*
D03*
X7874D02*
D03*
X3937D02*
D03*
X0D02*
D03*
X-3937D02*
D03*
X-7874D02*
D03*
X-11811D02*
D03*
X-15748D02*
D03*
D94*
X11220Y23819D02*
D03*
X-197D02*
D03*
X-14370Y-33661D02*
D03*
X-25787D02*
D03*
X21260Y-10433D02*
D03*
X9843D02*
D03*
D95*
X-182837Y-257972D02*
D03*
Y-260531D02*
D03*
Y-263091D02*
D03*
X-191498D02*
D03*
Y-260531D02*
D03*
Y-257972D02*
D03*
X-182837Y-247047D02*
D03*
Y-249606D02*
D03*
Y-252165D02*
D03*
X-191498D02*
D03*
Y-249606D02*
D03*
Y-247047D02*
D03*
D96*
X99705Y-240293D02*
D03*
X106004D02*
D03*
X46457Y-204331D02*
D03*
X52756D02*
D03*
X64961Y-163920D02*
D03*
X58662D02*
D03*
D97*
X93602Y-240158D02*
D03*
Y-246063D02*
D03*
D98*
X76968Y-239754D02*
D03*
Y-262215D02*
D03*
X36614Y-217707D02*
D03*
Y-240167D02*
D03*
D99*
X85236Y-240984D02*
D03*
Y-250984D02*
D03*
X68701Y-260984D02*
D03*
X85236D02*
D03*
X68701Y-250984D02*
D03*
Y-240984D02*
D03*
X44882Y-218937D02*
D03*
Y-228937D02*
D03*
X28346Y-238937D02*
D03*
X44882D02*
D03*
X28346Y-228937D02*
D03*
Y-218937D02*
D03*
D100*
X41704Y-208921D02*
D03*
X38948D02*
D03*
X41704Y-212071D02*
D03*
X38948D02*
D03*
D101*
X40354Y-204331D02*
D03*
X34449D02*
D03*
D102*
X-293071Y-247709D02*
D03*
Y-263709D02*
D03*
X-298071Y-247709D02*
D03*
Y-263709D02*
D03*
X-303071Y-247709D02*
D03*
Y-263709D02*
D03*
X-308071Y-247709D02*
D03*
Y-263709D02*
D03*
X-313071Y-247709D02*
D03*
Y-263709D02*
D03*
X-318071Y-247709D02*
D03*
Y-263709D02*
D03*
X-323071Y-247709D02*
D03*
Y-263709D02*
D03*
D103*
X-31594Y12626D02*
D03*
X-56004D02*
D03*
X394Y6693D02*
D03*
X24803D02*
D03*
X-689Y-16339D02*
D03*
X-25098D02*
D03*
D104*
X-16929Y-189370D02*
D03*
Y-186221D02*
D03*
Y-183071D02*
D03*
Y-170472D02*
D03*
Y-167323D02*
D03*
Y-164173D02*
D03*
X-13780Y-189370D02*
D03*
Y-186221D02*
D03*
Y-183071D02*
D03*
Y-170472D02*
D03*
Y-167323D02*
D03*
Y-164173D02*
D03*
X-10630Y-189370D02*
D03*
Y-186221D02*
D03*
Y-183071D02*
D03*
Y-170472D02*
D03*
Y-167323D02*
D03*
Y-164173D02*
D03*
X-7480Y-189370D02*
D03*
Y-186221D02*
D03*
Y-183071D02*
D03*
Y-170472D02*
D03*
Y-167323D02*
D03*
Y-164173D02*
D03*
X-4331Y-189370D02*
D03*
Y-186221D02*
D03*
Y-183071D02*
D03*
Y-170472D02*
D03*
Y-167323D02*
D03*
Y-164173D02*
D03*
X-1181Y-189370D02*
D03*
Y-186221D02*
D03*
Y-183071D02*
D03*
Y-170472D02*
D03*
Y-167323D02*
D03*
Y-164173D02*
D03*
X1969Y-189370D02*
D03*
Y-186221D02*
D03*
Y-183071D02*
D03*
Y-170472D02*
D03*
Y-167323D02*
D03*
Y-164173D02*
D03*
X5118Y-189370D02*
D03*
Y-186221D02*
D03*
Y-183071D02*
D03*
Y-170472D02*
D03*
Y-167323D02*
D03*
Y-164173D02*
D03*
X8268Y-189370D02*
D03*
Y-186221D02*
D03*
Y-183071D02*
D03*
Y-170472D02*
D03*
Y-167323D02*
D03*
Y-164173D02*
D03*
X11417Y-189370D02*
D03*
Y-186221D02*
D03*
Y-183071D02*
D03*
Y-170472D02*
D03*
Y-167323D02*
D03*
Y-164173D02*
D03*
X14567Y-189370D02*
D03*
Y-186221D02*
D03*
Y-183071D02*
D03*
Y-170472D02*
D03*
Y-167323D02*
D03*
Y-164173D02*
D03*
X17717Y-189370D02*
D03*
Y-186221D02*
D03*
Y-183071D02*
D03*
Y-170472D02*
D03*
Y-167323D02*
D03*
Y-164173D02*
D03*
X20866Y-189370D02*
D03*
Y-186221D02*
D03*
Y-183071D02*
D03*
Y-170472D02*
D03*
Y-167323D02*
D03*
Y-164173D02*
D03*
X24016Y-189370D02*
D03*
Y-186221D02*
D03*
Y-183071D02*
D03*
Y-170472D02*
D03*
Y-167323D02*
D03*
Y-164173D02*
D03*
X27165Y-189370D02*
D03*
Y-186221D02*
D03*
Y-183071D02*
D03*
Y-170472D02*
D03*
Y-167323D02*
D03*
Y-164173D02*
D03*
D105*
X120435Y-200070D02*
D03*
Y-195070D02*
D03*
Y-190070D02*
D03*
Y-185070D02*
D03*
Y-180070D02*
D03*
Y-175070D02*
D03*
Y-170070D02*
D03*
Y-165070D02*
D03*
Y-160070D02*
D03*
Y-155070D02*
D03*
Y-150070D02*
D03*
Y-145070D02*
D03*
Y-140070D02*
D03*
Y-135070D02*
D03*
Y-130070D02*
D03*
Y-125070D02*
D03*
Y-120070D02*
D03*
Y-115070D02*
D03*
Y-110070D02*
D03*
Y-105070D02*
D03*
Y-100070D02*
D03*
Y-95070D02*
D03*
Y-90070D02*
D03*
Y-85070D02*
D03*
Y-80070D02*
D03*
Y-75070D02*
D03*
Y-70070D02*
D03*
Y-65070D02*
D03*
Y-60070D02*
D03*
Y-55070D02*
D03*
Y-50070D02*
D03*
Y-45070D02*
D03*
Y-40070D02*
D03*
Y-35070D02*
D03*
Y-30070D02*
D03*
Y-25070D02*
D03*
Y-20070D02*
D03*
Y-15070D02*
D03*
Y-10070D02*
D03*
Y-5070D02*
D03*
X125435D02*
D03*
Y-10070D02*
D03*
Y-15070D02*
D03*
Y-20070D02*
D03*
Y-25070D02*
D03*
Y-30070D02*
D03*
Y-35070D02*
D03*
Y-40070D02*
D03*
Y-45070D02*
D03*
Y-50070D02*
D03*
Y-55070D02*
D03*
Y-60070D02*
D03*
Y-65070D02*
D03*
Y-70070D02*
D03*
Y-75070D02*
D03*
Y-80070D02*
D03*
Y-85070D02*
D03*
Y-90070D02*
D03*
Y-95070D02*
D03*
Y-100070D02*
D03*
Y-105070D02*
D03*
Y-110070D02*
D03*
Y-115070D02*
D03*
Y-120070D02*
D03*
Y-125070D02*
D03*
Y-130070D02*
D03*
Y-135070D02*
D03*
Y-140070D02*
D03*
Y-145070D02*
D03*
Y-150070D02*
D03*
Y-155070D02*
D03*
Y-160070D02*
D03*
Y-165070D02*
D03*
Y-170070D02*
D03*
Y-175070D02*
D03*
Y-180070D02*
D03*
Y-185070D02*
D03*
Y-190070D02*
D03*
Y-195070D02*
D03*
Y-200070D02*
D03*
X115435Y-5070D02*
D03*
Y-10070D02*
D03*
Y-15070D02*
D03*
Y-20070D02*
D03*
Y-25070D02*
D03*
Y-30070D02*
D03*
Y-35070D02*
D03*
Y-40070D02*
D03*
Y-45070D02*
D03*
Y-50070D02*
D03*
Y-55070D02*
D03*
Y-60070D02*
D03*
Y-65070D02*
D03*
Y-70070D02*
D03*
Y-75070D02*
D03*
Y-80070D02*
D03*
Y-85070D02*
D03*
Y-90070D02*
D03*
Y-95070D02*
D03*
Y-100070D02*
D03*
Y-105070D02*
D03*
Y-110070D02*
D03*
Y-115070D02*
D03*
Y-120070D02*
D03*
Y-125070D02*
D03*
Y-130070D02*
D03*
Y-135070D02*
D03*
Y-140070D02*
D03*
Y-145070D02*
D03*
Y-150070D02*
D03*
Y-155070D02*
D03*
Y-160070D02*
D03*
Y-165070D02*
D03*
Y-170070D02*
D03*
Y-175070D02*
D03*
Y-180070D02*
D03*
Y-185070D02*
D03*
Y-190070D02*
D03*
Y-195070D02*
D03*
Y-200070D02*
D03*
X110435Y-5070D02*
D03*
Y-10070D02*
D03*
Y-15070D02*
D03*
Y-20070D02*
D03*
Y-25070D02*
D03*
Y-30070D02*
D03*
Y-35070D02*
D03*
Y-40070D02*
D03*
Y-45070D02*
D03*
Y-50070D02*
D03*
Y-55070D02*
D03*
Y-60070D02*
D03*
Y-65070D02*
D03*
Y-70070D02*
D03*
Y-75070D02*
D03*
Y-80070D02*
D03*
Y-85070D02*
D03*
Y-90070D02*
D03*
Y-95070D02*
D03*
Y-100070D02*
D03*
Y-105070D02*
D03*
Y-110070D02*
D03*
Y-115070D02*
D03*
Y-120070D02*
D03*
Y-125070D02*
D03*
Y-130070D02*
D03*
Y-135070D02*
D03*
Y-140070D02*
D03*
Y-145070D02*
D03*
Y-150070D02*
D03*
Y-155070D02*
D03*
Y-160070D02*
D03*
Y-165070D02*
D03*
Y-170070D02*
D03*
Y-175070D02*
D03*
Y-180070D02*
D03*
Y-185070D02*
D03*
Y-190070D02*
D03*
Y-195070D02*
D03*
Y-200070D02*
D03*
X105435Y-5070D02*
D03*
Y-10070D02*
D03*
Y-15070D02*
D03*
Y-20070D02*
D03*
Y-25070D02*
D03*
Y-30070D02*
D03*
Y-35070D02*
D03*
Y-40070D02*
D03*
Y-45070D02*
D03*
Y-50070D02*
D03*
Y-55070D02*
D03*
Y-60070D02*
D03*
Y-65070D02*
D03*
Y-70070D02*
D03*
Y-75070D02*
D03*
Y-80070D02*
D03*
Y-85070D02*
D03*
Y-90070D02*
D03*
Y-95070D02*
D03*
Y-100070D02*
D03*
Y-105070D02*
D03*
Y-110070D02*
D03*
Y-115070D02*
D03*
Y-120070D02*
D03*
Y-125070D02*
D03*
Y-130070D02*
D03*
Y-135070D02*
D03*
Y-140070D02*
D03*
Y-145070D02*
D03*
Y-150070D02*
D03*
Y-155070D02*
D03*
Y-160070D02*
D03*
Y-165070D02*
D03*
Y-170070D02*
D03*
Y-175070D02*
D03*
Y-180070D02*
D03*
Y-185070D02*
D03*
Y-190070D02*
D03*
Y-195070D02*
D03*
Y-200070D02*
D03*
X100435Y-5070D02*
D03*
Y-10070D02*
D03*
Y-15070D02*
D03*
Y-20070D02*
D03*
Y-25070D02*
D03*
Y-30070D02*
D03*
Y-35070D02*
D03*
Y-40070D02*
D03*
Y-45070D02*
D03*
Y-50070D02*
D03*
Y-55070D02*
D03*
Y-60070D02*
D03*
Y-65070D02*
D03*
Y-70070D02*
D03*
Y-75070D02*
D03*
Y-80070D02*
D03*
Y-85070D02*
D03*
Y-90070D02*
D03*
Y-95070D02*
D03*
Y-100070D02*
D03*
Y-105070D02*
D03*
Y-110070D02*
D03*
Y-115070D02*
D03*
Y-120070D02*
D03*
Y-125070D02*
D03*
Y-130070D02*
D03*
Y-135070D02*
D03*
Y-140070D02*
D03*
Y-145070D02*
D03*
Y-150070D02*
D03*
Y-155070D02*
D03*
Y-160070D02*
D03*
Y-165070D02*
D03*
Y-170070D02*
D03*
Y-175070D02*
D03*
Y-180070D02*
D03*
Y-185070D02*
D03*
Y-190070D02*
D03*
Y-195070D02*
D03*
Y-200070D02*
D03*
X95435Y-5070D02*
D03*
Y-10070D02*
D03*
Y-15070D02*
D03*
Y-20070D02*
D03*
Y-25070D02*
D03*
Y-30070D02*
D03*
Y-35070D02*
D03*
Y-40070D02*
D03*
Y-45070D02*
D03*
Y-50070D02*
D03*
Y-55070D02*
D03*
Y-60070D02*
D03*
Y-65070D02*
D03*
Y-70070D02*
D03*
Y-75070D02*
D03*
Y-80070D02*
D03*
Y-85070D02*
D03*
Y-90070D02*
D03*
Y-95070D02*
D03*
Y-100070D02*
D03*
Y-105070D02*
D03*
Y-110070D02*
D03*
Y-115070D02*
D03*
Y-120070D02*
D03*
Y-125070D02*
D03*
Y-130070D02*
D03*
Y-135070D02*
D03*
Y-140070D02*
D03*
Y-145070D02*
D03*
Y-150070D02*
D03*
Y-155070D02*
D03*
Y-160070D02*
D03*
Y-165070D02*
D03*
Y-170070D02*
D03*
Y-175070D02*
D03*
Y-180070D02*
D03*
Y-185070D02*
D03*
Y-190070D02*
D03*
Y-195070D02*
D03*
Y-200070D02*
D03*
X90435Y-5070D02*
D03*
Y-10070D02*
D03*
Y-15070D02*
D03*
Y-20070D02*
D03*
Y-25070D02*
D03*
Y-30070D02*
D03*
Y-35070D02*
D03*
Y-40070D02*
D03*
Y-45070D02*
D03*
Y-50070D02*
D03*
Y-55070D02*
D03*
Y-60070D02*
D03*
Y-65070D02*
D03*
Y-70070D02*
D03*
Y-75070D02*
D03*
Y-80070D02*
D03*
Y-85070D02*
D03*
Y-90070D02*
D03*
Y-95070D02*
D03*
Y-100070D02*
D03*
Y-105070D02*
D03*
Y-110070D02*
D03*
Y-115070D02*
D03*
Y-120070D02*
D03*
Y-125070D02*
D03*
Y-130070D02*
D03*
Y-135070D02*
D03*
Y-140070D02*
D03*
Y-145070D02*
D03*
Y-150070D02*
D03*
Y-155070D02*
D03*
Y-160070D02*
D03*
Y-165070D02*
D03*
Y-170070D02*
D03*
Y-175070D02*
D03*
Y-180070D02*
D03*
Y-185070D02*
D03*
Y-190070D02*
D03*
Y-195070D02*
D03*
Y-200070D02*
D03*
X85435Y-5070D02*
D03*
Y-10070D02*
D03*
Y-15070D02*
D03*
Y-20070D02*
D03*
Y-25070D02*
D03*
Y-30070D02*
D03*
Y-35070D02*
D03*
Y-40070D02*
D03*
Y-45070D02*
D03*
Y-50070D02*
D03*
Y-55070D02*
D03*
Y-60070D02*
D03*
Y-65070D02*
D03*
Y-70070D02*
D03*
Y-75070D02*
D03*
Y-80070D02*
D03*
Y-85070D02*
D03*
Y-90070D02*
D03*
Y-95070D02*
D03*
Y-100070D02*
D03*
Y-105070D02*
D03*
Y-110070D02*
D03*
Y-115070D02*
D03*
Y-120070D02*
D03*
Y-125070D02*
D03*
Y-130070D02*
D03*
Y-135070D02*
D03*
Y-140070D02*
D03*
Y-145070D02*
D03*
Y-150070D02*
D03*
Y-155070D02*
D03*
Y-160070D02*
D03*
Y-165070D02*
D03*
Y-170070D02*
D03*
Y-175070D02*
D03*
Y-180070D02*
D03*
Y-185070D02*
D03*
Y-190070D02*
D03*
Y-195070D02*
D03*
Y-200070D02*
D03*
X80435Y-5070D02*
D03*
Y-10070D02*
D03*
Y-15070D02*
D03*
Y-20070D02*
D03*
Y-25070D02*
D03*
Y-30070D02*
D03*
Y-35070D02*
D03*
Y-40070D02*
D03*
Y-45070D02*
D03*
Y-50070D02*
D03*
Y-55070D02*
D03*
Y-60070D02*
D03*
Y-65070D02*
D03*
Y-70070D02*
D03*
Y-75070D02*
D03*
Y-80070D02*
D03*
Y-85070D02*
D03*
Y-90070D02*
D03*
Y-95070D02*
D03*
Y-100070D02*
D03*
Y-105070D02*
D03*
Y-110070D02*
D03*
Y-115070D02*
D03*
Y-120070D02*
D03*
Y-125070D02*
D03*
Y-130070D02*
D03*
Y-135070D02*
D03*
Y-140070D02*
D03*
Y-145070D02*
D03*
Y-150070D02*
D03*
Y-155070D02*
D03*
Y-160070D02*
D03*
Y-165070D02*
D03*
Y-170070D02*
D03*
Y-175070D02*
D03*
Y-180070D02*
D03*
Y-185070D02*
D03*
Y-190070D02*
D03*
Y-195070D02*
D03*
Y-200070D02*
D03*
D106*
X-94193Y-216831D02*
D03*
Y-218799D02*
D03*
Y-220768D02*
D03*
Y-222736D02*
D03*
Y-224705D02*
D03*
Y-226673D02*
D03*
Y-228642D02*
D03*
Y-230610D02*
D03*
Y-232579D02*
D03*
Y-234547D02*
D03*
Y-236516D02*
D03*
Y-238484D02*
D03*
Y-240453D02*
D03*
Y-242421D02*
D03*
Y-244390D02*
D03*
Y-246358D02*
D03*
Y-248327D02*
D03*
Y-250295D02*
D03*
Y-252264D02*
D03*
Y-254232D02*
D03*
X-41240D02*
D03*
Y-252264D02*
D03*
Y-250295D02*
D03*
Y-248327D02*
D03*
Y-246358D02*
D03*
Y-244390D02*
D03*
Y-242421D02*
D03*
Y-240453D02*
D03*
Y-238484D02*
D03*
Y-236516D02*
D03*
Y-234547D02*
D03*
Y-232579D02*
D03*
Y-230610D02*
D03*
Y-228642D02*
D03*
Y-226673D02*
D03*
Y-224705D02*
D03*
Y-222736D02*
D03*
Y-220768D02*
D03*
Y-218799D02*
D03*
Y-216831D02*
D03*
D107*
X-86417Y-262008D02*
D03*
X-84449D02*
D03*
X-82480D02*
D03*
X-80512D02*
D03*
X-78543D02*
D03*
X-76575D02*
D03*
X-74606D02*
D03*
X-72638D02*
D03*
X-70669D02*
D03*
X-68701D02*
D03*
X-66732D02*
D03*
X-64764D02*
D03*
X-62795D02*
D03*
X-60827D02*
D03*
X-58858D02*
D03*
X-56890D02*
D03*
X-54921D02*
D03*
X-52953D02*
D03*
X-50984D02*
D03*
X-49016D02*
D03*
Y-209055D02*
D03*
X-50984D02*
D03*
X-52953D02*
D03*
X-54921D02*
D03*
X-56890D02*
D03*
X-58858D02*
D03*
X-60827D02*
D03*
X-62795D02*
D03*
X-64764D02*
D03*
X-66732D02*
D03*
X-68701D02*
D03*
X-70669D02*
D03*
X-72638D02*
D03*
X-74606D02*
D03*
X-76575D02*
D03*
X-78543D02*
D03*
X-80512D02*
D03*
X-82480D02*
D03*
X-84449D02*
D03*
X-86417D02*
D03*
D108*
X-149902Y-227284D02*
D03*
Y-232283D02*
D03*
Y-237283D02*
D03*
Y-242284D02*
D03*
Y-247284D02*
D03*
Y-252284D02*
D03*
Y-257283D02*
D03*
Y-262283D02*
D03*
X-113878Y-227284D02*
D03*
Y-232283D02*
D03*
Y-237283D02*
D03*
Y-242284D02*
D03*
Y-247284D02*
D03*
Y-252284D02*
D03*
Y-257283D02*
D03*
Y-262283D02*
D03*
D109*
X15276Y-240059D02*
D03*
X10276D02*
D03*
X5276D02*
D03*
X276D02*
D03*
X-4724D02*
D03*
X-9724D02*
D03*
X-14724D02*
D03*
X15276Y-261319D02*
D03*
X10276D02*
D03*
X5276D02*
D03*
X276D02*
D03*
X-4724D02*
D03*
X-9724D02*
D03*
X-14724D02*
D03*
X142030Y-122835D02*
D03*
X147030D02*
D03*
X152030D02*
D03*
X157030D02*
D03*
X162030D02*
D03*
X167030D02*
D03*
X172030D02*
D03*
X142030Y-101575D02*
D03*
X147030D02*
D03*
X152030D02*
D03*
X157030D02*
D03*
X162030D02*
D03*
X167030D02*
D03*
X172030D02*
D03*
X15276Y-209941D02*
D03*
X10276D02*
D03*
X5276D02*
D03*
X276D02*
D03*
X-4724D02*
D03*
X-9724D02*
D03*
X-14724D02*
D03*
X15276Y-231201D02*
D03*
X10276D02*
D03*
X5276D02*
D03*
X276D02*
D03*
X-4724D02*
D03*
X-9724D02*
D03*
X-14724D02*
D03*
D110*
X35236Y-9941D02*
D03*
Y5807D02*
D03*
X44587Y-9941D02*
D03*
Y5807D02*
D03*
X115847Y-246358D02*
D03*
Y-262106D02*
D03*
D111*
X139469Y20472D02*
D03*
Y8661D02*
D03*
X135039Y-228839D02*
D03*
Y-240650D02*
D03*
X134646Y-152067D02*
D03*
Y-163878D02*
D03*
D112*
X19783Y-34154D02*
D03*
X4035D02*
D03*
X63583Y-230020D02*
D03*
X79331D02*
D03*
X135630Y-189665D02*
D03*
X151378D02*
D03*
D113*
X140847Y886D02*
D03*
X133760D02*
D03*
X140847Y-7283D02*
D03*
X133760D02*
D03*
D114*
X-15551Y-295D02*
D03*
Y24114D02*
D03*
D115*
X64961Y-169825D02*
D03*
X58662D02*
D03*
X140256Y-181890D02*
D03*
X146555D02*
D03*
X115453Y-220768D02*
D03*
X121752D02*
D03*
X171358Y-256791D02*
D03*
X165059D02*
D03*
X175292Y-79331D02*
D03*
X181591D02*
D03*
X169488Y-179626D02*
D03*
X163189D02*
D03*
X175492Y-175886D02*
D03*
X181791D02*
D03*
X151378Y-211516D02*
D03*
X157677D02*
D03*
D116*
X133366Y-172441D02*
D03*
Y-179528D02*
D03*
X62697Y21850D02*
D03*
Y14764D02*
D03*
D117*
X126340Y-228543D02*
D03*
X114529D02*
D03*
X126378Y-237894D02*
D03*
X114567D02*
D03*
D118*
X60039Y-209842D02*
D03*
Y-221654D02*
D03*
D119*
X67618Y-222244D02*
D03*
Y-215945D02*
D03*
X174100Y-85350D02*
D03*
Y-91650D02*
D03*
X170768Y-9055D02*
D03*
Y-15354D02*
D03*
X176870Y-9055D02*
D03*
Y-15354D02*
D03*
D120*
X-34252Y-262205D02*
D03*
X-28346D02*
D03*
D121*
X41339Y-169488D02*
D03*
Y-173228D02*
D03*
Y-176969D02*
D03*
X51968D02*
D03*
Y-173228D02*
D03*
Y-169488D02*
D03*
D122*
X-164482Y-252820D02*
D03*
Y-260300D02*
D03*
X-174718D02*
D03*
Y-256560D02*
D03*
Y-252820D02*
D03*
D123*
X159252Y-223130D02*
D03*
X166339D02*
D03*
X159153Y-146161D02*
D03*
X166240D02*
D03*
X160528Y-49538D02*
D03*
X167615D02*
D03*
D124*
X151378Y-205217D02*
D03*
Y-197736D02*
D03*
D125*
X180807Y26969D02*
D03*
Y19882D02*
D03*
X169980Y26969D02*
D03*
Y19882D02*
D03*
D126*
X40551Y-155020D02*
D03*
X50787D02*
D03*
X60039D02*
D03*
X70276D02*
D03*
D127*
X65453Y-22314D02*
D03*
Y-32550D02*
D03*
X56201Y-22314D02*
D03*
Y-32550D02*
D03*
X37697Y-22314D02*
D03*
Y-32550D02*
D03*
X28445Y-22314D02*
D03*
Y-32550D02*
D03*
X46949Y-22314D02*
D03*
Y-32550D02*
D03*
D128*
X136217Y-63250D02*
D03*
Y-54195D02*
D03*
D129*
X133169Y-197835D02*
D03*
Y-201575D02*
D03*
Y-205315D02*
D03*
X143799D02*
D03*
Y-197835D02*
D03*
D130*
X169882Y-130709D02*
D03*
Y-138583D02*
D03*
X132579Y-138779D02*
D03*
Y-130905D02*
D03*
X133661Y-93701D02*
D03*
Y-85827D02*
D03*
X166142Y-85925D02*
D03*
Y-93799D02*
D03*
D131*
X157087Y-134646D02*
D03*
X145374Y-134843D02*
D03*
X146457Y-89764D02*
D03*
X153347Y-89862D02*
D03*
D132*
X159449Y-190236D02*
D03*
Y-195236D02*
D03*
Y-200236D02*
D03*
Y-205236D02*
D03*
X180709Y-190236D02*
D03*
Y-195236D02*
D03*
Y-200236D02*
D03*
Y-205236D02*
D03*
D133*
X37697Y14370D02*
D03*
Y25787D02*
D03*
X56299Y-9154D02*
D03*
Y2264D02*
D03*
X45472Y-185470D02*
D03*
Y-196888D02*
D03*
X51772Y14370D02*
D03*
Y25787D02*
D03*
X59449Y-185335D02*
D03*
Y-196752D02*
D03*
D134*
X-320457Y-294034D02*
D03*
Y57935D02*
D03*
X171669D02*
D03*
Y-294034D02*
D03*
X-158646Y57935D02*
D03*
X-58646D02*
D03*
Y-294034D02*
D03*
X-158646D02*
D03*
D135*
X220685Y-284782D02*
D03*
Y48683D02*
D03*
D136*
X206905Y-29466D02*
D03*
X212220D02*
D03*
X222850Y-128679D02*
D03*
X228165D02*
D03*
X222850Y-29466D02*
D03*
X228165D02*
D03*
X233480Y-142852D02*
D03*
Y-135766D02*
D03*
Y-128679D02*
D03*
Y-114506D02*
D03*
Y-107419D02*
D03*
Y-100333D02*
D03*
Y-93246D02*
D03*
Y-86160D02*
D03*
X228165Y-142852D02*
D03*
Y-135766D02*
D03*
Y-114506D02*
D03*
Y-107419D02*
D03*
Y-100333D02*
D03*
Y-93246D02*
D03*
Y-86160D02*
D03*
X222850Y-142852D02*
D03*
Y-135766D02*
D03*
Y-121593D02*
D03*
Y-114506D02*
D03*
Y-107419D02*
D03*
Y-100333D02*
D03*
Y-93246D02*
D03*
Y-86160D02*
D03*
X217535Y-142852D02*
D03*
Y-135766D02*
D03*
Y-128679D02*
D03*
Y-114506D02*
D03*
Y-107419D02*
D03*
Y-100333D02*
D03*
Y-93246D02*
D03*
Y-86160D02*
D03*
X212220Y-142852D02*
D03*
Y-135766D02*
D03*
Y-128679D02*
D03*
Y-114506D02*
D03*
Y-107419D02*
D03*
Y-100333D02*
D03*
Y-93246D02*
D03*
Y-86160D02*
D03*
X206905Y-142852D02*
D03*
Y-135766D02*
D03*
Y-128679D02*
D03*
Y-121593D02*
D03*
Y-114506D02*
D03*
Y-107419D02*
D03*
Y-100333D02*
D03*
Y-93246D02*
D03*
Y-86160D02*
D03*
X201590Y-142852D02*
D03*
Y-135766D02*
D03*
Y-128679D02*
D03*
Y-114506D02*
D03*
Y-100333D02*
D03*
Y-86160D02*
D03*
Y-71986D02*
D03*
Y-64900D02*
D03*
Y-57813D02*
D03*
Y-50726D02*
D03*
Y-43640D02*
D03*
Y-36553D02*
D03*
X206905Y-79073D02*
D03*
Y-71986D02*
D03*
Y-64900D02*
D03*
Y-57813D02*
D03*
Y-50726D02*
D03*
Y-43640D02*
D03*
Y-36553D02*
D03*
X212220Y-79073D02*
D03*
Y-71986D02*
D03*
Y-64900D02*
D03*
Y-57813D02*
D03*
Y-50726D02*
D03*
Y-43640D02*
D03*
Y-36553D02*
D03*
X217535Y-79073D02*
D03*
Y-71986D02*
D03*
Y-64900D02*
D03*
Y-57813D02*
D03*
Y-50726D02*
D03*
Y-43640D02*
D03*
Y-36553D02*
D03*
X222850Y-79073D02*
D03*
Y-71986D02*
D03*
Y-64900D02*
D03*
Y-57813D02*
D03*
Y-50726D02*
D03*
Y-43640D02*
D03*
Y-36553D02*
D03*
X228165Y-79073D02*
D03*
Y-71986D02*
D03*
Y-64900D02*
D03*
Y-57813D02*
D03*
Y-50726D02*
D03*
Y-43640D02*
D03*
Y-36553D02*
D03*
X233480Y-79073D02*
D03*
Y-71986D02*
D03*
Y-64900D02*
D03*
Y-57813D02*
D03*
Y-50726D02*
D03*
Y-43640D02*
D03*
X201590Y-107419D02*
D03*
Y-121593D02*
D03*
X217535D02*
D03*
X212220D02*
D03*
X233480D02*
D03*
X228165D02*
D03*
X201590Y-79073D02*
D03*
Y-93246D02*
D03*
X233480Y13054D02*
D03*
Y5967D02*
D03*
Y-1120D02*
D03*
Y-8206D02*
D03*
Y-15293D02*
D03*
Y-22380D02*
D03*
Y-29466D02*
D03*
X228165Y20140D02*
D03*
Y13054D02*
D03*
Y5967D02*
D03*
Y-1120D02*
D03*
Y-8206D02*
D03*
Y-15293D02*
D03*
Y-22380D02*
D03*
X222850Y20140D02*
D03*
Y13054D02*
D03*
Y5967D02*
D03*
Y-1120D02*
D03*
Y-8206D02*
D03*
Y-15293D02*
D03*
Y-22380D02*
D03*
X217535Y20140D02*
D03*
Y13054D02*
D03*
Y5967D02*
D03*
Y-1120D02*
D03*
Y-8206D02*
D03*
Y-15293D02*
D03*
Y-22380D02*
D03*
Y-29466D02*
D03*
X212220Y20140D02*
D03*
Y13054D02*
D03*
Y5967D02*
D03*
Y-1120D02*
D03*
Y-8206D02*
D03*
Y-15293D02*
D03*
Y-22380D02*
D03*
X201590Y20140D02*
D03*
Y13054D02*
D03*
Y5967D02*
D03*
Y-1120D02*
D03*
Y-8206D02*
D03*
Y-15293D02*
D03*
Y-22380D02*
D03*
Y-29466D02*
D03*
X206905Y20140D02*
D03*
Y13054D02*
D03*
Y5967D02*
D03*
Y-1120D02*
D03*
Y-8206D02*
D03*
Y-15293D02*
D03*
Y-22380D02*
D03*
X233480Y-256238D02*
D03*
Y-249151D02*
D03*
Y-242065D02*
D03*
Y-234978D02*
D03*
Y-227892D02*
D03*
Y-220805D02*
D03*
Y-213718D02*
D03*
Y-206632D02*
D03*
Y-199545D02*
D03*
X228165Y-256238D02*
D03*
Y-249151D02*
D03*
Y-242065D02*
D03*
Y-234978D02*
D03*
Y-227892D02*
D03*
Y-220805D02*
D03*
Y-213718D02*
D03*
Y-206632D02*
D03*
Y-199545D02*
D03*
X222850Y-256238D02*
D03*
Y-249151D02*
D03*
Y-242065D02*
D03*
Y-234978D02*
D03*
Y-227892D02*
D03*
Y-220805D02*
D03*
Y-213718D02*
D03*
Y-206632D02*
D03*
Y-199545D02*
D03*
X217535Y-256238D02*
D03*
Y-249151D02*
D03*
Y-242065D02*
D03*
Y-234978D02*
D03*
Y-227892D02*
D03*
Y-220805D02*
D03*
Y-213718D02*
D03*
Y-206632D02*
D03*
Y-199545D02*
D03*
X212220Y-256238D02*
D03*
Y-249151D02*
D03*
Y-242065D02*
D03*
Y-234978D02*
D03*
Y-227892D02*
D03*
Y-220805D02*
D03*
Y-213718D02*
D03*
Y-206632D02*
D03*
Y-199545D02*
D03*
X206905Y-256238D02*
D03*
Y-249151D02*
D03*
Y-242065D02*
D03*
Y-234978D02*
D03*
Y-227892D02*
D03*
Y-220805D02*
D03*
Y-213718D02*
D03*
Y-206632D02*
D03*
Y-199545D02*
D03*
X201590Y-256238D02*
D03*
Y-249151D02*
D03*
Y-242065D02*
D03*
Y-234978D02*
D03*
Y-227892D02*
D03*
Y-220805D02*
D03*
Y-213718D02*
D03*
Y-206632D02*
D03*
Y-199545D02*
D03*
Y-192458D02*
D03*
Y-185372D02*
D03*
Y-178285D02*
D03*
Y-171199D02*
D03*
Y-164112D02*
D03*
Y-157025D02*
D03*
Y-149939D02*
D03*
X206905Y-192458D02*
D03*
Y-185372D02*
D03*
Y-178285D02*
D03*
Y-171199D02*
D03*
Y-164112D02*
D03*
Y-157025D02*
D03*
Y-149939D02*
D03*
X212220Y-192458D02*
D03*
Y-185372D02*
D03*
Y-178285D02*
D03*
Y-171199D02*
D03*
Y-164112D02*
D03*
Y-157025D02*
D03*
Y-149939D02*
D03*
X217535Y-192458D02*
D03*
Y-185372D02*
D03*
Y-178285D02*
D03*
Y-171199D02*
D03*
Y-164112D02*
D03*
Y-157025D02*
D03*
Y-149939D02*
D03*
X222850Y-192458D02*
D03*
Y-185372D02*
D03*
Y-178285D02*
D03*
Y-171199D02*
D03*
Y-164112D02*
D03*
Y-157025D02*
D03*
Y-149939D02*
D03*
X228165Y-192458D02*
D03*
Y-185372D02*
D03*
Y-178285D02*
D03*
Y-171199D02*
D03*
Y-164112D02*
D03*
Y-157025D02*
D03*
Y-149939D02*
D03*
X233480Y-192458D02*
D03*
Y-185372D02*
D03*
Y-178285D02*
D03*
Y-171199D02*
D03*
Y-164112D02*
D03*
Y-157025D02*
D03*
D137*
X-250000Y-260039D02*
D03*
Y-252165D02*
D03*
X-242126Y-260039D02*
D03*
Y-252165D02*
D03*
X-234252Y-260039D02*
D03*
Y-252165D02*
D03*
X-226378Y-260039D02*
D03*
Y-252165D02*
D03*
X-218504Y-260039D02*
D03*
D138*
Y-252165D02*
D03*
D139*
X-279971Y-255709D02*
D03*
X-336171D02*
D03*
D140*
X199031Y-284782D02*
D03*
Y48683D02*
D03*
D141*
X196669Y-121593D02*
D03*
Y-93246D02*
D03*
Y-64900D02*
D03*
Y-36553D02*
D03*
X196669Y20140D02*
D03*
Y-8206D02*
D03*
X196669Y-234978D02*
D03*
Y-206632D02*
D03*
Y-178285D02*
D03*
Y-149939D02*
D03*
D142*
X233480Y-36553D02*
D03*
X233480Y20140D02*
D03*
X233480Y-149939D02*
D03*
D143*
X114943Y4477D02*
D03*
X102935Y-209617D02*
D03*
D144*
X-119900Y11567D02*
D03*
X95061Y21409D02*
D03*
Y-226622D02*
D03*
X-119900Y-211071D02*
D03*
D145*
X165728Y-240949D02*
D03*
X167126Y-161516D02*
D03*
X171555Y-161417D02*
D03*
X173622Y-159350D02*
D03*
Y-163681D02*
D03*
X169291Y-159350D02*
D03*
Y-163681D02*
D03*
X164961Y-159350D02*
D03*
Y-163681D02*
D03*
X169647Y5413D02*
D03*
X174568D02*
D03*
X172930Y-62783D02*
D03*
Y-67114D02*
D03*
X168599Y-62783D02*
D03*
Y-67114D02*
D03*
X164268Y-62783D02*
D03*
Y-67114D02*
D03*
X176457Y7480D02*
D03*
Y3150D02*
D03*
X172126Y7480D02*
D03*
Y3150D02*
D03*
X167795Y7480D02*
D03*
Y3150D02*
D03*
X170649Y-238784D02*
D03*
X170867Y-64834D02*
D03*
X165946D02*
D03*
X163878Y-240551D02*
D03*
Y-236221D02*
D03*
X168209Y-240551D02*
D03*
Y-236221D02*
D03*
X172539Y-240551D02*
D03*
Y-236221D02*
D03*
D146*
X182935Y69752D02*
D03*
Y54004D02*
D03*
X178998Y46130D02*
D03*
X175061Y69752D02*
D03*
X171124Y46130D02*
D03*
X167187Y69752D02*
D03*
X163250Y46130D02*
D03*
X159313Y69752D02*
D03*
X155376Y61878D02*
D03*
X159313Y54004D02*
D03*
X155376Y46130D02*
D03*
X151439Y69752D02*
D03*
X147502Y61878D02*
D03*
X151439Y54004D02*
D03*
X147502Y46130D02*
D03*
X143565Y69752D02*
D03*
X139628Y61878D02*
D03*
X143565Y54004D02*
D03*
X139628Y46130D02*
D03*
X135691Y69752D02*
D03*
X131754Y61878D02*
D03*
X135691Y54004D02*
D03*
X131754Y46130D02*
D03*
X127817Y69752D02*
D03*
X123880Y61878D02*
D03*
X127817Y54004D02*
D03*
X123880Y46130D02*
D03*
X119943Y69752D02*
D03*
X116006Y61878D02*
D03*
X119943Y54004D02*
D03*
X116006Y46130D02*
D03*
X112069Y69752D02*
D03*
X108132Y61878D02*
D03*
X112069Y54004D02*
D03*
X108132Y46130D02*
D03*
X104195Y69752D02*
D03*
X100258Y61878D02*
D03*
X104195Y54004D02*
D03*
X100258Y46130D02*
D03*
X96321Y69752D02*
D03*
X92384Y61878D02*
D03*
X96321Y54004D02*
D03*
X92384Y46130D02*
D03*
X88447Y69752D02*
D03*
X84510Y61878D02*
D03*
X88447Y54004D02*
D03*
X84510Y46130D02*
D03*
X80573Y69752D02*
D03*
X76636Y61878D02*
D03*
X80573Y54004D02*
D03*
X76636Y46130D02*
D03*
X72699Y69752D02*
D03*
X68762Y61878D02*
D03*
X72699Y54004D02*
D03*
X68762Y46130D02*
D03*
X64825Y69752D02*
D03*
X60888Y61878D02*
D03*
X64825Y54004D02*
D03*
X60888Y46130D02*
D03*
X56951Y69752D02*
D03*
X53014Y61878D02*
D03*
X56951Y54004D02*
D03*
X53014Y46130D02*
D03*
X49077Y69752D02*
D03*
X45140Y61878D02*
D03*
X49077Y54004D02*
D03*
X45140Y46130D02*
D03*
X41203Y69752D02*
D03*
X37266Y61878D02*
D03*
X41203Y54004D02*
D03*
X37266Y46130D02*
D03*
X33329Y69752D02*
D03*
X29392Y61878D02*
D03*
X33329Y54004D02*
D03*
X29392Y46130D02*
D03*
X25455Y69752D02*
D03*
X21518Y61878D02*
D03*
X25455Y54004D02*
D03*
X21518Y46130D02*
D03*
X17581Y69752D02*
D03*
X13644Y61878D02*
D03*
X17581Y54004D02*
D03*
X13644Y46130D02*
D03*
X9707Y69752D02*
D03*
X5770Y61878D02*
D03*
X9707Y54004D02*
D03*
X5770Y46130D02*
D03*
X1833Y69752D02*
D03*
X-2104Y61878D02*
D03*
X1833Y54004D02*
D03*
X-2104Y46130D02*
D03*
X-6041Y69752D02*
D03*
X-9978Y61878D02*
D03*
X-6041Y54004D02*
D03*
X-9978Y46130D02*
D03*
X-13915Y69752D02*
D03*
X-17852Y61878D02*
D03*
X-13915Y54004D02*
D03*
X-17852Y46130D02*
D03*
X-21789Y69752D02*
D03*
X-25726Y61878D02*
D03*
X-21789Y54004D02*
D03*
X-25726Y46130D02*
D03*
X-29663Y69752D02*
D03*
X-33600Y61878D02*
D03*
X-29663Y54004D02*
D03*
X-33600Y46130D02*
D03*
X-37537Y69752D02*
D03*
X-41474Y61878D02*
D03*
X-37537Y54004D02*
D03*
X-41474Y46130D02*
D03*
X-45411Y69752D02*
D03*
X-49348Y61878D02*
D03*
X-45411Y54004D02*
D03*
X-49348Y46130D02*
D03*
X-53285Y69752D02*
D03*
X-57222Y46130D02*
D03*
X-61159Y69752D02*
D03*
X-65096Y46130D02*
D03*
X-69033Y69752D02*
D03*
X-72970Y61878D02*
D03*
X-69033Y54004D02*
D03*
X-72970Y46130D02*
D03*
X-76907Y69752D02*
D03*
X-80844Y61878D02*
D03*
X-76907Y54004D02*
D03*
X-80844Y46130D02*
D03*
X-84781Y69752D02*
D03*
X-88718Y61878D02*
D03*
X-84781Y54004D02*
D03*
X-88718Y46130D02*
D03*
X-92655Y69752D02*
D03*
X-96592Y61878D02*
D03*
X-92655Y54004D02*
D03*
X-96592Y46130D02*
D03*
X-100530Y69752D02*
D03*
X-104466Y61878D02*
D03*
X-100530Y54004D02*
D03*
X-104466Y46130D02*
D03*
X-108404Y69752D02*
D03*
X-112340Y61878D02*
D03*
X-108404Y54004D02*
D03*
X-112340Y46130D02*
D03*
X-116278Y69752D02*
D03*
X-120214Y61878D02*
D03*
X-116278Y54004D02*
D03*
X-120214Y46130D02*
D03*
X-124152Y69752D02*
D03*
X-128089Y61878D02*
D03*
X-124152Y54004D02*
D03*
X-128089Y46130D02*
D03*
X-132026Y69752D02*
D03*
X-135963Y61878D02*
D03*
X-132026Y54004D02*
D03*
X-135963Y46130D02*
D03*
X-139900Y69752D02*
D03*
X-143837Y61878D02*
D03*
X-139900Y54004D02*
D03*
X-143837Y46130D02*
D03*
X-147774Y69752D02*
D03*
Y54004D02*
D03*
X-151711Y46130D02*
D03*
X-155648Y69752D02*
D03*
X-159585Y46130D02*
D03*
X-163522Y69752D02*
D03*
X-167459Y61878D02*
D03*
Y46130D02*
D03*
X-171396Y69752D02*
D03*
X-175333Y61878D02*
D03*
X-171396Y54004D02*
D03*
X-175333Y46130D02*
D03*
X-179270Y69752D02*
D03*
X-183207Y61878D02*
D03*
X-179270Y54004D02*
D03*
X-183207Y46130D02*
D03*
X-187144Y69752D02*
D03*
X-191081Y61878D02*
D03*
X-187144Y54004D02*
D03*
X-191081Y46130D02*
D03*
X-195018Y69752D02*
D03*
X-198955Y61878D02*
D03*
X-195018Y54004D02*
D03*
X-198955Y46130D02*
D03*
X-202892Y69752D02*
D03*
X-206829Y61878D02*
D03*
X-202892Y54004D02*
D03*
X-206829Y46130D02*
D03*
X-210766Y69752D02*
D03*
X-214703Y61878D02*
D03*
X-210766Y54004D02*
D03*
X-214703Y46130D02*
D03*
X-218640Y69752D02*
D03*
X-222577Y61878D02*
D03*
X-218640Y54004D02*
D03*
X-222577Y46130D02*
D03*
X-226514Y69752D02*
D03*
X-230451Y61878D02*
D03*
X-226514Y54004D02*
D03*
X-230451Y46130D02*
D03*
X-234388Y69752D02*
D03*
X-238325Y61878D02*
D03*
X-234388Y54004D02*
D03*
X-238325Y46130D02*
D03*
X-242262Y69752D02*
D03*
X-246199Y61878D02*
D03*
X-242262Y54004D02*
D03*
X-246199Y46130D02*
D03*
X-250136Y69752D02*
D03*
X-254073Y61878D02*
D03*
X-250136Y54004D02*
D03*
X-254073Y46130D02*
D03*
X-258010Y69752D02*
D03*
X-261947Y61878D02*
D03*
X-258010Y54004D02*
D03*
X-261947Y46130D02*
D03*
X-265884Y69752D02*
D03*
X-269821Y61878D02*
D03*
X-265884Y54004D02*
D03*
X-269821Y46130D02*
D03*
X-273758Y69752D02*
D03*
X-277695Y61878D02*
D03*
X-273758Y54004D02*
D03*
X-277695Y46130D02*
D03*
X-281632Y69752D02*
D03*
X-285569Y61878D02*
D03*
X-281632Y54004D02*
D03*
X-285569Y46130D02*
D03*
X-289506Y69752D02*
D03*
X-293443Y61878D02*
D03*
X-289506Y54004D02*
D03*
X-293443Y46130D02*
D03*
X-297380Y69752D02*
D03*
X-301317Y61878D02*
D03*
X-297380Y54004D02*
D03*
X-301317Y46130D02*
D03*
X-305254Y69752D02*
D03*
X-309191Y61878D02*
D03*
X-305254Y54004D02*
D03*
X-309191Y46130D02*
D03*
X-313128Y69752D02*
D03*
X-317065Y46130D02*
D03*
X-321002Y69752D02*
D03*
X-324939Y46130D02*
D03*
X-328876Y69752D02*
D03*
X-332813Y61878D02*
D03*
Y46130D02*
D03*
X-336750Y69752D02*
D03*
X-340687Y61878D02*
D03*
X-336750Y54004D02*
D03*
X-340687Y46130D02*
D03*
X-344624Y69752D02*
D03*
X-348561Y61878D02*
D03*
X-344624Y54004D02*
D03*
X-348561Y46130D02*
D03*
X-352498Y69752D02*
D03*
X-356435Y61878D02*
D03*
X-352498Y54004D02*
D03*
X-356435Y46130D02*
D03*
X-360372Y69752D02*
D03*
X-364309Y61878D02*
D03*
X-360372Y54004D02*
D03*
X-364309Y46130D02*
D03*
X-368246Y69752D02*
D03*
X-372183Y61878D02*
D03*
X-368246Y54004D02*
D03*
X-372183Y46130D02*
D03*
X-376120Y69752D02*
D03*
X-380057Y61878D02*
D03*
X-376120Y54004D02*
D03*
X-380057Y46130D02*
D03*
X182935Y-284578D02*
D03*
Y-300326D02*
D03*
X178998Y-308201D02*
D03*
X175061Y-284578D02*
D03*
X171124Y-308201D02*
D03*
X167187Y-284578D02*
D03*
X163250Y-308201D02*
D03*
X159313Y-284578D02*
D03*
X155376Y-292453D02*
D03*
X159313Y-300326D02*
D03*
X155376Y-308201D02*
D03*
X151439Y-284578D02*
D03*
X147502Y-292453D02*
D03*
X151439Y-300326D02*
D03*
X147502Y-308201D02*
D03*
X143565Y-284578D02*
D03*
X139628Y-292453D02*
D03*
X143565Y-300326D02*
D03*
X139628Y-308201D02*
D03*
X135691Y-284578D02*
D03*
X131754Y-292453D02*
D03*
X135691Y-300326D02*
D03*
X131754Y-308201D02*
D03*
X127817Y-284578D02*
D03*
X123880Y-292453D02*
D03*
X127817Y-300326D02*
D03*
X123880Y-308201D02*
D03*
X119943Y-284578D02*
D03*
X116006Y-292453D02*
D03*
X119943Y-300326D02*
D03*
X116006Y-308201D02*
D03*
X112069Y-284578D02*
D03*
X108132Y-292453D02*
D03*
X112069Y-300326D02*
D03*
X108132Y-308201D02*
D03*
X104195Y-284578D02*
D03*
X100258Y-292453D02*
D03*
X104195Y-300326D02*
D03*
X100258Y-308201D02*
D03*
X96321Y-284578D02*
D03*
X92384Y-292453D02*
D03*
X96321Y-300326D02*
D03*
X92384Y-308201D02*
D03*
X88447Y-284578D02*
D03*
X84510Y-292453D02*
D03*
X88447Y-300326D02*
D03*
X84510Y-308201D02*
D03*
X80573Y-284578D02*
D03*
X76636Y-292453D02*
D03*
X80573Y-300326D02*
D03*
X76636Y-308201D02*
D03*
X72699Y-284578D02*
D03*
X68762Y-292453D02*
D03*
X72699Y-300326D02*
D03*
X68762Y-308201D02*
D03*
X64825Y-284578D02*
D03*
X60888Y-292453D02*
D03*
X64825Y-300326D02*
D03*
X60888Y-308201D02*
D03*
X56951Y-284578D02*
D03*
X53014Y-292453D02*
D03*
X56951Y-300326D02*
D03*
X53014Y-308201D02*
D03*
X49077Y-284578D02*
D03*
X45140Y-292453D02*
D03*
X49077Y-300326D02*
D03*
X45140Y-308201D02*
D03*
X41203Y-284578D02*
D03*
X37266Y-292453D02*
D03*
X41203Y-300326D02*
D03*
X37266Y-308201D02*
D03*
X33329Y-284578D02*
D03*
X29392Y-292453D02*
D03*
X33329Y-300326D02*
D03*
X29392Y-308201D02*
D03*
X25455Y-284578D02*
D03*
X21518Y-292453D02*
D03*
X25455Y-300326D02*
D03*
X21518Y-308201D02*
D03*
X17581Y-284578D02*
D03*
X13644Y-292453D02*
D03*
X17581Y-300326D02*
D03*
X13644Y-308201D02*
D03*
X9707Y-284578D02*
D03*
X5770Y-292453D02*
D03*
X9707Y-300326D02*
D03*
X5770Y-308201D02*
D03*
X1833Y-284578D02*
D03*
X-2104Y-292453D02*
D03*
X1833Y-300326D02*
D03*
X-2104Y-308201D02*
D03*
X-6041Y-284578D02*
D03*
X-9978Y-292453D02*
D03*
X-6041Y-300326D02*
D03*
X-9978Y-308201D02*
D03*
X-13915Y-284578D02*
D03*
X-17852Y-292453D02*
D03*
X-13915Y-300326D02*
D03*
X-17852Y-308201D02*
D03*
X-21789Y-284578D02*
D03*
X-25726Y-292453D02*
D03*
X-21789Y-300326D02*
D03*
X-25726Y-308201D02*
D03*
X-29663Y-284578D02*
D03*
X-33600Y-292453D02*
D03*
X-29663Y-300326D02*
D03*
X-33600Y-308201D02*
D03*
X-37537Y-284578D02*
D03*
X-41474Y-292453D02*
D03*
X-37537Y-300326D02*
D03*
X-41474Y-308201D02*
D03*
X-45411Y-284578D02*
D03*
Y-300326D02*
D03*
X-49348Y-308201D02*
D03*
X-53285Y-284578D02*
D03*
X-57222Y-308201D02*
D03*
X-61159Y-284578D02*
D03*
X-65096Y-308201D02*
D03*
X-69033Y-284578D02*
D03*
X-72970Y-292453D02*
D03*
X-69033Y-300326D02*
D03*
X-72970Y-308201D02*
D03*
X-76907Y-284578D02*
D03*
X-80844Y-292453D02*
D03*
X-76907Y-300326D02*
D03*
X-80844Y-308201D02*
D03*
X-84781Y-284578D02*
D03*
X-88718Y-292453D02*
D03*
X-84781Y-300326D02*
D03*
X-88718Y-308201D02*
D03*
X-92655Y-284578D02*
D03*
X-96592Y-292453D02*
D03*
X-92655Y-300326D02*
D03*
X-96592Y-308201D02*
D03*
X-100530Y-284578D02*
D03*
X-104466Y-292453D02*
D03*
X-100530Y-300326D02*
D03*
X-104466Y-308201D02*
D03*
X-108404Y-284578D02*
D03*
X-112340Y-292453D02*
D03*
X-108404Y-300326D02*
D03*
X-112340Y-308201D02*
D03*
X-116278Y-284578D02*
D03*
X-120214Y-292453D02*
D03*
X-116278Y-300326D02*
D03*
X-120214Y-308201D02*
D03*
X-124152Y-284578D02*
D03*
X-128089Y-292453D02*
D03*
X-124152Y-300326D02*
D03*
X-128089Y-308201D02*
D03*
X-132026Y-284578D02*
D03*
X-135963Y-292453D02*
D03*
X-132026Y-300326D02*
D03*
X-135963Y-308201D02*
D03*
X-139900Y-284578D02*
D03*
X-143837Y-292453D02*
D03*
X-139900Y-300326D02*
D03*
X-143837Y-308201D02*
D03*
X-147774Y-284578D02*
D03*
Y-300326D02*
D03*
X-151711Y-308201D02*
D03*
X-155648Y-284578D02*
D03*
X-159585Y-308201D02*
D03*
X-163522Y-284578D02*
D03*
X-167459Y-308201D02*
D03*
X-171396Y-284578D02*
D03*
X-175333Y-292453D02*
D03*
X-171396Y-300326D02*
D03*
X-175333Y-308201D02*
D03*
X-179270Y-284578D02*
D03*
X-183207Y-292453D02*
D03*
X-179270Y-300326D02*
D03*
X-183207Y-308201D02*
D03*
X-187144Y-284578D02*
D03*
X-191081Y-292453D02*
D03*
X-187144Y-300326D02*
D03*
X-191081Y-308201D02*
D03*
X-195018Y-284578D02*
D03*
X-198955Y-292453D02*
D03*
X-195018Y-300326D02*
D03*
X-198955Y-308201D02*
D03*
X-202892Y-284578D02*
D03*
X-206829Y-292453D02*
D03*
X-202892Y-300326D02*
D03*
X-206829Y-308201D02*
D03*
X-210766Y-284578D02*
D03*
X-214703Y-292453D02*
D03*
X-210766Y-300326D02*
D03*
X-214703Y-308201D02*
D03*
X-218640Y-284578D02*
D03*
X-222577Y-292453D02*
D03*
X-218640Y-300326D02*
D03*
X-222577Y-308201D02*
D03*
X-226514Y-284578D02*
D03*
X-230451Y-292453D02*
D03*
X-226514Y-300326D02*
D03*
X-230451Y-308201D02*
D03*
X-234388Y-284578D02*
D03*
X-238325Y-292453D02*
D03*
X-234388Y-300326D02*
D03*
X-238325Y-308201D02*
D03*
X-242262Y-284578D02*
D03*
X-246199Y-292453D02*
D03*
X-242262Y-300326D02*
D03*
X-246199Y-308201D02*
D03*
X-250136Y-284578D02*
D03*
X-254073Y-292453D02*
D03*
X-250136Y-300326D02*
D03*
X-254073Y-308201D02*
D03*
X-258010Y-284578D02*
D03*
X-261947Y-292453D02*
D03*
X-258010Y-300326D02*
D03*
X-261947Y-308201D02*
D03*
X-265884Y-284578D02*
D03*
X-269821Y-292453D02*
D03*
X-265884Y-300326D02*
D03*
X-269821Y-308201D02*
D03*
X-273758Y-284578D02*
D03*
X-277695Y-292453D02*
D03*
X-273758Y-300326D02*
D03*
X-277695Y-308201D02*
D03*
X-281632Y-284578D02*
D03*
X-285569Y-292453D02*
D03*
X-281632Y-300326D02*
D03*
X-285569Y-308201D02*
D03*
X-289506Y-284578D02*
D03*
X-293443Y-292453D02*
D03*
X-289506Y-300326D02*
D03*
X-293443Y-308201D02*
D03*
X-297380Y-284578D02*
D03*
X-301317Y-292453D02*
D03*
X-297380Y-300326D02*
D03*
X-301317Y-308201D02*
D03*
X-305254Y-284578D02*
D03*
X-309191Y-292453D02*
D03*
X-305254Y-300326D02*
D03*
X-309191Y-308201D02*
D03*
X-313128Y-284578D02*
D03*
Y-300326D02*
D03*
X-317065Y-308201D02*
D03*
X-324939D02*
D03*
X-328876Y-284578D02*
D03*
X-332813Y-292453D02*
D03*
X-328876Y-300326D02*
D03*
X-332813Y-308201D02*
D03*
M02*
