G04*
G04 #@! TF.GenerationSoftware,Altium Limited,Altium Designer,19.1.7 (138)*
G04*
G04 Layer_Color=128*
%FSLAX25Y25*%
%MOIN*%
G70*
G01*
G75*
%ADD20R,0.01575X0.03740*%
%ADD21R,0.03347X0.02165*%
%ADD22R,0.02362X0.01378*%
%ADD23R,0.01575X0.01772*%
%ADD24R,0.02441X0.02441*%
%ADD25R,0.02284X0.02441*%
%ADD26R,0.02441X0.02441*%
%ADD28R,0.03937X0.03937*%
%ADD32R,0.02441X0.02284*%
%ADD36R,0.03740X0.01575*%
%ADD41R,0.01772X0.01575*%
%ADD57R,0.05512X0.04134*%
%ADD68R,0.04921X0.07087*%
%ADD70R,0.04921X0.02362*%
%ADD195R,0.04134X0.02559*%
%ADD196R,0.01654X0.01811*%
%ADD197R,0.02362X0.04134*%
%ADD198R,0.02559X0.03347*%
%ADD199R,0.01378X0.02362*%
%ADD200R,0.01968X0.03543*%
%ADD201R,0.04134X0.05512*%
%ADD202R,0.07087X0.04528*%
%ADD203R,0.01811X0.01654*%
%ADD204R,0.03740X0.01968*%
%ADD205R,0.02165X0.03347*%
%ADD206R,0.03937X0.03543*%
%ADD207R,0.03543X0.03937*%
%ADD208R,0.03937X0.03740*%
D20*
X177657Y-121457D02*
D03*
X180217D02*
D03*
X182776D02*
D03*
Y-130118D02*
D03*
X180217D02*
D03*
X177657D02*
D03*
X155610Y-260630D02*
D03*
X158169D02*
D03*
X160728D02*
D03*
Y-269291D02*
D03*
X158169D02*
D03*
X155610D02*
D03*
X170497Y-136221D02*
D03*
X167938D02*
D03*
X165379D02*
D03*
Y-127559D02*
D03*
X167938D02*
D03*
X170497D02*
D03*
D21*
X174146Y-113038D02*
D03*
X182413Y-115597D02*
D03*
Y-110478D02*
D03*
D22*
X170079Y-217028D02*
D03*
Y-213878D02*
D03*
X174409Y-215453D02*
D03*
X-329724Y-255709D02*
D03*
X-325394Y-257283D02*
D03*
Y-254134D02*
D03*
D23*
X35256Y-43298D02*
D03*
Y-46054D02*
D03*
X66929Y-137205D02*
D03*
Y-134449D02*
D03*
X7874Y-121555D02*
D03*
Y-118799D02*
D03*
X31594Y-66339D02*
D03*
Y-63583D02*
D03*
X47244Y-97933D02*
D03*
Y-95177D02*
D03*
X24213Y-111614D02*
D03*
Y-108858D02*
D03*
X23771Y-105709D02*
D03*
Y-102953D02*
D03*
X31496Y-93897D02*
D03*
Y-91142D02*
D03*
Y-86023D02*
D03*
Y-83268D02*
D03*
Y-101772D02*
D03*
Y-99016D02*
D03*
X27559Y-87205D02*
D03*
Y-89960D02*
D03*
X19685D02*
D03*
Y-87205D02*
D03*
X31496Y-106890D02*
D03*
Y-109646D02*
D03*
X27362Y-101772D02*
D03*
Y-99016D02*
D03*
X15748D02*
D03*
Y-101772D02*
D03*
Y-91142D02*
D03*
Y-93897D02*
D03*
X11811Y-89960D02*
D03*
Y-87205D02*
D03*
X35433Y-101772D02*
D03*
Y-99016D02*
D03*
X27559Y-106890D02*
D03*
Y-109646D02*
D03*
X35433Y-93897D02*
D03*
Y-91142D02*
D03*
X23869Y-87894D02*
D03*
Y-85138D02*
D03*
X35433Y-109646D02*
D03*
Y-106890D02*
D03*
X19685Y-101772D02*
D03*
Y-99016D02*
D03*
Y-109646D02*
D03*
Y-106890D02*
D03*
X19783Y-75394D02*
D03*
Y-78150D02*
D03*
X15748Y-86023D02*
D03*
Y-83268D02*
D03*
X31398Y-122638D02*
D03*
Y-125394D02*
D03*
X35433Y-121457D02*
D03*
Y-118701D02*
D03*
X15748Y-106890D02*
D03*
Y-109646D02*
D03*
X15846Y-133268D02*
D03*
Y-130512D02*
D03*
X31496Y-133268D02*
D03*
Y-130512D02*
D03*
X16035Y-157087D02*
D03*
Y-159843D02*
D03*
X19587Y-130512D02*
D03*
Y-133268D02*
D03*
X15748Y-121457D02*
D03*
Y-118701D02*
D03*
X-13574Y-115059D02*
D03*
Y-112303D02*
D03*
X-7874Y-129331D02*
D03*
Y-126575D02*
D03*
X-15748Y-82087D02*
D03*
Y-79331D02*
D03*
X-13386Y-70669D02*
D03*
Y-67913D02*
D03*
X51181Y-83268D02*
D03*
Y-86024D02*
D03*
X63386Y-77559D02*
D03*
Y-74803D02*
D03*
X66831Y-114764D02*
D03*
Y-117520D02*
D03*
X7874Y-55709D02*
D03*
Y-58464D02*
D03*
X100258Y-200267D02*
D03*
Y-197511D02*
D03*
X109724Y-183994D02*
D03*
Y-186750D02*
D03*
X39567Y-81890D02*
D03*
Y-79134D02*
D03*
X35433Y-79331D02*
D03*
Y-82086D02*
D03*
X55118Y-110827D02*
D03*
Y-113583D02*
D03*
X11811Y-109646D02*
D03*
Y-106890D02*
D03*
X39370Y-109646D02*
D03*
Y-106890D02*
D03*
X43307Y-82087D02*
D03*
Y-79331D02*
D03*
D24*
X65142Y28518D02*
D03*
Y32061D02*
D03*
X12697Y-207874D02*
D03*
Y-204331D02*
D03*
X-16535Y-229803D02*
D03*
Y-233347D02*
D03*
X163976Y-17618D02*
D03*
Y-14075D02*
D03*
X170669Y-34449D02*
D03*
Y-37992D02*
D03*
X162402Y-36417D02*
D03*
Y-39961D02*
D03*
X28740Y-77699D02*
D03*
Y-74155D02*
D03*
X27165Y-67126D02*
D03*
Y-70669D02*
D03*
X23228Y-67126D02*
D03*
Y-70669D02*
D03*
X125295Y26969D02*
D03*
Y30512D02*
D03*
X140650Y-39961D02*
D03*
Y-43504D02*
D03*
X162065Y-94299D02*
D03*
Y-90756D02*
D03*
X-96358Y-214567D02*
D03*
Y-211024D02*
D03*
X-51279Y-265059D02*
D03*
Y-261516D02*
D03*
X143405Y-205315D02*
D03*
Y-208858D02*
D03*
D25*
X168917Y-236024D02*
D03*
X172618D02*
D03*
X153248Y-101347D02*
D03*
X156949D02*
D03*
X116850Y-265470D02*
D03*
X120551D02*
D03*
X141850Y-137894D02*
D03*
X145551D02*
D03*
X-3760Y-67913D02*
D03*
X-7461D02*
D03*
Y-71752D02*
D03*
X-3760D02*
D03*
X-177D02*
D03*
X3524D02*
D03*
Y-67913D02*
D03*
X-177D02*
D03*
X-22421Y-250295D02*
D03*
X-18721D02*
D03*
X161890Y-184744D02*
D03*
X158189D02*
D03*
X57311Y-178687D02*
D03*
X61012D02*
D03*
X-51850Y-240945D02*
D03*
X-48150D02*
D03*
X-42795Y-244783D02*
D03*
X-39094D02*
D03*
X-51850Y-248622D02*
D03*
X-48150D02*
D03*
X-39094Y-240945D02*
D03*
X-42795D02*
D03*
X-51850Y-244783D02*
D03*
X-48150D02*
D03*
X-42795Y-248622D02*
D03*
X-39094D02*
D03*
X24528Y-130807D02*
D03*
X28228D02*
D03*
X-27244Y-101378D02*
D03*
X-23543D02*
D03*
X-27067Y-148031D02*
D03*
X-23366D02*
D03*
X-26949Y-124803D02*
D03*
X-23248D02*
D03*
X-118Y-82965D02*
D03*
X-3819D02*
D03*
X24094Y-227933D02*
D03*
X20394D02*
D03*
X-20650Y-208071D02*
D03*
X-16949D02*
D03*
X61004Y-171555D02*
D03*
X57303D02*
D03*
X152677Y-13976D02*
D03*
X156378D02*
D03*
Y-17815D02*
D03*
X152677D02*
D03*
X154902Y-238878D02*
D03*
X151201D02*
D03*
X155098Y-158366D02*
D03*
X151398D02*
D03*
X156772Y-59055D02*
D03*
X153071D02*
D03*
X159541Y15453D02*
D03*
X155841D02*
D03*
X-22067Y-237992D02*
D03*
X-25768D02*
D03*
X125020Y-265453D02*
D03*
X128720D02*
D03*
X-115335Y-228543D02*
D03*
X-111634D02*
D03*
X-115335Y-233563D02*
D03*
X-111634D02*
D03*
X-141909Y-258563D02*
D03*
X-138209D02*
D03*
X116417Y-149803D02*
D03*
X112716D02*
D03*
X169646Y15650D02*
D03*
X165945D02*
D03*
X169370Y-246654D02*
D03*
X165669D02*
D03*
X-151949Y-267421D02*
D03*
X-148248D02*
D03*
X129055Y26969D02*
D03*
X132756D02*
D03*
X-148248Y-258563D02*
D03*
X-151949D02*
D03*
X-122953Y-263583D02*
D03*
X-126654D02*
D03*
X-96437Y-244094D02*
D03*
X-92736D02*
D03*
X-48150Y-237106D02*
D03*
X-51850D02*
D03*
X-88799Y-263878D02*
D03*
X-92500D02*
D03*
X-84469Y-256988D02*
D03*
X-88169D02*
D03*
X-48150Y-233268D02*
D03*
X-51850D02*
D03*
X-88799Y-267717D02*
D03*
X-92500D02*
D03*
X161950Y-122100D02*
D03*
X158250D02*
D03*
X169350D02*
D03*
X165650D02*
D03*
X141516Y-90839D02*
D03*
X137815D02*
D03*
Y-95846D02*
D03*
X141516D02*
D03*
X170197Y-231693D02*
D03*
X173898D02*
D03*
X-43819Y-260236D02*
D03*
X-47520D02*
D03*
X173211Y2362D02*
D03*
X176912D02*
D03*
X174094Y-190256D02*
D03*
X170394D02*
D03*
X175669Y-13976D02*
D03*
X171968D02*
D03*
X175140Y-149939D02*
D03*
X178841D02*
D03*
X-126063Y-228543D02*
D03*
X-122362D02*
D03*
X-148248Y-263583D02*
D03*
X-151949D02*
D03*
X-11890Y-62598D02*
D03*
X-8189D02*
D03*
X-192901Y-252165D02*
D03*
X-189200D02*
D03*
D26*
X145374Y-134350D02*
D03*
X141831D02*
D03*
X165847Y-100394D02*
D03*
X169390D02*
D03*
X-2067Y-229724D02*
D03*
X1476D02*
D03*
X151279Y-242815D02*
D03*
X154823D02*
D03*
X154823Y-234941D02*
D03*
X151279D02*
D03*
X155020Y-154528D02*
D03*
X151476D02*
D03*
X151378Y-162303D02*
D03*
X154921D02*
D03*
X156693Y-55118D02*
D03*
X153150D02*
D03*
Y-62992D02*
D03*
X156693D02*
D03*
X159567Y19488D02*
D03*
X156024D02*
D03*
X155905Y11614D02*
D03*
X159449D02*
D03*
X-43701Y-266831D02*
D03*
X-47244D02*
D03*
X-22343Y-254232D02*
D03*
X-18799D02*
D03*
X-12500Y-191043D02*
D03*
X-8957D02*
D03*
X-5413Y-168012D02*
D03*
X-8957D02*
D03*
X23819Y-59055D02*
D03*
X27362D02*
D03*
X-60827Y-263878D02*
D03*
X-57284D02*
D03*
D28*
X-91339Y-208760D02*
D03*
Y-214665D02*
D03*
X25000Y-122047D02*
D03*
Y-116142D02*
D03*
X27362Y-217106D02*
D03*
Y-223012D02*
D03*
X18307Y-238779D02*
D03*
Y-232874D02*
D03*
X-30217Y-226279D02*
D03*
Y-232185D02*
D03*
D32*
X-35236Y-222559D02*
D03*
Y-226260D02*
D03*
X-55709D02*
D03*
Y-222559D02*
D03*
X178900Y18450D02*
D03*
Y14750D02*
D03*
X125787Y-243721D02*
D03*
Y-247421D02*
D03*
X169370Y-254606D02*
D03*
Y-250905D02*
D03*
X19488Y-44499D02*
D03*
Y-48200D02*
D03*
X138091Y-138110D02*
D03*
Y-141811D02*
D03*
X5276Y-249902D02*
D03*
Y-253602D02*
D03*
X136909Y-43583D02*
D03*
Y-39882D02*
D03*
X58677Y32207D02*
D03*
Y28506D02*
D03*
X7579Y-204252D02*
D03*
Y-207953D02*
D03*
X12697Y-232658D02*
D03*
Y-228957D02*
D03*
X-14469Y-125885D02*
D03*
Y-122184D02*
D03*
X170669Y-26988D02*
D03*
Y-30689D02*
D03*
X160138Y-17697D02*
D03*
Y-13996D02*
D03*
X176912Y-58740D02*
D03*
Y-55039D02*
D03*
X175061Y14882D02*
D03*
Y18583D02*
D03*
X82382Y-251752D02*
D03*
Y-248051D02*
D03*
Y-255433D02*
D03*
Y-259134D02*
D03*
X39173Y-227539D02*
D03*
Y-223839D02*
D03*
Y-231221D02*
D03*
Y-234921D02*
D03*
X132619Y-265470D02*
D03*
Y-261770D02*
D03*
X137205Y-250057D02*
D03*
Y-253758D02*
D03*
X114469Y-158839D02*
D03*
Y-155138D02*
D03*
X47638Y-125906D02*
D03*
Y-129606D02*
D03*
X-17028Y-72126D02*
D03*
Y-68425D02*
D03*
X134941Y-216260D02*
D03*
Y-219961D02*
D03*
X138779D02*
D03*
Y-216260D02*
D03*
X175591Y-4882D02*
D03*
Y-1181D02*
D03*
X-141634Y-228524D02*
D03*
Y-224823D02*
D03*
X-101870Y-243976D02*
D03*
Y-240276D02*
D03*
X-55118Y-256890D02*
D03*
Y-253189D02*
D03*
X-80709Y-257067D02*
D03*
Y-253366D02*
D03*
X24508Y-138169D02*
D03*
Y-134468D02*
D03*
X154449Y-122047D02*
D03*
Y-118347D02*
D03*
X150610D02*
D03*
Y-122047D02*
D03*
X154331Y-108012D02*
D03*
Y-111713D02*
D03*
X150492Y-111693D02*
D03*
Y-107992D02*
D03*
X162008Y-100020D02*
D03*
Y-103720D02*
D03*
X118938Y-250746D02*
D03*
Y-254447D02*
D03*
X34457Y-53858D02*
D03*
Y-57559D02*
D03*
X41261Y-39882D02*
D03*
Y-43583D02*
D03*
X172539Y-195188D02*
D03*
Y-198889D02*
D03*
X165748Y-200177D02*
D03*
Y-196476D02*
D03*
X139567Y-205295D02*
D03*
Y-201594D02*
D03*
X-198137Y-250310D02*
D03*
Y-246609D02*
D03*
D36*
X159449Y-113681D02*
D03*
Y-111122D02*
D03*
Y-108563D02*
D03*
X168110D02*
D03*
Y-111122D02*
D03*
Y-113681D02*
D03*
X132558Y-251907D02*
D03*
Y-254466D02*
D03*
Y-257025D02*
D03*
X123897D02*
D03*
Y-254466D02*
D03*
Y-251907D02*
D03*
D41*
X54134Y-137008D02*
D03*
X51378D02*
D03*
X2314Y-92426D02*
D03*
X5070D02*
D03*
X66339Y-102362D02*
D03*
X63583D02*
D03*
X32087Y-114173D02*
D03*
X34843D02*
D03*
X62402Y-90551D02*
D03*
X59646D02*
D03*
X19094Y-55118D02*
D03*
X16339D02*
D03*
X-689Y-126083D02*
D03*
X-3445D02*
D03*
X11330Y-102953D02*
D03*
X8574D02*
D03*
X32480Y-74803D02*
D03*
X35236D02*
D03*
X24606Y-82382D02*
D03*
X27362D02*
D03*
X-2165Y-190748D02*
D03*
X591D02*
D03*
X22512Y-190945D02*
D03*
X25268D02*
D03*
X25591Y-160138D02*
D03*
X28346D02*
D03*
X19390D02*
D03*
X22146D02*
D03*
X197Y-160335D02*
D03*
X-2559D02*
D03*
X42717Y-133858D02*
D03*
X39961D02*
D03*
X-4528D02*
D03*
X-7283D02*
D03*
X39961Y-121843D02*
D03*
X42717D02*
D03*
X54134Y-134055D02*
D03*
X51378D02*
D03*
X-15157Y-137795D02*
D03*
X-12402D02*
D03*
X591Y-133858D02*
D03*
X3346D02*
D03*
X7283Y-125984D02*
D03*
X4528D02*
D03*
X47835Y-122047D02*
D03*
X50591D02*
D03*
X-12382Y-160236D02*
D03*
X-15138D02*
D03*
X16607Y-191080D02*
D03*
X19363D02*
D03*
X-3642Y-78642D02*
D03*
X-886D02*
D03*
X-15157Y-96260D02*
D03*
X-12402D02*
D03*
X50591Y-106299D02*
D03*
X47835D02*
D03*
X12402Y-66929D02*
D03*
X15157D02*
D03*
X-886Y-54449D02*
D03*
X-3642D02*
D03*
X12402Y-78740D02*
D03*
X15157D02*
D03*
X116043Y-179626D02*
D03*
X118799D02*
D03*
X39173Y-86417D02*
D03*
X36417D02*
D03*
X32480Y-118110D02*
D03*
X29724D02*
D03*
X43898Y-74803D02*
D03*
X46654D02*
D03*
X4528Y-106299D02*
D03*
X7283D02*
D03*
X38780Y-70866D02*
D03*
X36024D02*
D03*
X7283Y-110236D02*
D03*
X4528D02*
D03*
X39961Y-114173D02*
D03*
X42717D02*
D03*
X43898Y-70866D02*
D03*
X46654D02*
D03*
X50591Y-78740D02*
D03*
X47835D02*
D03*
X-243504Y-264862D02*
D03*
X-240748D02*
D03*
D57*
X-24902Y-69291D02*
D03*
Y-76378D02*
D03*
D68*
X-25000Y-84449D02*
D03*
Y-94685D02*
D03*
X-25098Y-107874D02*
D03*
Y-118110D02*
D03*
Y-131299D02*
D03*
Y-141535D02*
D03*
D70*
X145669Y-235039D02*
D03*
Y-238779D02*
D03*
Y-242520D02*
D03*
X135039D02*
D03*
Y-235039D02*
D03*
X135236Y-154724D02*
D03*
Y-162205D02*
D03*
X145866D02*
D03*
Y-158465D02*
D03*
Y-154724D02*
D03*
X136909Y-55216D02*
D03*
Y-62697D02*
D03*
X147539D02*
D03*
Y-58957D02*
D03*
Y-55216D02*
D03*
X165059Y-23228D02*
D03*
Y-26969D02*
D03*
Y-30709D02*
D03*
X154429D02*
D03*
Y-23228D02*
D03*
X139173Y19390D02*
D03*
Y11909D02*
D03*
X149803D02*
D03*
Y15650D02*
D03*
Y19390D02*
D03*
D195*
X-50492Y-226276D02*
D03*
Y-218795D02*
D03*
X-41437Y-222536D02*
D03*
D196*
X1477Y-179902D02*
D03*
Y-182500D02*
D03*
X71062Y-51850D02*
D03*
Y-49252D02*
D03*
Y-51850D02*
D03*
Y-54449D02*
D03*
X75000Y-51850D02*
D03*
Y-54449D02*
D03*
Y-51850D02*
D03*
Y-49252D02*
D03*
X183760Y-141654D02*
D03*
Y-139055D02*
D03*
X180709Y-141634D02*
D03*
Y-139035D02*
D03*
D197*
X-16437Y-213268D02*
D03*
X-12697D02*
D03*
X-8957D02*
D03*
Y-223898D02*
D03*
X-12697D02*
D03*
X-16437D02*
D03*
X149269Y-94299D02*
D03*
X153010D02*
D03*
X156750D02*
D03*
Y-83669D02*
D03*
X153010D02*
D03*
X149269D02*
D03*
X-2067Y-223898D02*
D03*
X1673D02*
D03*
X5413D02*
D03*
Y-213268D02*
D03*
X1673D02*
D03*
X-2067D02*
D03*
X-35138Y-264862D02*
D03*
X-31398D02*
D03*
X-27657D02*
D03*
Y-254232D02*
D03*
X-31398D02*
D03*
X-35138D02*
D03*
D198*
X30968Y-49400D02*
D03*
X24472D02*
D03*
Y-43298D02*
D03*
X30968D02*
D03*
D199*
X160827Y-148031D02*
D03*
X162402Y-143701D02*
D03*
X159252D02*
D03*
X-297000Y-246735D02*
D03*
X-298575Y-251065D02*
D03*
X-295425D02*
D03*
X-305254Y-246733D02*
D03*
X-306829Y-251063D02*
D03*
X-303679D02*
D03*
X-315551Y-254626D02*
D03*
X-317126Y-258957D02*
D03*
X-313976D02*
D03*
D200*
X20409Y-223158D02*
D03*
Y-212922D02*
D03*
X12732Y-223158D02*
D03*
Y-212922D02*
D03*
X-31496Y-237992D02*
D03*
Y-248228D02*
D03*
D201*
X145965Y-40157D02*
D03*
X153051D02*
D03*
D202*
X146161Y-21358D02*
D03*
Y-32776D02*
D03*
D203*
X107126Y-129547D02*
D03*
X109724D02*
D03*
X112323D02*
D03*
X109724D02*
D03*
X127342Y-34528D02*
D03*
X129941D02*
D03*
X132539D02*
D03*
X129941D02*
D03*
X107441Y-49606D02*
D03*
X110039D02*
D03*
X112638D02*
D03*
X110039D02*
D03*
X112638Y-54528D02*
D03*
X110039D02*
D03*
X107441D02*
D03*
X110039D02*
D03*
X132539Y-29528D02*
D03*
X129941D02*
D03*
X127342D02*
D03*
X129941D02*
D03*
X112323Y-134547D02*
D03*
X109724D02*
D03*
X107126D02*
D03*
X109724D02*
D03*
X132539Y-109449D02*
D03*
X129941D02*
D03*
X112638Y-34646D02*
D03*
X110039D02*
D03*
X107441D02*
D03*
X110039D02*
D03*
X107736Y-9547D02*
D03*
X110335D02*
D03*
X127342Y-114506D02*
D03*
X129941D02*
D03*
X132539Y-9528D02*
D03*
X129941D02*
D03*
X127302Y-14528D02*
D03*
X129900D02*
D03*
X127342Y-109449D02*
D03*
X129941D02*
D03*
X132539Y-114506D02*
D03*
X129941D02*
D03*
X127342Y-9528D02*
D03*
X129941D02*
D03*
X132498Y-14528D02*
D03*
X129900D02*
D03*
X112933Y-14665D02*
D03*
X110335D02*
D03*
X107736D02*
D03*
X110335D02*
D03*
X107441Y-29527D02*
D03*
X110039D02*
D03*
X112933Y-9547D02*
D03*
X110335D02*
D03*
X112638Y-29527D02*
D03*
X110039D02*
D03*
D204*
X151673Y-131988D02*
D03*
Y-126870D02*
D03*
X137697Y-127953D02*
D03*
Y-122835D02*
D03*
X145768Y-125394D02*
D03*
X137697Y-106193D02*
D03*
Y-101075D02*
D03*
X145768Y-103634D02*
D03*
X159744Y-129429D02*
D03*
X137697Y-117126D02*
D03*
Y-112008D02*
D03*
X145768Y-114567D02*
D03*
D205*
X176673Y-104724D02*
D03*
X179232Y-96457D02*
D03*
X174114D02*
D03*
D206*
X-293443Y-266858D02*
D03*
Y-260559D02*
D03*
D207*
X-276870Y-263681D02*
D03*
X-283169D02*
D03*
X-276821Y-246241D02*
D03*
X-283120D02*
D03*
D208*
X-101378Y-214567D02*
D03*
Y-208268D02*
D03*
M02*
