M48
;Layer_Color=9474304
;FILE_FORMAT=4:4
METRIC,LZ
;TYPE=PLATED
T1F00S00C0.1600
T2F00S00C0.2000
T3F00S00C0.3000
T4F00S00C0.4750
T5F00S00C0.5000
T6F00S00C0.5600
T7F00S00C0.8000
T8F00S00C1.7000
T9F00S00C2.2000
T10F00S00C2.7000
T11F00S00C3.0000
T12F00S00C4.6500
;TYPE=NON_PLATED
T13F00S00C1.3000
T14F00S00C1.5113
%
T01
X0034875Y-00652595
X00398475Y-0061175
X0035975Y-00554
X0036425Y-0051475
X0034675Y-00512
X0041475Y-005086
X0044875Y-004959
X00448Y-0048325
X00443234Y-00469025
X00398875Y-0040715
X00404655Y-00359284
X004125
X0041525Y-0035225
X0040175Y-00323307
X0037025Y-00324
X003655
X0043825Y-0032325
X0045425Y-0032225
X00461
X00469802Y-00312
X0019125Y-0049625
Y-005045
X00162643Y-0051625
X0014274Y-00532428
X0013872Y-005465
X00149001Y-005884
Y-005926
X0012075Y-00593
X00093Y-00596824
X000995Y-00582625
X00093Y-00566176
X000695Y-0054225
X00046275Y-00563454
X000261Y-0057725
X000134
X000007
X-00012
X-000247
X-000374
X-000485Y-0057725
X-000485Y-00555
X-0005525Y-005385
X-0004305Y-005175
X-0003525Y-0051
X-0003325Y-0050475
X-0002975Y-0049975
X-000247Y-0052325
X-00012
X000007
X000134
X000261
X000388
Y-0059975
X000325Y-0059975
X000261Y-0059975
X000134
X000007
X-00012
X-000247
X-000485Y-0060725
X-000615Y-0061235
X-00047183Y-00628044
X-0004175
X-000415Y-006385
X-000374Y-0065375
X-000247
X-00012
X000007
X000134
X000261
X000388
X0002075Y-0063475
X0005625Y-00595
X00063026Y-00595176
X001203Y-0063105
X00151Y-0062875
X0015575
X0015975Y-006642
X00202Y-00661324
X0020925Y-0064415
X00202Y-0062975
X0032478Y-0064622
X-000635Y-0065
X-0001752Y-00555
X0012375Y-0043975
X00117001Y-004305
X-0008425Y-0055525
X-00088889Y-0055526
X-0008925Y-0058
X-00095155Y-0059
X-00115345Y-00595
Y-006
Y-006102
Y-00615
X-0011525Y-00625
Y-00635
X-00115297Y-00645
X-00095203Y-0064
Y-0065
X-000935Y-0063
X-00093405Y-0062
X-0014Y-006102
Y-0063755
X-00153Y-0064075
X-0016Y-00635
Y-006595
X-0015
X-0014Y-0065975
X-00135Y-006595
X-00145Y-006795
X-00155
X-00165
X-00175
X-00195Y-0068
X-002Y-0068
X-00215
X-0022
X-00215Y-006595
X-0021
X-00205
X-0019225Y-0065975
X-0018
X-0017Y-006595
X-00205Y-00638
X-002295Y-0064
Y-00635
Y-0063
Y-0062
Y-00605
Y-00595
Y-0059
Y-00575
Y-00565
X-0025Y-0057
Y-0058
Y-00615
X-0025Y-00625
X-002295Y-0065295
X-002405Y-0067025
X-0024375Y-006765
X-0030425Y-006695
X-003962Y-0065675
X-00454156Y-0066175
X-00116674Y-0057
X-00114Y-0054575
X-00474656Y-006275
Y-00634
Y-006405
X-00496656
Y-00634
Y-006275
Y-0065525
Y-0066175
X00330204Y-0021696
Y-0021276
X00310904Y000685
X0023175Y0000125
X0041775Y0002125
X0041Y000365
X00400905Y-00114267
X0040325Y-00155
X0043275Y-0015325
X0041725Y-0024825
X00413Y-00283
X00430402Y-00300561
X0038625Y-0026775
X00367Y-00257422
X0037325Y-0024024
X00373345Y-0020927
X00346Y-0025
X003615Y-0028275
T02
X00348448Y-00661318
X0038175Y-0066525
X00382444Y-006245
X0041625Y-006165
X0042095Y-0061201
X0042725Y-006165
X0043345Y-0061201
X0043825Y-006165
Y-006055
X0042725
X0041625
X0044831Y-00599948
X0044575Y-00620031
X00459Y-00616948
X00470822Y-00597916
X0043225Y-0058025
X0043775Y-0055125
X00437Y-005465
X0040175Y-00462
X00362821Y-00446625
X00385444Y-00419281
X00419Y-0041575
X0043
X00441
X0043575Y-0041
X00441Y-0040475
X0043
X004245Y-0041025
X00419Y-0040475
X00435Y-003795
X00453898Y-00365506
X00459Y-00365
X0046675Y-0036575
X00473108Y-00382016
X0047675Y-0034475
X0046183Y-00346
X00443945Y-0032825
X00393768Y-00323307
X0037825Y-003262
Y-003316
X0036075Y-00324
X0034275Y-0032135
Y-0031595
X00336362Y-00322664
X0035475Y-00342
X00343469Y-00360778
X004485Y-00419281
X004745Y-0042475
X00487122Y-00657913
X0042275Y-0067775
X0041525Y-0068625
X00324655Y-00656806
X0031525Y-0066475
X002785Y-0066525
Y-0065775
Y-0064875
X0027775Y-00642
Y-0063425
X002695Y-0063426
X00246Y-00638
X0030775Y-00631276
X00324655Y-0063674
X00323604Y-00513178
X00298204
X00285504
X00272804
X00260104
X00247404
X00234704
X00222004
X00209304
Y-00500478
X00222004
X00234704
Y-00487778
Y-00475078
X00247404
Y-00462378
X00234704
Y-00449678
Y-00436978
X00247404
Y-00424278
X00234704
Y-00411578
Y-00398878
X00247404
Y-00386178
Y-00373478
Y-00360778
Y-00348078
X00234704
Y-00335378
Y-00322678
X00247404
Y-00309978
X00234704
X00209304
Y-00348078
X00222004Y-00335378
X00247404
X00271Y-00336303
X0027686Y-00336296
X00285504Y-00335378
X00298204
Y-00348078
X00285504
X0027686Y-00348996
X00271Y-00349003
X00260104Y-00348078
X00260733Y-00323307
X00260104Y-00309978
X00285504
Y-00322678
X00298204
Y-00309978
X00323604
Y-00322678
Y-00335378
Y-00348078
Y-00360778
Y-00373478
Y-00386178
Y-00398878
Y-00411578
Y-00424278
X00310904Y-00436978
Y-00449678
X00298204Y-00462378
X00285504
Y-00475078
Y-00487778
Y-00500478
X00272804
X00260104
X00247404
Y-00487778
X00222004
X00209304Y-00462378
X00222004Y-00449678
X00247404
X00260104Y-00462378
X00272804Y-00449678
X00285504
X00298204Y-00436978
Y-00424278
Y-00411578
Y-00398878
Y-00386178
X00310904
Y-00398878
X0028625Y-0038775
X00298204Y-00373478
Y-00360778
X00285504
X00272804Y-00373478
X00260104Y-00386178
X00234704
Y-00373478
Y-00360778
X00222004Y-00373478
X00209304Y-00386178
X00191Y-00393
X00157Y-004025
X0015675Y-00417
X00165Y-004445
X00162643Y-00453563
X001725Y-0051775
X00172558Y-0052475
Y-005315
Y-0053725
Y-0054875
X0020279Y-00535758
X00272804Y-00487778
X00298204
Y-00500478
X00310904
Y-00487778
X00323604Y-00475078
Y-00462378
X00260104Y-00424278
X00247404Y-00411578
X00222004
X00209304Y-00424278
X00272804Y-00411578
X00310904Y-00348078
Y-00335378
X00175Y-00335
Y-00345
Y-00355
X00165
Y-00345
Y-00335
Y-00325
X00175
Y-00315
X00165
X00155
X00145
X00135
Y-00325
X00145
X00155
Y-00335
X00145
Y-00345
X00155
X00125Y-00335
X00115
X00105
Y-00345
X00095
Y-00355
X00105
X00115
X00085
X00075
Y-00345
X00085
Y-00335
Y-00325
X00075
Y-00315
X00085
X00095
X00105
Y-00325
X00115
Y-00315
X00125
Y-00305
X00135
X00145
X00155
X00175
X00115
X00095
X00085
X00075
X00055
Y-00315
Y-00325
Y-00335
Y-00345
Y-00355
X00045
X00035
Y-00345
Y-00335
X00045
Y-00345
X00025
Y-00335
Y-00325
X00015
X00005
Y-00335
Y-00345
X00015
Y-00355
X00005
X-00005
X-00015
X-00025
Y-00345
X-00035
Y-00335
X-00045Y-00325
Y-00315
Y-00305
X-00025
Y-00315
Y-00325
X-00015
Y-00335
Y-00345
X-00005
Y-00335
X-00015Y-00315
X-00005Y-00305
X00005
X00015
Y-00315
X00005
X00035
X00045
Y-00325
X00035
Y-00305
X00045
X00025
Y-00355
X00025Y-00413
X00033
X00033Y-00421
Y-00429
X00041
X00049
Y-00421
X00041
Y-00413
X00049
X00057
X00065
Y-00421
X00073
X00073Y-00413
Y-00429
X00065
X00057
Y-00421
X00025
X00017
Y-00413
X00009
Y-00421
Y-00429
X00017
X00025
X00001
X00001Y-00421
Y-00413
X-00007
X-00015
X-00023
X-00031
X-00039
Y-00429
Y-00461
X-00031
X-00039Y-00469
X-00039Y-00477
X-00031
X-00023
X-00015
X-00007
X00001
X00009
X00009Y-00469
X00017
X00025
X00025Y-00461
X00033
X00041
Y-00469
X00049
X00049Y-00461
X00057
X00065
Y-00469
X00073
X00073Y-00461
Y-00477
X00065
X00057
X00049
X00041
X00033
X00025
X00017
X00017Y-00461
X00009
X00001Y-00469
X-00007
X00033
X00057
X001255Y-004065
Y-00385178
X00144011Y-00377297
X-00035Y-00355
X-00045
X-0011075Y-00521
X-00135Y-00525
X-0014Y-005455
X-00145Y-0054575
X-0015Y-005455
X-00155
X-0016
X-00165
X-0017
X-00175
X-0018
X-00168Y-005235
X-00115595Y-00565
X-00095Y-0057
X-00274Y-005805
Y-0059325
X-0030325
Y-0058075
X-003668Y-005804
X-00366775Y-00571025
X-00405345Y-0058625
Y-0059325
X-0039925Y-0060595
X-0039575Y-006695
X-0036675
X-0036975Y-0067925
X-0036684Y-0065684
X-0034425Y-0065675
X-00329Y-006695
X-0025875Y-006275
X-00694252Y-00625451
X-00728
X-00735481Y-0062918
X-00735419Y-006215
X-00757136Y-006455
X-00757236Y-0065375
X-00769836Y-006455
X-00782536
X-00782636Y-0065375
X-00795236Y-006455
X-00807936
X-00829521Y-0062918
X-00829386Y-00669345
X-00728124Y-0066975
X-00735616Y-0067782
X-00694376Y-0066975
X-00025Y-00295
X-00005Y-00285
Y-00275
Y-00265
X-00015
X-00025Y-00255
X-00035
X-00045
Y-00235
X-00035
Y-00225
X-00045
Y-00215
X-00035
Y-00205
X-00045
Y-00195
X-00025Y-00185
Y-00175
Y-00165
X-00035
X-00045
Y-00155
Y-00145
X-00035
Y-00155
Y-00135
X-00045
X-00025
Y-00145
X-00015
Y-00155
X-00005
Y-00145
X00005
Y-00155
X00015
Y-00145
Y-00135
X00005
Y-0012725
Y-00165
X00015
X00025
Y-00155
X00035
X00045
Y-00145
X00035
Y-00165
X00045
Y-00175
X00035
Y-00185
X00045
Y-00195
X00035
X00025
Y-00185
Y-00175
X00015
X00005Y-00195
Y-00205
Y-00215
X00015
Y-00225
X00005
X-00005
X-00015
X-00025
Y-00215
Y-00205
X-00015
Y-00215
X-00015Y-00194198
X-00015Y-00165
X-00005
X00055Y-00155
X00055Y-00135
X00045
X00066
X000685Y-00123
X00075Y-00155
Y-00165
Y-00175
X00085
Y-00165
X00095
X00105
X00115
Y-00155
Y-00145
X00125
Y-00155
X00135
Y-00145
X00145
X00155
Y-00155
X00145
Y-00165
X00155
X00165
X00175
Y-00155
Y-00145
X00165
Y-00155
Y-00135
X00175
X001855Y-00135
Y-00145
X001955
Y-00135
Y-00115
X001855
X00209304Y-00119478
X00234704
Y-00132178
Y-00144878
Y-00157578
X00247404
Y-00170278
X00234704
Y-00182978
Y-00195678
Y-00208378
Y-00221078
Y-00233778
Y-00246478
Y-00259178
Y-00271878
Y-00284578
Y-00297278
X00222004
X00247404
Y-00284578
Y-00271878
X00260104
X00285504
Y-00259178
X00272804
X00247404
Y-00246478
Y-00233778
X00260104
X00285504
Y-00221078
X00272804
X00247404
Y-00208378
Y-00195678
X00260104
X00285504
X00298204
Y-00182978
X00285504
X00272804
X00247404
X00222004
X00209304Y-00195678
X00175Y-00195
Y-00185
Y-00175
X00165
Y-00185
Y-00195
Y-00205
Y-00215
X00175
Y-00225
Y-00235
X00165
X00155
X00145
X00135
X00125
Y-00225
Y-00215
X00115
Y-00205
X00125
X00135
X00145
X00155
Y-00215
X00145
Y-00225
X00155
X00165
X00135
Y-00215
Y-00195
Y-00185
X00145
X00155
Y-00195
X00145
Y-00175
X00155
X00135
Y-00165
X00125
Y-00175
X00115
X00105
X00095
Y-00185
X00105
Y-00195
X00095
X00085
Y-00205
X00095
X00105
Y-00215
X00095
X00085
X00075
Y-00205
Y-00225
X00085
X00095
X00105
Y-00235
X00095
X00085
X00075
X00065
X00055
Y-00225
Y-00215
Y-00205
X00045
X00035
X00025
Y-00215
Y-00225
Y-00235
Y-00244619
X00014858Y-00244738
X00005Y-00255
Y-00265
X00015
Y-00275
X00005
Y-00285
X00015
Y-00295
X00005
X00025
X00035
X00045
Y-00285
X00035
X00025
Y-00275
X00035
X00045
Y-00265
X00035
Y-00255
X00045
X00055
Y-00265
Y-00275
Y-00285
Y-00295
X00075
X00085
X00095
X00105
X00115
X00125
X00135
Y-00285
X00145
Y-00275
X00155
X00165
Y-00265
X00175
Y-00275
Y-00285
Y-00295
X00165Y-00285
X00145Y-00295
Y-00265
X00155
Y-00255
X00145
X00135
Y-00265
X00125
X00115
X00105
X00095
Y-00275
X00105
X00115
Y-00285
X00125
Y-00275
X00135
X00125Y-00255
X00115
X00105
X00095
X00085
Y-00265
Y-00275
Y-00285
X00095
X00105
X00075
Y-00275
Y-00265
Y-00255
X00025
X00035Y-00235
X00045
Y-00225
X00035
Y-00215
X00045
X00055Y-00185
X00065
Y-00195
Y-00165
X00085004Y-00154008
X00095Y-00155
Y-00145
X00105
Y-00155
Y-00135
X00095
X00115
X00125
X00135
X00145
X00155
X00209304Y-00157578
X00222004Y-00144878
X00247404
Y-00132178
Y-00119478
X00260104
X00271Y-00120403
X0027686Y-00120396
X00285504Y-00119478
Y-00106778
X00272804
X00271Y-00095003
X0027686Y-00094996
X00285504Y-00094078
X00298204
Y-00081378
X00285504
X0027686Y-00082296
X00271Y-00082303
X00260104Y-00081378
X00247404
Y-00094078
X00234704
Y-00106778
X00222004
X00247404
X00234704Y-00081378
Y-00068678
Y-00055978
X00222004
Y-00068678
X00209304Y-00081378
Y-00043278
Y-00030578
X00234704
X00247404
Y-00043278
Y-00055978
Y-00068678
X00272804
X00285504
Y-00055978
X00272804
X00271Y-00044203
X0027686Y-00044196
X00285504Y-00043278
X00298204
Y-00030578
X00285504
X0027686Y-00031496
X00271Y-00031503
X00260104Y-00030578
Y-00017878
X00272804
X00285504
X00298204
X00310904Y-00030578
X00323604
X00330204
X003301Y-00043278
X00323604
Y-00055978
Y-00068678
Y-00081378
X00330204
Y-00094078
X00323604
Y-00106778
Y-00119478
Y-00132178
Y-00144878
Y-00157578
Y-00170278
X00310904Y-00182978
Y-00195678
X00298204Y-00208378
Y-00221078
Y-00233778
Y-00246478
Y-00259178
Y-00271878
Y-00284578
Y-00297278
X00285504
X00272804
X00285504Y-00284578
X00310904
X00323604
X00330204
Y-00297423
X00323604Y-00297278
X00310904
X00323604Y-00271878
Y-00259178
X00310904Y-00246478
Y-00233778
X00323604Y-00221078
Y-00208378
X00330204Y-00207929
X00285504Y-00208378
Y-00246478
X00222004Y-00259178
X00209304Y-00271878
Y-00233778
X00222004Y-00221078
X00175Y-00205
Y-00255
X00165
X00115Y-00235
Y-00225
Y-00195
Y-00185
X00125
Y-00195
X000975Y-001135
X00094214Y-00103022
X000825Y-0009825
X0005178Y-00099028
X000775Y-000095
X00222004Y-00017878
X00247404
X00234704Y-00043278
X00260104
X00298204Y-00055978
Y-00068678
X00310904Y-00081378
Y-00094078
X00298204Y-00106778
Y-00119478
Y-00132178
Y-00144878
X00285504
Y-00157578
Y-00170278
X00298204
Y-00157578
X00310904Y-00144878
Y-00132178
X00285504
X0027686Y-00133096
X00271Y-00133103
X00272804Y-00144878
X00260104Y-00157578
X00310904Y-00043278
X00323604Y-00017878
X-00025Y-00235
X-00035Y-00275
X00336496Y-00271424
X0034275Y-0026608
Y-0026068
X00340307Y-00255986
X00336496Y-00284269
X0034275Y-0028845
Y-0029385
X00336804Y-00297635
X00375695Y-002837
X00373345Y-00269557
X003923Y-0024825
X00404655Y-002475
X0043275Y-00236881
X004462Y-00252
X004516
X0045575Y-00268
X004505Y-002915
X0047033Y-00289665
Y-00284265
X00473Y-00294236
Y-0025225
X00493719Y-00257422
X004548Y-00192
X00446741Y-00174
X00439241Y-00170469
X00428241
Y-00159469
X00434003Y-00164678
X00439241Y-00159469
X00417241
X00421503Y-00164678
X00417241Y-00170469
X00383195Y-00170278
X003585Y-00215737
X00362696Y-00237304
X00420195Y-003006
X00472085Y-001445
X0046Y-0012
X00444855Y-0008
X00445389Y-00062809
Y-00057409
X00447512Y-00042988
X0044Y-00043
X00457762Y-00041738
X00469262Y-00037738
X0044925Y-00020988
X0042625Y-000335
X003972Y-0002905
X00392684Y-00051816
X00401747Y-00054244
X00350012Y-00039805
X00351282Y-00034725
X00336804Y-00030578
X003367Y-00043278
X00336804Y-00081378
X0034275Y-00081364
X0034775Y-00094691
X00336804Y-00094078
X004125Y000135
X004262Y00018
X00430903Y0002375
X004262Y00029
X004372
X004482
X00443403Y0002375
X004482Y00018
X004372
X0045525Y000135
X0047225Y0001925
X004718Y000477
X00461478Y000383
X004475Y0005425
X004425
T03
X003885Y-006905
X0041925Y-006665
X00450201Y-0067864
X0044975Y-00652792
X00473094Y-00635448
X00470754Y-0058025
Y-005705
X0044625Y-0056525
Y-00559
X0044
X0043375
Y-0056525
X0044
X004465Y-0053525
X004475Y-00521
X00448Y-005085
X00470754Y-0051475
X00459Y-0052825
X0041125Y-0053475
X00390739Y-00560845
X00384489
X0038475Y-0056975
X003785
X00391
X003585Y-005655
X003485Y-005675
X0034225
X00336
Y-0057375
X0034225
X003485
X003555Y-0053275
X00333259Y-004959
X0033355Y-00467
X0034Y-00467135
X00346
X0037225Y-00470845
X004025Y-00453563
X0041625Y-0048325
X00426562Y-00489488
X00460865Y-0045925
X004745Y-0044675
Y-00414787
Y-0039975
X00474264Y-00372364
X0044625Y-0037175
X0044
X0043375
Y-003655
X0044
X0044625
X004422Y-003532
X0044425Y-0030725
X00415Y-00324
X0047025Y-0033
X0038475Y-00359284
Y-0036725
X00371
Y-00359284
X003585
Y-0036725
X003485Y-00368
Y-0037425
X0034225
Y-00368
X00336
Y-0037425
X00405176Y-00411578
X003585Y-0063342
Y-00642
X0033355Y-0062875
X00332Y-00596
X00310904Y-00595176
X0031075Y-00615
X00277736Y-0062595
X0028725Y-00664
X0029154Y-0066025
X00296Y-00664
X003045
X0030054Y-0066
X0030475Y-006535
X002968Y-0068925
X002515
X00165Y-006642
X0012025Y-00639
X001055Y-0064875
X00141Y-0061525
X0014675Y-00562
X001468Y-00555782
X00153Y-0055575
X001593Y-00555782
Y-00562032
X0015305
X00133Y-0055925
X00126Y-0052725
X0014675Y-00523
X0015075Y-0053075
X0016675Y-00499
X0015899Y-00484905
X00143888
X001185Y-0048525
X00108387
X001Y-00499
X000875Y-0051
X0006975Y-005105
X000615
X0005325
Y-00519
X000615Y-0051925
X0006975
X0009175Y-0053066
X0009175Y-0053866
X0003245Y-005105
X00019166Y-00512
X00016166Y-0049025
X0000425Y-0055145
X0000425Y-00561
X-00032184
X-0003225Y-0055145
X-000375Y-0052175
X-0004925Y-005965
X-000575
X-0000575Y-00599
X00007Y-0059925
X0003875Y-00576
X0005775Y-0061225
X0019125Y-0059225
Y-00586329
X00194655Y-0058025
Y-00574
X00200905
Y-0058025
X00207155
Y-00574
X001805Y-0056675
X00284655Y-00562585
Y-00556335
X00279Y-005565
X00284655Y-00550085
X00290905
X00297155
Y-00556335
Y-00562585
X00290905
Y-00556335
X0030925Y-00562585
X00326825Y-00534775
X00298204Y-00475213
Y-00449813
X0033175Y-004465
X0032875Y-004175
X00329365Y-0039028
X00285504Y-00411578
X00330204Y-00322678
X0014675Y-004075
X0011675Y-0040675
X001185Y-00422109
X0009175Y-004345
X001455Y-00444678
X00157768Y-00444338
X0017575Y-0044925
X-0005325Y-00376
X-000535Y-0036
Y-00334
X-0005305Y-0031735
X-000635Y-0066325
X-00071Y-006615
X-00114Y-0066975
X-0013Y-0068075
X-00122Y-00639
X-00138108Y-00621857
X-0009125Y-0059775
X-0009425Y-00555
X-0009625Y-005195
X-00125Y-0052425
X-00185
X-002
X-00215
X-0022Y-0054625
X-0022875Y-00555
X-0025075Y-0056
X-0024475Y-0052425
X-0027Y-00521
Y-0053025
X-00329Y-005805
X-0030425Y-0065684
X-0027Y-0064625
X-0025075Y-00645
X-0027Y-0067225
X-00404534Y-00670412
X-00413034Y-00652162
X-00417784Y-00620412
X-00426784
X-00454534Y-00651662
X-008375Y-00643493
X-00069Y-000625
X-000723Y0003018
X-000865Y000515
X-0008632Y000633
X-000605Y0003
X-0003525Y-0000425
X-000275
X-0002Y-00004
X-0002Y-00012878
X-000275
X-00035345
X-0004682Y-000277
X-00047Y-000395
X-0005725Y-000625
X-00058073Y-0009475
Y-00103
X-00051823Y-0009875
X-0000175Y-00089831
Y-00081987
X00021509Y-000865
X00033509
X000335Y-000795
X00030167Y-00041622
X0002Y-000415
X00040333
X000505
X00062931Y-00043778
X001075Y-000565
X00131Y-00052
X001545
X0017875Y-000535
X00177235Y-00081378
X00131988Y-00090403
X00124349Y-00069178
X00096Y-000945
X0007175Y-00094496
X0011225Y-0000625
X0011625Y0
X00108
X0012625Y-0000325
X0012725Y-0001125
X0013375Y-000055
X0015Y-0000425
X001585Y0
X0016675
X0020425
X001985Y-0001825
X00188Y000395
X00178479Y000355
Y00044
X0017
Y00035388
X00172846Y00058206
X00157235Y00072405
X0013805Y00058102
X0012625Y00058282
X001013Y00058573
X000895Y00058753
X00058Y000545
X0004625
X0002625Y0006275
X0002643Y0007455
X0000605Y0005307
X-0000575Y0005325
X-00053Y-001765
X-00053154Y-00194345
X-0005325Y-00215
Y-00241
X-0005345Y-002575
X-000535Y-002745
Y-003005
X003295Y-002235
X003278Y000775
X0028225Y00063
X0034175Y0005475
X00348Y00066
Y0007225
X0035425
Y00066
X003605
Y0007225
X00370905Y00057154
X00376905
X00382905
X00388905
X00394905
X00400905
X004125Y000295
X00416Y000885
X00422
X00428
X00434
X0044
X00446
X0047175Y0006875
X00478
X0048425Y000685
X004905
X004965
X00477865Y-00003
X00464655Y-0002527
X004415Y-0002125
X0044125Y-00054
X00442991Y-00094496
X00442991Y-001185
X00449241
Y-0012475
X00442991
X00436741
Y-001185
X004175Y-001115
X003895Y-0011625
Y-0012425
X0037125Y-0012475
X0036325
Y-001165
X0037125
X00352241Y-00118492
X00345991
X00339741
Y-00124742
X00345991
X00352241
X00333615Y-0013753
X00333Y-0016475
X003615Y-00198584
X0040575Y-00208
X00430903Y-00218845
X0043225Y-0024525
X004265Y-002705
X00411557Y-00269751
X00414259Y-0029263
X00392187Y-00293572
X0045675Y-0023575
X0045875Y-0022375
X00454Y-00208
X00471119Y-00158087
X00489369Y-00149087
X0036075Y-0007
X00352155
X00344655
X0037325Y-000365
X003795
Y-0003025
X0037325
X00367
X00333Y-00006635
X0034175Y0002475
T04
X00512039Y-00650845
X00525539Y-00650845
X00539039
X00552539
X00566039
X00579539
X00593039
Y-00632845
X00579539
X00566039
X00552539
X00539039
X00525539
X00512039
Y-00614845
X00525539
X00539039
X00552539
X00566039
X00579539
X00593039
Y-00596845
X00579539
X00566039
X00552539
X00539039
X00525539
X00512039
Y-00578845
X00525539
X00539039
X00552539
X00566039
X00579539
X00593039
Y-00560845
X00579539
X00566039
X00552539
X00539039
X00525539
X00512039
Y-00542845
X00525539
X00539039
X00552539
X00566039
X00579539
X00593039
Y-00524845
X00579539
X00566039
X00552539
X00539039
X00525539
X00512039
Y-00506845
X00525539
X00539039
X00552539
X00566039
X00579539
X00593039
Y-00488845
X00579539
X00566039
X00552539
X00539039
X00525539
X00512039
Y-00470845
X00525539
X00539039
X00552539
X00566039
X00579539
X00593039
Y-00452845
X00579539
X00566039
X00552539
X00539039
X00525539
X00512039
Y-00434845
X00525539
X00539039
X00552539
X00566039
X00579539
X00593039
Y-00416845
X00579539
X00566039
X00552539
X00539039
X00525539
X00512039
Y-00398845
X00525539
X00539039
X00552539
X00566039
X00579539
X00593039
Y-00380845
X00579539
X00566039
X00552539
X00539039
X00525539
X00512039
X0051204Y-00362845
X0052554Y-00362845
X0053904
X0055254
X0056604
X0057954
X0059304
Y-00344845
X0057954
X0056604
X0055254
X0053904
X0052554
X0051204
Y-00326845
X0052554
X0053904
X0055254
X0056604
X0057954
X0059304
Y-00308845
X0057954
X0056604
X0055254
X0053904
X0052554
X0051204
Y-00290845
X0052554
X0053904
X0055254
X0056604
X0057954
X0059304
Y-00272845
X0057954
X0056604
X0055254
X0053904
X0052554
X0051204
Y-00254845
X0052554
X0053904
X0055254
X0056604
X0057954
X0059304
Y-00236845
X0057954
X0056604
X0055254
X0053904
X0052554
X0051204
Y-00218845
X0052554
X0053904
X0055254
X0056604
X0057954
X0059304
Y-00200845
X0057954
X0056604
X0055254
X0053904
X0052554
X0051204
Y-00182845
X0052554
X0053904
X0055254
X0056604
X0057954
X0059304
Y-00164845
X0057954
X0056604
X0055254
X0053904
X0052554
X0051204
Y-00146845
X0052554
X0053904
X0055254
X0056604
X0057954
X0059304
Y-00128845
X0057954
X0056604
X0055254
X0053904
X0052554
X0051204
Y-00110845
X0052554
X0053904
X0055254
X0056604
X0057954
X0059304
Y-00092845
X0057954
X0056604
X0055254
X0053904
X0052554
X0051204
X00512039Y-00074844
X00525539
X00539039
X00552539
X00566039
X00579539
X00593039
Y-00056844
X00579539
X00566039
X00552539
X00539039
X00525539
X00512039
Y-00038844
X00525539
X00539039
X00552539
X00566039
X00579539
X00593039
Y-00020844
X00579539
X00566039
X00552539
X00539039
X00525539
X00512039
Y-00002844
X00525539
X00539039
X00552539
X00566039
X00579539
X00593039
Y00015156
X00579539
X00566039
X00552539
X00539039
X00525539
X00512039
Y00033156
X00525539
X00539039
X00552539
X00566039
X00579539
X00593039
Y00051156
X00579539
X00566039
X00552539
X00539039
X00525539
X00512039
T05
X-00845345Y-00782829
X-00825345
X-00805345
X-00785345
X-00765345
X-00745345
X-00725345
X-00705345
X-00685345
X-00665345
X-00645345
X-00625345
X-00605345
X-00585345
X-00565345
X-00545345
X-00525345
X-00505345
X-00485345
X-00465345
X-00475345Y-00762829
X-00495345
X-00515345
X-00535345
X-00555345
X-00575345
X-00595345
X-00615345
X-00635345
X-00655345
X-00675345
X-00695345
X-00715345
X-00735345
X-00755345
X-00775345
X-00795345
X-00785345Y-00742829
X-00765345
X-00745345
X-00725345
X-00705345
X-00685345
X-00665345
X-00645345
X-00625345
X-00605345
X-00585345
X-00565345
X-00545345
X-00525345
X-00505345
X-00485345
X-00465345
X-00475345Y-00722829
X-00495345
X-00515345
X-00535345
X-00555345
X-00575345
X-00595345
X-00615345
X-00635345
X-00655345
X-00675345
X-00695345
X-00715345
X-00735345
X-00755345
X-00775345
X-00795345
X-00835345
X-00845345Y-00742829
X-00835345Y-00762829
X-00455345
X-00435345
X-00425345Y-00782829
X-00405345
X-00385345
X-00365345
X-00345345
X-00325345
X-00305345
X-00285345
X-00265345
X-00245345
X-00225345
X-00205345
X-00185345
X-00165345
X-00145345
X-00125345
X-00105345
X-00085345
X-00065345
X-00075345Y-00762829
X-00095345
X-00115345
X-00105345Y-00742829
X-00085345
X-00065345
X-00075345Y-00722829
X-00095345
X-00115345
X-00135345
X-00155345
X-00175345
X-00195345
X-00215345
X-00235345
X-00255345
X-00275345
X-00295345
X-00315345
X-00335345
X-00355345
X-00375345
X-00395345
X-00415345
X-00435345
X-00455345
X-00445345Y-00742829
Y-00782829
X-00375345Y-00762829
X-00355345
X-00335345
X-00315345
X-00295345
X-00275345
X-00255345
X-00235345
X-00215345
X-00195345
X-00175345
X-00185345Y-00742829
X-00205345
X-00225345
X-00245345
X-00265345
X-00285345
X-00305345
X-00325345
X-00345345
X-00365345
X-00045345
X-00025345
X-00005345
X00014655
X00034655
X00054655
X00074655
X00094655
X00114655
X00134655
X00154655
X00174655
X00194655
X00214655
X00234655
X00254655
X00274655
X00294655
X00314655
X00324655Y-00722829
X00304655
X00284655
X00264655
X00244655
X00224655
X00204655
X00184655
X00164655
X00144655
X00124655
X00104655
X00084655
X00064655
X00044655
X00024655
X00004655
X-00015345
X-00035345
X-00055345
Y-00762829
X-00035345
X-00015345
X00004655
X00024655
X00044655
X00064655
X00084655
X00104655
X00124655
X00144655
X00164655
X00184655
X00204655
X00224655
X00244655
X00264655
X00284655
X00304655
X00324655
X00314655Y-00782829
X00294655
X00274655
X00254655
X00234655
X00214655
X00194655
X00174655
X00154655
X00134655
X00114655
X00094655
X00074655
X00054655
X00034655
X00014655
X-00005345
X-00025345
X-00045345
X00334655
X00354655
X00374655
X00394655
X00414655
X00434655
X00454655
X00464655Y-00762829
Y-00722829
X00444655
X00424655
X00404655
X00384655
X00364655
X00344655
X00354655Y-00742829
X00374655
X00394655
X00404655Y-00762829
X00384655
X00364655
X00344655
X00334655Y-00742829
Y00117171
X00354655
X00374655
X00394655
X00414655
X00434655
X00454655
X00464655Y00137171
Y00177171
X00444655
X00424655
X00404655
X00384655
X00364655
X00344655
X00354655Y00157171
X00374655
X00394655
X00404655Y00137171
X00384655
X00364655
X00344655
X00334655Y00157171
X00314655
X00294655
X00274655
X00254655
X00234655
X00214655
X00194655
X00174655
X00154655
X00134655
X00114655
X00094655
X00074655
X00054655
X00034655
X00014655
X-00005345
X-00025345
X-00045345
X-00035345Y00177171
X-00015345
X00004655
X00024655
X00044655
X00064655
X00084655
X00104655
X00124655
X00144655
X00164655
X00184655
X00204655
X00224655
X00244655
X00264655
X00284655
X00304655
X00324655
Y00137171
X00304655
X00284655
X00264655
X00244655
X00224655
X00204655
X00184655
X00164655
X00144655
X00124655
X00104655
X00084655
X00064655
X00044655
X00024655
X00004655
X-00015345
X-00035345
X-00055345
X-00045345Y00117171
X-00025345
X-00005345
X00014655
X00034655
X00054655
X00074655
X00094655
X00114655
X00134655
X00154655
X00174655
X00194655
X00214655
X00234655
X00254655
X00274655
X00294655
X00314655
X-00055345Y00177171
X-00075345
X-00095345
X-00115345
X-00135345
X-00155345
X-00175345
X-00195345
X-00215345
X-00235345
X-00255345
X-00275345
X-00295345
X-00315345
X-00335345
X-00355345
X-00375345
X-00395345
X-00415345
X-00435345
X-00455345
X-00445345Y00157171
X-00425345
X-00435345Y00137171
X-00455345
X-00445345Y00117171
X-00425345
X-00405345
X-00385345
X-00365345
X-00345345
X-00325345
X-00305345
X-00285345
X-00265345
X-00245345
X-00225345
X-00205345
X-00185345
X-00165345
X-00145345
X-00125345
X-00105345
X-00085345
X-00065345
X-00075345Y00137171
X-00095345
X-00115345
X-00105345Y00157171
X-00085345
X-00065345
X-00125345
X-00185345
X-00205345
X-00225345
X-00245345
X-00265345
X-00285345
X-00305345
X-00325345
X-00345345
X-00365345
X-00355345Y00137171
X-00335345
X-00315345
X-00295345
X-00275345
X-00255345
X-00235345
X-00215345
X-00195345
X-00175345
X-00375345
X-00475345
X-00495345
X-00515345
X-00535345
X-00555345
X-00575345
X-00595345
X-00615345
X-00635345
X-00655345
X-00675345
X-00695345
X-00715345
X-00735345
X-00755345
X-00775345
X-00765345Y00157171
X-00745345
X-00725345
X-00705345
X-00685345
X-00665345
X-00645345
X-00625345
X-00605345
X-00585345
X-00565345
X-00545345
X-00525345
X-00505345
X-00485345
X-00465345
X-00475345Y00177171
X-00495345
X-00515345
X-00535345
X-00555345
X-00575345
X-00595345
X-00615345
X-00635345
X-00655345
X-00675345
X-00695345
X-00715345
X-00735345
X-00755345
X-00775345
X-00795345
X-00815345
X-00835345
X-00855345
X-00845345Y00157171
X-00855345Y00137171
X-00845345Y00117171
X-00825345
X-00805345
X-00785345
X-00765345
X-00745345
X-00725345
X-00705345
X-00685345
X-00665345
X-00645345
X-00625345
X-00605345
X-00585345
X-00565345
X-00545345
X-00525345
X-00505345
X-00485345
X-00465345
X-00785345Y00157171
X-00865345
X-00885345
X-00905345
X-00925345
X-00945345
X-00965345
X-00955345Y00177171
X-00935345
X-00915345
X-00895345
X-00875345
Y00137171
X-00895345
X-00915345
X-00935345
X-00955345
X-00945345Y00117171
X-00925345
X-00905345
X-00885345
X-00865345
X-00965345
T06
X00499539Y-00596845
Y-00524845
Y-00452845
Y-00380845
X0049954Y-00308845
Y-00236845
Y-00164845
Y-00092845
X00499539Y-00020844
Y00051156
T07
X-00635Y-006605
Y-006405
X-00615
X-00595
Y-006605
X-00615
X-00575
X-00555
Y-006405
X-00575
T08
X-0081396Y-00746845
X-0040296
X-0014896
Y00147155
X-0040296
X-0081396
T09
X0043604Y-00746845
Y00147155
T10
X00241454Y-0057562
X-00304546Y-0053612
Y00029379
X00241454Y0005438
T11
X0050554Y-00723345
Y00123655
T12
X0056054Y-00723345
Y00123655
T13
X00261454Y-00532428
X00291954Y00011373
T14
X-00853874Y-006495
X-00711126
M30
